{
.appVersion = "1172";
DisplayStrings = (
a,
"falgafel\012jesus",
SO,
Q,
C,
"g/g.004/g.001/g.003/g.002 \012\012\012"
);
classes = (
{
code = "Euro bar cent colon comma degree divide dollar eight equal five four greater less minus multiply nine numbersign one paragraph percent period periodcentered plus plusminus quotedbl quotesingle section semicolon seven six slash sterling three two underscore yen zero";
name = tnum1;
},
{
code = "Euro.tnum bar.tnum cent.tnum colon.tnum comma.tnum degree.tnum divide.tnum dollar.tnum eight.tnum equal.tnum five.tnum four.tnum greater.tnum less.tnum minus.tnum multiply.tnum nine.tnum numbersign.tnum one.tnum paragraph.tnum percent.tnum period.tnum periodcentered.tnum plus.tnum plusminus.tnum quotedbl.tnum quotesingle.tnum section.tnum semicolon.tnum seven.tnum six.tnum slash.tnum sterling.tnum three.tnum two.tnum underscore.tnum yen.tnum zero.tnum";
name = tnum2;
}
);
copyright = "Copyright (c) 2012, Impallari Type (www.impallari.com)";
customParameters = (
{
name = glyphOrder;
value = (
.notdef,
A,
AE,
AEacute,
Aacute,
Abreve,
Acircumflex,
Adieresis,
Agrave,
Amacron,
Aogonek,
Aring,
Aringacute,
Atilde,
B,
C,
CR,
Cacute,
Ccaron,
Ccedilla,
Ccircumflex,
Cdotaccent,
D,
Dcaron,
Dcroat,
Ddotbelow,
E,
Eacute,
Ebreve,
Ecaron,
Ecircumflex,
Edieresis,
Edotaccent,
Edotbelow,
Egrave,
Emacron,
Eng,
Eogonek,
Eth,
Etilde,
Euro,
Euro.tnum,
F,
G,
Gbreve,
Gcircumflex,
Gcommaaccent,
Gdotaccent,
H,
Hbar,
Hcircumflex,
Hdotbelow,
I,
IJ,
Iacute,
Ibreve,
Icircumflex,
Idieresis,
Idotaccent,
Idotbelow,
Igrave,
Imacron,
Iogonek,
Itilde,
J,
Jcircumflex,
K,
Kcommaaccent,
L,
Lacute,
Lcaron,
Lcommaaccent,
Ldot,
Lslash,
M,
N,
NULL,
Nacute,
Ncaron,
Ncommaaccent,
Ndotaccent,
Ntilde,
O,
OE,
Oacute,
Obreve,
Ocircumflex,
Odieresis,
Odotbelow,
Ograve,
Ohungarumlaut,
Omacron,
Oogonek,
Oslash,
Oslashacute,
Otilde,
P,
Q,
R,
Racute,
Rcaron,
Rcommaaccent,
Rdotbelow,
S,
Sacute,
Scaron,
Schwa,
Scircumflex,
Sdotbelow,
T,
Tbar,
Tcaron,
Tdotbelow,
Thorn,
U,
Uacute,
Ubreve,

glyphs = (
{
glyphname = A;
lastChange = "2018-10-23 22:45:40 +0000";
layers = (
{
anchors = (
{
name = bottom;
position = "{384, 0}";
},
{
name = topcap;
position = "{520, 714}";
}
);
layerId = master01;
paths = (
{
closed = 1;
nodes = (
"472 79 LINE SMOOTH",
"471 74 OFFCURVE",
"471 69 OFFCURVE",
"471 65 CURVE SMOOTH",
"472 34 OFFCURVE",
"491 28 OFFCURVE",
"544 24 CURVE",
"532 0 LINE",
"267 0 LINE",
"280 24 LINE",
"345 25 OFFCURVE",
"372 37 OFFCURVE",
"380 90 CURVE SMOOTH",
"402 246 LINE",
"198 246 LINE",
"87 118 LINE SMOOTH",
"60 87 OFFCURVE",
"52 75 OFFCURVE",
"52 59 CURVE SMOOTH",
"53 41 OFFCURVE",
"75 31 OFFCURVE",
"126 24 CURVE",
"114 0 LINE",
"-125 0 LINE",
"-113 24 LINE",
"-31 36 OFFCURVE",
"-5 56 OFFCURVE",
"50 120 CURVE SMOOTH",
"448 582 LINE",
"458 662 LINE",
"550 682 LINE"
);
},
{
closed = 1;
nodes = (
"225 278 LINE",
"406 278 LINE",
"442 528 LINE"
);
}
);
width = 643;
},
{
anchors = (
{
name = bottom;
position = "{384, 0}";
},
{
name = topcap;
position = "{520, 714}";
}
);
layerId = "5CF0B95A-6341-4D13-90DE-0CF1719C21EC";
paths = (
{
closed = 1;
nodes = (
"472 79 LINE SMOOTH",
"471 74 OFFCURVE",
"471 69 OFFCURVE",
"471 65 CURVE SMOOTH",
"472 34 OFFCURVE",
"491 28 OFFCURVE",
"544 24 CURVE",
"532 0 LINE",
"267 0 LINE",
"280 24 LINE",
"345 25 OFFCURVE",
"372 37 OFFCURVE",
"380 90 CURVE SMOOTH",
"402 246 LINE",
"198 246 LINE",
"87 118 LINE SMOOTH",
"60 87 OFFCURVE",
"52 75 OFFCURVE",
"52 59 CURVE SMOOTH",
"53 41 OFFCURVE",
"75 31 OFFCURVE",
"126 24 CURVE",
"114 0 LINE",
"-125 0 LINE",
"-113 24 LINE",
"-31 36 OFFCURVE",
"-5 56 OFFCURVE",
"50 120 CURVE SMOOTH",
"448 582 LINE",
"458 662 LINE",
"550 682 LINE"
);
},
{
closed = 1;
nodes = (
"225 278 LINE",
"406 278 LINE",
"442 528 LINE"
);
}
);
width = 643;
}
);
leftKerningGroup = A;
rightKerningGroup = A;
unicode = 0041;
},
{
glyphname = AE;
lastChange = "2018-10-23 22:45:40 +0000";
layers = (
{
layerId = master01;
paths = (
{
closed = 1;
nodes = (
"233 24 LINE",
"312 40 LINE",
"397 246 LINE",
"218 246 LINE",
"101 118 LINE SMOOTH",
"74 88 OFFCURVE",
"65 74 OFFCURVE",
"65 59 CURVE SMOOTH",
"65 41 OFFCURVE",
"86 31 OFFCURVE",
"136 24 CURVE",
"125 0 LINE",
"-117 0 LINE",
"-105 24 LINE",
"-22 36 OFFCURVE",
"3 56 OFFCURVE",
"61 120 CURVE SMOOTH",
"518 626 LINE",
"452 642 LINE",
"460 662 LINE",
"909 662 LINE",
"916 473 LINE",
"893 473 LINE",
"882 534 OFFCURVE",
"868 585 OFFCURVE",
"843 628 CURVE",
"648 628 LINE",
"542 366 LINE",
"686 366 LINE",
"715 399 OFFCURVE",
"739 432 OFFCURVE",
"759 464 CURVE",
"783 464 LINE",
"686 229 LINE",
"661 229 LINE",
"671 263 OFFCURVE",
"674 298 OFFCURVE",
"676 332 CURVE",
"526 332 LINE",
"404 34 LINE",
"682 34 LINE",
"728 89 OFFCURVE",
"767 144 OFFCURVE",
"800 198 CURVE",
"825 198 LINE",
"746 0 LINE",
"223 0 LINE"
);
},
{
closed = 1;
nodes = (
"542 604 LINE",
"246 278 LINE",
"410 278 LINE",
"545 604 LINE"
);
}
);
width = 894;
},
{
layerId = "5CF0B95A-6341-4D13-90DE-0CF1719C21EC";
paths = (
{
closed = 1;
nodes = (
"233 24 LINE",
"312 40 LINE",
"397 246 LINE",
"218 246 LINE",
"101 118 LINE SMOOTH",
"74 88 OFFCURVE",
"65 74 OFFCURVE",
"65 59 CURVE SMOOTH",
"65 41 OFFCURVE",
"86 31 OFFCURVE",
"136 24 CURVE",
"125 0 LINE",
"-117 0 LINE",
"-105 24 LINE",
"-22 36 OFFCURVE",
"3 56 OFFCURVE",
"61 120 CURVE SMOOTH",
"518 626 LINE",
"452 642 LINE",
"460 662 LINE",
"909 662 LINE",
"916 473 LINE",
"893 473 LINE",
"882 534 OFFCURVE",
"868 585 OFFCURVE",
"843 628 CURVE",
"648 628 LINE",
"542 366 LINE",
"686 366 LINE",
"715 399 OFFCURVE",
"739 432 OFFCURVE",
"759 464 CURVE",
"783 464 LINE",
"686 229 LINE",
"661 229 LINE",
"671 263 OFFCURVE",
"674 298 OFFCURVE",
"676 332 CURVE",
"526 332 LINE",
"404 34 LINE",
"682 34 LINE",
"728 89 OFFCURVE",
"767 144 OFFCURVE",
"800 198 CURVE",
"825 198 LINE",
"746 0 LINE",
"223 0 LINE"
);
},
{
closed = 1;
nodes = (
"542 604 LINE",
"246 278 LINE",
"410 278 LINE",
"545 604 LINE"
);
}
);
width = 894;
}
);
leftKerningGroup = AE;
rightKerningGroup = E;
unicode = 00C6;
},
{
glyphname = Aringacute;
lastChange = "2018-10-23 22:45:40 +0000";
layers = (
{
components = (
{
name = A;
},
{
name = ring.cap;
transform = "{1, 0, 0, 1, 446, 0}";
}
);
layerId = master01;
paths = (
{
closed = 1;
nodes = (
"576 812 OFFCURVE",
"583 814 OFFCURVE",
"591 814 CURVE SMOOTH",
"617 814 OFFCURVE",
"629 803 OFFCURVE",
"629 784 CURVE SMOOTH",
"629 765 OFFCURVE",
"614 753 OFFCURVE",
"569 753 CURVE SMOOTH",
"568 809 LINE"
);
},
{
closed = 1;
nodes = (
"425 748 LINE",
"421 769 LINE",
"476 787 LINE",
"473 746 LINE"
);
}
);
width = 643;
},
{
components = (
{
name = A;
},
{
name = ring.cap;
transform = "{1, 0, 0, 1, 446, 0}";
}
);
layerId = "5CF0B95A-6341-4D13-90DE-0CF1719C21EC";
paths = (
{
closed = 1;
nodes = (
"576 812 OFFCURVE",
"583 814 OFFCURVE",
"591 814 CURVE SMOOTH",
"617 814 OFFCURVE",
"629 803 OFFCURVE",
"629 784 CURVE SMOOTH",
"629 765 OFFCURVE",
"614 753 OFFCURVE",
"569 753 CURVE SMOOTH",
"568 809 LINE"
);
},
{
closed = 1;
nodes = (
"425 748 LINE",
"421 769 LINE",
"476 787 LINE",
"473 746 LINE"
);
}
);
width = 643;
}
);
leftKerningGroup = A;
rightKerningGroup = A;
unicode = 01FA;
},
{
glyphname = B;
lastChange = "2018-10-23 22:45:40 +0000";
layers = (
{
layerId = master01;
paths = (
{
closed = 1;
nodes = (
"359 33 OFFCURVE",
"439 98 OFFCURVE",
"439 216 CURVE SMOOTH",
"439 298 OFFCURVE",
"396 335 OFFCURVE",
"309 335 CURVE SMOOTH",
"247 335 LINE",
"157 116 LINE SMOOTH",
"147 91 OFFCURVE",
"143 75 OFFCURVE",
"143 64 CURVE SMOOTH",
"143 41 OFFCURVE",
"161 33 OFFCURVE",
"209 33 CURVE SMOOTH"
);
},
{
closed = 1;
nodes = (
"463 369 OFFCURVE",
"533 428 OFFCURVE",
"533 526 CURVE SMOOTH",
"533 595 OFFCURVE",
"495 627 OFFCURVE",
"422 627 CURVE SMOOTH",
"370 627 LINE",
"261 369 LINE",
"341 369 LINE SMOOTH"
);
},
{
closed = 1;
nodes = (
"31 40 LINE",
"273 622 LINE",
"206 638 LINE",
"216 662 LINE",
"422 662 LINE SMOOTH",
"544 662 OFFCURVE",
"623 611 OFFCURVE",
"623 527 CURVE SMOOTH",
"623 440 OFFCURVE",
"538 362 OFFCURVE",
"425 345 CURVE",
"425 341 LINE",
"494 324 OFFCURVE",
"532 273 OFFCURVE",
"532 201 CURVE SMOOTH",
"532 80 OFFCURVE",
"421 0 OFFCURVE",
"255 0 CURVE SMOOTH",
"-54 0 LINE",
"-45 24 LINE"
);
}
);
width = 615;
},
{
layerId = "5CF0B95A-6341-4D13-90DE-0CF1719C21EC";
paths = (
{
closed = 1;
nodes = (
"359 33 OFFCURVE",
"439 98 OFFCURVE",
"439 216 CURVE SMOOTH",
"439 298 OFFCURVE",
"396 335 OFFCURVE",
"309 335 CURVE SMOOTH",
"247 335 LINE",
"157 116 LINE SMOOTH",
"147 91 OFFCURVE",
"143 75 OFFCURVE",
"143 64 CURVE SMOOTH",
"143 41 OFFCURVE",
"161 33 OFFCURVE",
"209 33 CURVE SMOOTH"
);
},
{
closed = 1;
nodes = (
"463 369 OFFCURVE",
"533 428 OFFCURVE",
"533 526 CURVE SMOOTH",
"533 595 OFFCURVE",
"495 627 OFFCURVE",
"422 627 CURVE SMOOTH",
"370 627 LINE",
"261 369 LINE",
"341 369 LINE SMOOTH"
);
},
{
closed = 1;
nodes = (
"31 40 LINE",
"273 622 LINE",
"206 638 LINE",
"216 662 LINE",
"422 662 LINE SMOOTH",
"544 662 OFFCURVE",
"623 611 OFFCURVE",
"623 527 CURVE SMOOTH",
"623 440 OFFCURVE",
"538 362 OFFCURVE",
"425 345 CURVE",
"425 341 LINE",
"494 324 OFFCURVE",
"532 273 OFFCURVE",
"532 201 CURVE SMOOTH",
"532 80 OFFCURVE",
"421 0 OFFCURVE",
"255 0 CURVE SMOOTH",
"-54 0 LINE",
"-45 24 LINE"
);
}
);
width = 615;
}
);
leftKerningGroup = I;
unicode = 0042;
},
{
glyphname = C;
lastChange = "2018-10-23 22:45:40 +0000";
layers = (
{
anchors = (
{
name = bottom;
position = "{261, 0}";
},
{
name = topcap;
position = "{568, 714}";
}
);
layerId = master01;
paths = (
{
closed = 1;
nodes = (
"481 0 LINE",
"576 252 LINE",
"551 252 LINE",
"493 115 OFFCURVE",
"390 32 OFFCURVE",
"280 32 CURVE SMOOTH",
"193 32 OFFCURVE",
"149 84 OFFCURVE",
"149 188 CURVE SMOOTH",
"149 410 OFFCURVE",
"341 633 OFFCURVE",
"535 633 CURVE SMOOTH",
"602 633 OFFCURVE",
"633 606 OFFCURVE",
"633 545 CURVE SMOOTH",
"633 523 OFFCURVE",
"629 496 OFFCURVE",
"620 464 CURVE",
"645 464 LINE",
"728 662 LINE",
"710 662 LINE",
"679 634 LINE",
"648 657 OFFCURVE",
"599 671 OFFCURVE",
"544 671 CURVE SMOOTH",
"299 671 OFFCURVE",
"54 427 OFFCURVE",
"54 183 CURVE SMOOTH",
"54 56 OFFCURVE",
"121 -9 OFFCURVE",
"256 -9 CURVE SMOOTH",
"334 -9 OFFCURVE",
"393 13 OFFCURVE",
"461 66 CURVE",
"464 66 LINE",
"458 0 LINE"
);
}
);
width = 638;
},
{
anchors = (
{
name = bottom;
position = "{261, 0}";
},
{
name = topcap;
position = "{568, 714}";
}
);
layerId = "5CF0B95A-6341-4D13-90DE-0CF1719C21EC";
paths = (
{
closed = 1;
nodes = (
"481 0 LINE",
"576 252 LINE",
"551 252 LINE",
"493 115 OFFCURVE",
"390 32 OFFCURVE",
"280 32 CURVE SMOOTH",
"193 32 OFFCURVE",
"149 84 OFFCURVE",
"149 188 CURVE SMOOTH",
"149 410 OFFCURVE",
"341 633 OFFCURVE",
"535 633 CURVE SMOOTH",
"602 633 OFFCURVE",
"633 606 OFFCURVE",
"633 545 CURVE SMOOTH",
"633 523 OFFCURVE",
"629 496 OFFCURVE",
"620 464 CURVE",
"645 464 LINE",
"728 662 LINE",
"710 662 LINE",
"679 634 LINE",
"648 657 OFFCURVE",
"599 671 OFFCURVE",
"544 671 CURVE SMOOTH",
"299 671 OFFCURVE",
"54 427 OFFCURVE",
"54 183 CURVE SMOOTH",
"54 56 OFFCURVE",
"121 -9 OFFCURVE",
"256 -9 CURVE SMOOTH",
"334 -9 OFFCURVE",
"393 13 OFFCURVE",
"461 66 CURVE",
"464 66 LINE",
"458 0 LINE"
);
}
);
width = 638;
}
);
leftKerningGroup = C;
rightKerningGroup = C;
unicode = 0043;
},
{
glyphname = D;
lastChange = "2018-10-23 22:45:40 +0000";
layers = (
{
anchors = (
{
name = bottom;
position = "{200, 0}";
},
{
name = topcap;
position = "{495, 714}";
}
);
layerId = master01;
paths = (
{
closed = 1;
nodes = (
"29 36 LINE",
"273 626 LINE",
"206 642 LINE",
"215 662 LINE",
"392 662 LINE SMOOTH",
"562 662 OFFCURVE",
"672 562 OFFCURVE",
"672 404 CURVE SMOOTH",
"672 250 OFFCURVE",
"577 104 OFFCURVE",
"434 40 CURVE SMOOTH",
"373 13 OFFCURVE",
"300 0 OFFCURVE",
"208 0 CURVE SMOOTH",
"-58 0 LINE",
"-50 20 LINE"
);
},
{
closed = 1;
nodes = (
"403 36 OFFCURVE",
"577 180 OFFCURVE",
"577 426 CURVE SMOOTH",
"577 554 OFFCURVE",
"509 628 OFFCURVE",
"391 628 CURVE SMOOTH",
"368 628 LINE",
"154 111 LINE SMOOTH",
"146 93 OFFCURVE",
"143 79 OFFCURVE",
"143 69 CURVE SMOOTH",
"143 45 OFFCURVE",
"159 36 OFFCURVE",
"203 36 CURVE SMOOTH"
);
}
);
width = 692;
},
{
anchors = (
{
name = bottom;
position = "{200, 0}";
},
{
name = topcap;
position = "{495, 714}";
}
);
layerId = "5CF0B95A-6341-4D13-90DE-0CF1719C21EC";
paths = (
{
closed = 1;
nodes = (
"29 36 LINE",
"273 626 LINE",
"206 642 LINE",
"215 662 LINE",
"392 662 LINE SMOOTH",
"562 662 OFFCURVE",
"672 562 OFFCURVE",
"672 404 CURVE SMOOTH",
"672 250 OFFCURVE",
"577 104 OFFCURVE",
"434 40 CURVE SMOOTH",
"373 13 OFFCURVE",
"300 0 OFFCURVE",
"208 0 CURVE SMOOTH",
"-58 0 LINE",
"-50 20 LINE"
);
},
{
closed = 1;
nodes = (
"403 36 OFFCURVE",
"577 180 OFFCURVE",
"577 426 CURVE SMOOTH",
"577 554 OFFCURVE",
"509 628 OFFCURVE",
"391 628 CURVE SMOOTH",
"368 628 LINE",
"154 111 LINE SMOOTH",
"146 93 OFFCURVE",
"143 79 OFFCURVE",
"143 69 CURVE SMOOTH",
"143 45 OFFCURVE",
"159 36 OFFCURVE",
"203 36 CURVE SMOOTH"
);
}
);
width = 692;
}
);
leftKerningGroup = I;
rightKerningGroup = D;
unicode = 0044;
},
{
glyphname = Dcroat;
lastChange = "2018-10-23 22:45:40 +0000";
layers = (
{
components = (
{
name = D;
transform = "{1, 0, 0, 1, 3, 0}";
}
);
layerId = master01;
paths = (
{
closed = 1;
nodes = (
"83 361 LINE",
"390 361 LINE",
"373 323 LINE",
"67 323 LINE"
);
}
);
width = 695;
},
{
components = (
{
name = D;
transform = "{1, 0, 0, 1, 3, 0}";
}
);
layerId = "5CF0B95A-6341-4D13-90DE-0CF1719C21EC";
paths = (
{
closed = 1;
nodes = (
"83 361 LINE",
"390 361 LINE",
"373 323 LINE",
"67 323 LINE"
);
}
);
width = 695;
}
);
leftKerningGroup = I;
rightKerningGroup = D;
unicode = 0110;
},
{
glyphname = E;
lastChange = "2018-10-23 22:45:40 +0000";
layers = (
{
anchors = (
{
name = bottom;
position = "{207, 0}";
},
{
name = topcap;
position = "{480, 714}";
}
);
layerId = master01;
paths = (
{
closed = 1;
nodes = (
"-50 20 LINE",
"29 36 LINE",
"273 626 LINE",
"206 642 LINE",
"215 662 LINE",
"628 662 LINE",
"635 473 LINE",
"611 473 LINE",
"601 534 OFFCURVE",
"587 585 OFFCURVE",
"562 628 CURVE",
"367 628 LINE",
"261 366 LINE",
"405 366 LINE",
"433 399 OFFCURVE",
"458 432 OFFCURVE",
"477 464 CURVE",
"502 464 LINE",
"405 229 LINE",
"380 229 LINE",
"390 263 OFFCURVE",
"393 298 OFFCURVE",
"395 332 CURVE",
"245 332 LINE",
"123 34 LINE",
"401 34 LINE",
"447 89 OFFCURVE",
"486 144 OFFCURVE",
"519 198 CURVE",
"544 198 LINE",
"465 0 LINE",
"-58 0 LINE"
);
}
);
width = 613;
},
{
anchors = (
{
name = bottom;
position = "{207, 0}";
},
{
name = topcap;
position = "{480, 714}";
}
);
layerId = "5CF0B95A-6341-4D13-90DE-0CF1719C21EC";
paths = (
{
closed = 1;
nodes = (
"-50 20 LINE",
"29 36 LINE",
"273 626 LINE",
"206 642 LINE",
"215 662 LINE",
"628 662 LINE",
"635 473 LINE",
"611 473 LINE",
"601 534 OFFCURVE",
"587 585 OFFCURVE",
"562 628 CURVE",
"367 628 LINE",
"261 366 LINE",
"405 366 LINE",
"433 399 OFFCURVE",
"458 432 OFFCURVE",
"477 464 CURVE",
"502 464 LINE",
"405 229 LINE",
"380 229 LINE",
"390 263 OFFCURVE",
"393 298 OFFCURVE",
"395 332 CURVE",
"245 332 LINE",
"123 34 LINE",
"401 34 LINE",
"447 89 OFFCURVE",
"486 144 OFFCURVE",
"519 198 CURVE",
"544 198 LINE",
"465 0 LINE",
"-58 0 LINE"
);
}
);
width = 613;
}
);
leftKerningGroup = I;
rightKerningGroup = E;
unicode = 0045;
},
{
glyphname = Eng;
lastChange = "2018-10-23 22:45:40 +0000";
layers = (
{
components = (
{
name = N;
}
);
layerId = master01;
paths = (
{
closed = 1;
nodes = (
"440 110 LINE",
"384 -23 LINE SMOOTH",
"331 -151 OFFCURVE",
"303 -186 OFFCURVE",
"263 -186 CURVE SMOOTH",
"212 -186 OFFCURVE",
"236 -109 OFFCURVE",
"180 -109 CURVE SMOOTH",
"157 -109 OFFCURVE",
"136 -125 OFFCURVE",
"136 -152 CURVE SMOOTH",
"136 -189 OFFCURVE",
"175 -220 OFFCURVE",
"238 -220 CURVE SMOOTH",
"332 -220 OFFCURVE",
"421 -145 OFFCURVE",
"472 -23 CURVE SMOOTH",
"527 110 LINE"
);
}
);
width = 701;
},
{
components = (
{
name = N;
}
);
layerId = "5CF0B95A-6341-4D13-90DE-0CF1719C21EC";
paths = (
{
closed = 1;
nodes = (
"440 110 LINE",
"384 -23 LINE SMOOTH",
"331 -151 OFFCURVE",
"303 -186 OFFCURVE",
"263 -186 CURVE SMOOTH",
"212 -186 OFFCURVE",
"236 -109 OFFCURVE",
"180 -109 CURVE SMOOTH",
"157 -109 OFFCURVE",
"136 -125 OFFCURVE",
"136 -152 CURVE SMOOTH",
"136 -189 OFFCURVE",
"175 -220 OFFCURVE",
"238 -220 CURVE SMOOTH",
"332 -220 OFFCURVE",
"421 -145 OFFCURVE",
"472 -23 CURVE SMOOTH",
"527 110 LINE"
);
}
);
width = 701;
}
);
leftKerningGroup = N;
rightKerningGroup = N;
unicode = 014A;
},
{
glyphname = Eth;
lastChange = "2018-10-23 22:45:40 +0000";
layers = (
{
components = (
{
name = D;
transform = "{1, 0, 0, 1, 3, 0}";
}
);
layerId = master01;
paths = (
{
closed = 1;
nodes = (
"83 361 LINE",
"390 361 LINE",
"373 323 LINE",
"67 323 LINE"
);
}
);
width = 695;
},
{
components = (
{
name = D;
transform = "{1, 0, 0, 1, 3, 0}";
}
);
layerId = "5CF0B95A-6341-4D13-90DE-0CF1719C21EC";
paths = (
{
closed = 1;
nodes = (
"83 361 LINE",
"390 361 LINE",
"373 323 LINE",
"67 323 LINE"
);
}
);
width = 695;
}
);
leftKerningGroup = I;
rightKerningGroup = D;
unicode = 00D0;
},
{
glyphname = Euro;
lastChange = "2018-10-23 22:45:40 +0000";
layers = (
{
layerId = master01;
paths = (
{
closed = 1;
nodes = (
"153 379 LINE",
"144 358 OFFCURVE",
"137 335 OFFCURVE",
"131 313 CURVE",
"68 313 LINE",
"49 275 LINE",
"122 275 LINE",
"114 237 OFFCURVE",
"110 197 OFFCURVE",
"110 157 CURVE SMOOTH",
"110 43 OFFCURVE",
"171 -9 OFFCURVE",
"252 -9 CURVE SMOOTH",
"346 -9 OFFCURVE",
"449 56 OFFCURVE",
"449 123 CURVE SMOOTH",
"449 152 OFFCURVE",
"437 163 OFFCURVE",
"415 163 CURVE SMOOTH",
"387 163 OFFCURVE",
"366 143 OFFCURVE",
"345 104 CURVE SMOOTH",
"318 54 OFFCURVE",
"286 27 OFFCURVE",
"248 27 CURVE SMOOTH",
"213 27 OFFCURVE",
"198 56 OFFCURVE",
"198 120 CURVE SMOOTH",
"198 168 OFFCURVE",
"206 221 OFFCURVE",
"220 275 CURVE",
"418 275 LINE",
"437 313 LINE",
"231 313 LINE",
"238 335 OFFCURVE",
"246 358 OFFCURVE",
"255 379 CURVE",
"468 379 LINE",
"487 417 LINE",
"271 417 LINE",
"326 538 OFFCURVE",
"402 635 OFFCURVE",
"464 635 CURVE SMOOTH",
"496 635 OFFCURVE",
"507 620 OFFCURVE",
"507 570 CURVE SMOOTH",
"507 533 OFFCURVE",
"531 513 OFFCURVE",
"559 513 CURVE SMOOTH",
"588 513 OFFCURVE",
"608 534 OFFCURVE",
"608 561 CURVE SMOOTH",
"608 622 OFFCURVE",
"550 671 OFFCURVE",
"475 671 CURVE SMOOTH",
"356 671 OFFCURVE",
"238 562 OFFCURVE",
"169 417 CURVE",
"118 417 LINE",
"99 379 LINE"
);
}
);
width = 548;
},
{
layerId = "5CF0B95A-6341-4D13-90DE-0CF1719C21EC";
paths = (
{
closed = 1;
nodes = (
"153 379 LINE",
"144 358 OFFCURVE",
"137 335 OFFCURVE",
"131 313 CURVE",
"68 313 LINE",
"49 275 LINE",
"122 275 LINE",
"114 237 OFFCURVE",
"110 197 OFFCURVE",
"110 157 CURVE SMOOTH",
"110 43 OFFCURVE",
"171 -9 OFFCURVE",
"252 -9 CURVE SMOOTH",
"346 -9 OFFCURVE",
"449 56 OFFCURVE",
"449 123 CURVE SMOOTH",
"449 152 OFFCURVE",
"437 163 OFFCURVE",
"415 163 CURVE SMOOTH",
"387 163 OFFCURVE",
"366 143 OFFCURVE",
"345 104 CURVE SMOOTH",
"318 54 OFFCURVE",
"286 27 OFFCURVE",
"248 27 CURVE SMOOTH",
"213 27 OFFCURVE",
"198 56 OFFCURVE",
"198 120 CURVE SMOOTH",
"198 168 OFFCURVE",
"206 221 OFFCURVE",
"220 275 CURVE",
"418 275 LINE",
"437 313 LINE",
"231 313 LINE",
"238 335 OFFCURVE",
"246 358 OFFCURVE",
"255 379 CURVE",
"468 379 LINE",
"487 417 LINE",
"271 417 LINE",
"326 538 OFFCURVE",
"402 635 OFFCURVE",
"464 635 CURVE SMOOTH",
"496 635 OFFCURVE",
"507 620 OFFCURVE",
"507 570 CURVE SMOOTH",
"507 533 OFFCURVE",
"531 513 OFFCURVE",
"559 513 CURVE SMOOTH",
"588 513 OFFCURVE",
"608 534 OFFCURVE",
"608 561 CURVE SMOOTH",
"608 622 OFFCURVE",
"550 671 OFFCURVE",
"475 671 CURVE SMOOTH",
"356 671 OFFCURVE",
"238 562 OFFCURVE",
"169 417 CURVE",
"118 417 LINE",
"99 379 LINE"
);
}
);
width = 548;
}
);
unicode = 20AC;
},
{
glyphname = Euro.tnum;
lastChange = "2018-10-23 22:45:40 +0000";
layers = (
{
layerId = master01;
paths = (
{
closed = 1;
nodes = (
"55 379 LINE",
"46 358 OFFCURVE",
"39 335 OFFCURVE",
"33 313 CURVE",
"-30 313 LINE",
"-49 275 LINE",
"24 275 LINE",
"16 237 OFFCURVE",
"12 197 OFFCURVE",
"12 157 CURVE SMOOTH",
"12 43 OFFCURVE",
"73 -9 OFFCURVE",
"154 -9 CURVE SMOOTH",
"248 -9 OFFCURVE",
"351 56 OFFCURVE",
"351 123 CURVE SMOOTH",
"351 152 OFFCURVE",
"339 163 OFFCURVE",
"316 163 CURVE SMOOTH",
"289 163 OFFCURVE",
"267 143 OFFCURVE",
"247 104 CURVE SMOOTH",
"220 54 OFFCURVE",
"187 27 OFFCURVE",
"150 27 CURVE SMOOTH",
"115 27 OFFCURVE",
"100 56 OFFCURVE",
"100 120 CURVE SMOOTH",
"100 168 OFFCURVE",
"108 221 OFFCURVE",
"122 275 CURVE",
"320 275 LINE",
"339 313 LINE",
"133 313 LINE",
"140 335 OFFCURVE",
"148 358 OFFCURVE",
"157 379 CURVE",
"370 379 LINE",
"389 417 LINE",
"173 417 LINE",
"228 538 OFFCURVE",
"304 635 OFFCURVE",
"366 635 CURVE SMOOTH",
"398 635 OFFCURVE",
"409 620 OFFCURVE",
"409 570 CURVE SMOOTH",
"409 533 OFFCURVE",
"433 513 OFFCURVE",
"461 513 CURVE SMOOTH",
"490 513 OFFCURVE",
"510 534 OFFCURVE",
"510 561 CURVE SMOOTH",
"510 622 OFFCURVE",
"452 671 OFFCURVE",
"377 671 CURVE SMOOTH",
"258 671 OFFCURVE",
"140 562 OFFCURVE",
"71 417 CURVE",
"20 417 LINE",
"1 379 LINE"
);
}
);
width = 516;
},
{
layerId = "5CF0B95A-6341-4D13-90DE-0CF1719C21EC";
paths = (
{
closed = 1;
nodes = (
"55 379 LINE",
"46 358 OFFCURVE",
"39 335 OFFCURVE",
"33 313 CURVE",
"-30 313 LINE",
"-49 275 LINE",
"24 275 LINE",
"16 237 OFFCURVE",
"12 197 OFFCURVE",
"12 157 CURVE SMOOTH",
"12 43 OFFCURVE",
"73 -9 OFFCURVE",
"154 -9 CURVE SMOOTH",
"248 -9 OFFCURVE",
"351 56 OFFCURVE",
"351 123 CURVE SMOOTH",
"351 152 OFFCURVE",
"339 163 OFFCURVE",
"316 163 CURVE SMOOTH",
"289 163 OFFCURVE",
"267 143 OFFCURVE",
"247 104 CURVE SMOOTH",
"220 54 OFFCURVE",
"187 27 OFFCURVE",
"150 27 CURVE SMOOTH",
"115 27 OFFCURVE",
"100 56 OFFCURVE",
"100 120 CURVE SMOOTH",
"100 168 OFFCURVE",
"108 221 OFFCURVE",
"122 275 CURVE",
"320 275 LINE",
"339 313 LINE",
"133 313 LINE",
"140 335 OFFCURVE",
"148 358 OFFCURVE",
"157 379 CURVE",
"370 379 LINE",
"389 417 LINE",
"173 417 LINE",
"228 538 OFFCURVE",
"304 635 OFFCURVE",
"366 635 CURVE SMOOTH",
"398 635 OFFCURVE",
"409 620 OFFCURVE",
"409 570 CURVE SMOOTH",
"409 533 OFFCURVE",
"433 513 OFFCURVE",
"461 513 CURVE SMOOTH",
"490 513 OFFCURVE",
"510 534 OFFCURVE",
"510 561 CURVE SMOOTH",
"510 622 OFFCURVE",
"452 671 OFFCURVE",
"377 671 CURVE SMOOTH",
"258 671 OFFCURVE",
"140 562 OFFCURVE",
"71 417 CURVE",
"20 417 LINE",
"1 379 LINE"
);
}
);
width = 516;
}
);
},
{
glyphname = F;
lastChange = "2018-10-23 22:45:40 +0000";
layers = (
{
layerId = master01;
paths = (
{
closed = 1;
nodes = (
"-50 20 LINE",
"29 36 LINE",
"273 626 LINE",
"206 642 LINE",
"215 662 LINE",
"635 662 LINE",
"635 473 LINE",
"611 473 LINE",
"603 534 OFFCURVE",
"588 585 OFFCURVE",
"568 628 CURVE",
"367 628 LINE",
"256 356 LINE",
"401 356 LINE",
"429 389 OFFCURVE",
"453 421 OFFCURVE",
"473 454 CURVE",
"498 454 LINE",
"401 218 LINE",
"376 218 LINE",
"385 253 OFFCURVE",
"389 287 OFFCURVE",
"390 322 CURVE",
"241 322 LINE",
"123 34 LINE",
"224 20 LINE",
"215 0 LINE",
"-58 0 LINE"
);
}
);
width = 554;
},
{
layerId = "5CF0B95A-6341-4D13-90DE-0CF1719C21EC";
paths = (
{
closed = 1;
nodes = (
"-50 20 LINE",
"29 36 LINE",
"273 626 LINE",
"206 642 LINE",
"215 662 LINE",
"635 662 LINE",
"635 473 LINE",
"611 473 LINE",
"603 534 OFFCURVE",
"588 585 OFFCURVE",
"568 628 CURVE",
"367 628 LINE",
"256 356 LINE",
"401 356 LINE",
"429 389 OFFCURVE",
"453 421 OFFCURVE",
"473 454 CURVE",
"498 454 LINE",
"401 218 LINE",
"376 218 LINE",
"385 253 OFFCURVE",
"389 287 OFFCURVE",
"390 322 CURVE",
"241 322 LINE",
"123 34 LINE",
"224 20 LINE",
"215 0 LINE",
"-58 0 LINE"
);
}
);
width = 554;
}
);
leftKerningGroup = I;
unicode = 0046;
},
{
glyphname = G;
lastChange = "2018-10-23 22:45:40 +0000";
layers = (
{
anchors = (
{
name = bottom;
position = "{267, 0}";
},
{
name = topcap;
position = "{568, 714}";
}
);
layerId = master01;
paths = (
{
closed = 1;
nodes = (
"443 312 LINE",
"452 332 LINE",
"696 332 LINE",
"687 312 LINE",
"605 296 LINE",
"503 51 LINE",
"433 12 OFFCURVE",
"352 -9 OFFCURVE",
"280 -9 CURVE SMOOTH",
"141 -9 OFFCURVE",
"61 69 OFFCURVE",
"61 204 CURVE SMOOTH",
"61 438 OFFCURVE",
"295 671 OFFCURVE",
"530 671 CURVE SMOOTH",
"590 671 OFFCURVE",
"633 656 OFFCURVE",
"671 624 CURVE",
"715 662 LINE",
"735 662 LINE",
"651 456 LINE",
"625 456 LINE",
"633 487 OFFCURVE",
"637 512 OFFCURVE",
"637 534 CURVE SMOOTH",
"637 601 OFFCURVE",
"601 633 OFFCURVE",
"526 633 CURVE SMOOTH",
"336 633 OFFCURVE",
"158 424 OFFCURVE",
"158 200 CURVE SMOOTH",
"158 86 OFFCURVE",
"205 29 OFFCURVE",
"299 29 CURVE SMOOTH",
"372 29 OFFCURVE",
"417 62 OFFCURVE",
"448 137 CURVE SMOOTH",
"514 296 LINE"
);
}
);
width = 686;
},
{
anchors = (
{
name = bottom;
position = "{267, 0}";
},
{
name = topcap;
position = "{568, 714}";
}
);
layerId = "5CF0B95A-6341-4D13-90DE-0CF1719C21EC";
paths = (
{
closed = 1;
nodes = (
"443 312 LINE",
"452 332 LINE",
"696 332 LINE",
"687 312 LINE",
"605 296 LINE",
"503 51 LINE",
"433 12 OFFCURVE",
"352 -9 OFFCURVE",
"280 -9 CURVE SMOOTH",
"141 -9 OFFCURVE",
"61 69 OFFCURVE",
"61 204 CURVE SMOOTH",
"61 438 OFFCURVE",
"295 671 OFFCURVE",
"530 671 CURVE SMOOTH",
"590 671 OFFCURVE",
"633 656 OFFCURVE",
"671 624 CURVE",
"715 662 LINE",
"735 662 LINE",
"651 456 LINE",
"625 456 LINE",
"633 487 OFFCURVE",
"637 512 OFFCURVE",
"637 534 CURVE SMOOTH",
"637 601 OFFCURVE",
"601 633 OFFCURVE",
"526 633 CURVE SMOOTH",
"336 633 OFFCURVE",
"158 424 OFFCURVE",
"158 200 CURVE SMOOTH",
"158 86 OFFCURVE",
"205 29 OFFCURVE",
"299 29 CURVE SMOOTH",
"372 29 OFFCURVE",
"417 62 OFFCURVE",
"448 137 CURVE SMOOTH",
"514 296 LINE"
);
}
);
width = 686;
}
);
leftKerningGroup = G;
rightKerningGroup = G;
unicode = 0047;
},
{
glyphname = H;
lastChange = "2018-10-23 22:45:40 +0000";
layers = (
{
anchors = (
{
name = bottom;
position = "{260, 0}";
},
{
name = topcap;
position = "{555, 714}";
}
);
layerId = master01;
paths = (
{
closed = 1;
nodes = (
"347 20 LINE",
"339 0 LINE",
"588 0 LINE",
"596 18 LINE",
"526 36 LINE",
"771 626 LINE",
"854 641 LINE",
"863 662 LINE",
"613 662 LINE",
"605 642 LINE",
"676 626 LINE",
"568 366 LINE",
"261 366 LINE",
"370 626 LINE",
"452 642 LINE",
"461 662 LINE",
"212 662 LINE",
"203 642 LINE",
"274 626 LINE",
"30 36 LINE",
"-53 20 LINE",
"-62 0 LINE",
"187 0 LINE",
"195 20 LINE",
"125 36 LINE",
"247 331 LINE",
"553 331 LINE",
"431 36 LINE"
);
}
);
width = 739;
},
{
anchors = (
{
name = bottom;
position = "{260, 0}";
},
{
name = topcap;
position = "{555, 714}";
}
);
layerId = "5CF0B95A-6341-4D13-90DE-0CF1719C21EC";
paths = (
{
closed = 1;
nodes = (
"347 20 LINE",
"339 0 LINE",
"588 0 LINE",
"596 18 LINE",
"526 36 LINE",
"771 626 LINE",
"854 641 LINE",
"863 662 LINE",
"613 662 LINE",
"605 642 LINE",
"676 626 LINE",
"568 366 LINE",
"261 366 LINE",
"370 626 LINE",
"452 642 LINE",
"461 662 LINE",
"212 662 LINE",
"203 642 LINE",
"274 626 LINE",
"30 36 LINE",
"-53 20 LINE",
"-62 0 LINE",
"187 0 LINE",
"195 20 LINE",
"125 36 LINE",
"247 331 LINE",
"553 331 LINE",
"431 36 LINE"
);
}
);
width = 739;
}
);
leftKerningGroup = I;
rightKerningGroup = I;
unicode = 0048;
},
{
glyphname = Hbar;
lastChange = "2018-10-23 22:45:40 +0000";
layers = (
{
components = (
{
name = H;
transform = "{1, 0, 0, 1, 1, 0}";
}
);
layerId = master01;
paths = (
{
closed = 1;
nodes = (
"810 511 LINE",
"159 511 LINE",
"144 473 LINE",
"794 473 LINE"
);
}
);
width = 740;
},
{
components = (
{
name = H;
transform = "{1, 0, 0, 1, 1, 0}";
}
);
layerId = "5CF0B95A-6341-4D13-90DE-0CF1719C21EC";
paths = (
{
closed = 1;
nodes = (
"810 511 LINE",
"159 511 LINE",
"144 473 LINE",
"794 473 LINE"
);
}
);
width = 740;
}
);
leftKerningGroup = I;
rightKerningGroup = I;
unicode = 0126;
},
{
glyphname = I;
lastChange = "2018-10-23 22:45:40 +0000";
layers = (
{
anchors = (
{
name = bottom;
position = "{65, 0}";
},
{
name = topcap;
position = "{361, 714}";
}
);
layerId = master01;
paths = (
{
closed = 1;
nodes = (
"203 642 LINE",
"212 662 LINE",
"461 662 LINE",
"452 642 LINE",
"370 626 LINE",
"125 36 LINE",
"195 20 LINE",
"187 0 LINE",
"-62 0 LINE",
"-53 20 LINE",
"30 36 LINE",
"274 626 LINE"
);
}
);
width = 337;
},
{
anchors = (
{
name = bottom;
position = "{65, 0}";
},
{
name = topcap;
position = "{361, 714}";
}
);
layerId = "5CF0B95A-6341-4D13-90DE-0CF1719C21EC";
paths = (
{
closed = 1;
nodes = (
"203 642 LINE",
"212 662 LINE",
"461 662 LINE",
"452 642 LINE",
"370 626 LINE",
"125 36 LINE",
"195 20 LINE",
"187 0 LINE",
"-62 0 LINE",
"-53 20 LINE",
"30 36 LINE",
"274 626 LINE"
);
}
);
width = 337;
}
);
leftKerningGroup = I;
rightKerningGroup = I;
unicode = 0049;
},
{
glyphname = J;
lastChange = "2018-10-23 22:45:40 +0000";
layers = (
{
anchors = (
{
name = topcap;
position = "{361, 714}";
}
);
layerId = master01;
paths = (
{
closed = 1;
nodes = (
"452 642 LINE",
"460 662 LINE",
"211 662 LINE",
"202 642 LINE",
"273 626 LINE",
"3 -23 LINE SMOOTH",
"-50 -148 OFFCURVE",
"-73 -186 OFFCURVE",
"-110 -186 CURVE SMOOTH",
"-162 -186 OFFCURVE",
"-138 -109 OFFCURVE",
"-194 -109 CURVE SMOOTH",
"-216 -109 OFFCURVE",
"-237 -125 OFFCURVE",
"-237 -152 CURVE SMOOTH",
"-237 -189 OFFCURVE",
"-198 -220 OFFCURVE",
"-135 -220 CURVE SMOOTH",
"-41 -220 OFFCURVE",
"48 -145 OFFCURVE",
"99 -23 CURVE SMOOTH",
"369 626 LINE"
);
}
);
width = 327;
},
{
anchors = (
{
name = topcap;
position = "{361, 714}";
}
);
layerId = "5CF0B95A-6341-4D13-90DE-0CF1719C21EC";
paths = (
{
closed = 1;
nodes = (
"452 642 LINE",
"460 662 LINE",
"211 662 LINE",
"202 642 LINE",
"273 626 LINE",
"3 -23 LINE SMOOTH",
"-50 -148 OFFCURVE",
"-73 -186 OFFCURVE",
"-110 -186 CURVE SMOOTH",
"-162 -186 OFFCURVE",
"-138 -109 OFFCURVE",
"-194 -109 CURVE SMOOTH",
"-216 -109 OFFCURVE",
"-237 -125 OFFCURVE",
"-237 -152 CURVE SMOOTH",
"-237 -189 OFFCURVE",
"-198 -220 OFFCURVE",
"-135 -220 CURVE SMOOTH",
"-41 -220 OFFCURVE",
"48 -145 OFFCURVE",
"99 -23 CURVE SMOOTH",
"369 626 LINE"
);
}
);
width = 327;
}
);
leftKerningGroup = J;
rightKerningGroup = J;
unicode = 004A;
},
{
glyphname = K;
lastChange = "2018-10-23 22:45:40 +0000";
layers = (
{
anchors = (
{
name = bottom;
position = "{242, 0}";
}
);
layerId = master01;
paths = (
{
closed = 1;
nodes = (
"254 350 LINE",
"525 563 LINE SMOOTH",
"550 584 OFFCURVE",
"563 599 OFFCURVE",
"563 611 CURVE SMOOTH",
"563 628 OFFCURVE",
"545 641 OFFCURVE",
"504 642 CURVE",
"512 662 LINE",
"734 662 LINE",
"722 638 LINE",
"672 635 OFFCURVE",
"646 623 OFFCURVE",
"608 593 CURVE SMOOTH",
"359 394 LINE",
"494 36 LINE",
"569 20 LINE",
"563 0 LINE",
"408 0 LINE",
"288 337 LINE",
"229 291 LINE",
"123 36 LINE",
"225 20 LINE",
"217 0 LINE",
"-55 0 LINE",
"-47 20 LINE",
"28 36 LINE",
"274 626 LINE",
"207 642 LINE",
"215 662 LINE",
"447 662 LINE",
"439 642 LINE",
"369 627 LINE"
);
}
);
width = 639;
},
{
anchors = (
{
name = bottom;
position = "{242, 0}";
}
);
layerId = "5CF0B95A-6341-4D13-90DE-0CF1719C21EC";
paths = (
{
closed = 1;
nodes = (
"254 350 LINE",
"525 563 LINE SMOOTH",
"550 584 OFFCURVE",
"563 599 OFFCURVE",
"563 611 CURVE SMOOTH",
"563 628 OFFCURVE",
"545 641 OFFCURVE",
"504 642 CURVE",
"512 662 LINE",
"734 662 LINE",
"722 638 LINE",
"672 635 OFFCURVE",
"646 623 OFFCURVE",
"608 593 CURVE SMOOTH",
"359 394 LINE",
"494 36 LINE",
"569 20 LINE",
"563 0 LINE",
"408 0 LINE",
"288 337 LINE",
"229 291 LINE",
"123 36 LINE",
"225 20 LINE",
"217 0 LINE",
"-55 0 LINE",
"-47 20 LINE",
"28 36 LINE",
"274 626 LINE",
"207 642 LINE",
"215 662 LINE",
"447 662 LINE",
"439 642 LINE",
"369 627 LINE"
);
}
);
width = 639;
}
);
leftKerningGroup = I;
rightKerningGroup = K;
unicode = 004B;
},
{
glyphname = L;
lastChange = "2018-10-23 22:45:40 +0000";
layers = (
{
anchors = (
{
name = bottom;
position = "{228, 0}";
}
);
layerId = master01;
paths = (
{
closed = 1;
nodes = (
"-50 20 LINE",
"29 36 LINE",
"273 626 LINE",
"206 642 LINE",
"215 662 LINE",
"461 662 LINE",
"452 642 LINE",
"366 624 LINE",
"123 34 LINE",
"396 34 LINE",
"443 89 OFFCURVE",
"486 154 OFFCURVE",
"519 208 CURVE",
"548 208 LINE",
"465 0 LINE",
"-58 0 LINE"
);
}
);
width = 598;
},
{
anchors = (
{
name = bottom;
position = "{228, 0}";
}
);
layerId = "5CF0B95A-6341-4D13-90DE-0CF1719C21EC";
paths = (
{
closed = 1;
nodes = (
"-50 20 LINE",
"29 36 LINE",
"273 626 LINE",
"206 642 LINE",
"215 662 LINE",
"461 662 LINE",
"452 642 LINE",
"366 624 LINE",
"123 34 LINE",
"396 34 LINE",
"443 89 OFFCURVE",
"486 154 OFFCURVE",
"519 208 CURVE",
"548 208 LINE",
"465 0 LINE",
"-58 0 LINE"
);
}
);
width = 598;
}
);
leftKerningGroup = I;
rightKerningGroup = L;
unicode = 004C;
},
{
glyphname = Lslash;
lastChange = "2018-10-23 22:45:40 +0000";
layers = (
{
components = (
{
name = L;
transform = "{1, 0, 0, 1, 2, 0}";
}
);
layerId = master01;
paths = (
{
closed = 1;
nodes = (
"37 277 LINE",
"378 439 LINE",
"376 396 LINE",
"37 236 LINE"
);
}
);
width = 599;
},
{
components = (
{
name = L;
transform = "{1, 0, 0, 1, 2, 0}";
}
);
layerId = "5CF0B95A-6341-4D13-90DE-0CF1719C21EC";
paths = (
{
closed = 1;
nodes = (
"37 277 LINE",
"378 439 LINE",
"376 396 LINE",
"37 236 LINE"
);
}
);
width = 599;
}
);
leftKerningGroup = I;
rightKerningGroup = L;
unicode = 0141;
},
{
glyphname = M;
lastChange = "2018-10-23 22:45:40 +0000";
layers = (
{
layerId = master01;
paths = (
{
closed = 1;
nodes = (
"6 36 LINE",
"308 626 LINE",
"230 642 LINE",
"238 662 LINE",
"439 662 LINE",
"378 145 LINE",
"381 145 LINE",
"777 662 LINE",
"979 662 LINE",
"971 642 LINE",
"888 626 LINE",
"642 36 LINE",
"713 20 LINE",
"704 0 LINE",
"460 0 LINE",
"469 20 LINE",
"552 36 LINE",
"792 611 LINE",
"789 611 LINE",
"309 -9 LINE",
"263 -9 LINE",
"338 593 LINE",
"335 593 LINE",
"47 36 LINE",
"118 20 LINE",
"109 0 LINE",
"-86 0 LINE",
"-77 20 LINE"
);
}
);
width = 855;
},
{
layerId = "5CF0B95A-6341-4D13-90DE-0CF1719C21EC";
paths = (
{
closed = 1;
nodes = (
"6 36 LINE",
"308 626 LINE",
"230 642 LINE",
"238 662 LINE",
"439 662 LINE",
"378 145 LINE",
"381 145 LINE",
"777 662 LINE",
"979 662 LINE",
"971 642 LINE",
"888 626 LINE",
"642 36 LINE",
"713 20 LINE",
"704 0 LINE",
"460 0 LINE",
"469 20 LINE",
"552 36 LINE",
"792 611 LINE",
"789 611 LINE",
"309 -9 LINE",
"263 -9 LINE",
"338 593 LINE",
"335 593 LINE",
"47 36 LINE",
"118 20 LINE",
"109 0 LINE",
"-86 0 LINE",
"-77 20 LINE"
);
}
);
width = 855;
}
);
rightKerningGroup = I;
unicode = 004D;
userData = {
com.typemytype.robofont.guides = (
{
angle = 0;
isGlobal = 0;
magnetic = 5;
x = 0;
y = 23;
},
{
angle = 0;
isGlobal = 0;
magnetic = 5;
x = 0;
y = 728;
}
);
};
},
{
glyphname = N;
lastChange = "2018-10-23 22:45:40 +0000";
layers = (
{
anchors = (
{
name = bottom;
position = "{250, -9}";
},
{
name = topcap;
position = "{557, 714}";
}
);
layerId = master01;
paths = (
{
closed = 1;
nodes = (
"478 -9 LINE",
"742 626 LINE",
"825 642 LINE",
"833 662 LINE",
"637 662 LINE",
"629 642 LINE",
"700 626 LINE",
"501 147 LINE",
"498 147 LINE",
"391 662 LINE",
"209 662 LINE",
"200 642 LINE",
"272 626 LINE",
"28 36 LINE",
"-56 20 LINE",
"-65 0 LINE",
"131 0 LINE",
"139 20 LINE",
"69 36 LINE",
"300 593 LINE",
"304 593 LINE",
"428 -9 LINE"
);
}
);
width = 701;
},
{
anchors = (
{
name = bottom;
position = "{250, -9}";
},
{
name = topcap;
position = "{557, 714}";
}
);
layerId = "5CF0B95A-6341-4D13-90DE-0CF1719C21EC";
paths = (
{
closed = 1;
nodes = (
"478 -9 LINE",
"742 626 LINE",
"825 642 LINE",
"833 662 LINE",
"637 662 LINE",
"629 642 LINE",
"700 626 LINE",
"501 147 LINE",
"498 147 LINE",
"391 662 LINE",
"209 662 LINE",
"200 642 LINE",
"272 626 LINE",
"28 36 LINE",
"-56 20 LINE",
"-65 0 LINE",
"131 0 LINE",
"139 20 LINE",
"69 36 LINE",
"300 593 LINE",
"304 593 LINE",
"428 -9 LINE"
);
}
);
width = 701;
}
);
leftKerningGroup = N;
rightKerningGroup = N;
unicode = 004E;
},
{
glyphname = O;
lastChange = "2018-10-23 22:45:40 +0000";
layers = (
{
anchors = (
{
name = bottom;
position = "{246, 0}";
},
{
name = topcap;
position = "{541, 714}";
}
);
layerId = master01;
paths = (
{
closed = 1;
nodes = (
"137 -9 OFFCURVE",
"65 69 OFFCURVE",
"65 203 CURVE SMOOTH",
"65 437 OFFCURVE",
"278 671 OFFCURVE",
"491 671 CURVE SMOOTH",
"617 671 OFFCURVE",
"689 593 OFFCURVE",
"689 457 CURVE SMOOTH",
"689 223 OFFCURVE",
"476 -9 OFFCURVE",
"261 -9 CURVE SMOOTH"
);
},
{
closed = 1;
nodes = (
"432 32 OFFCURVE",
"593 262 OFFCURVE",
"593 486 CURVE SMOOTH",
"593 585 OFFCURVE",
"558 633 OFFCURVE",
"486 633 CURVE SMOOTH",
"329 633 OFFCURVE",
"164 402 OFFCURVE",
"164 181 CURVE SMOOTH",
"164 80 OFFCURVE",
"200 32 OFFCURVE",
"274 32 CURVE SMOOTH"
);
}
);
width = 691;
},
{
anchors = (
{
name = bottom;
position = "{246, 0}";
},
{
name = topcap;
position = "{541, 714}";
}
);
layerId = "5CF0B95A-6341-4D13-90DE-0CF1719C21EC";
paths = (
{
closed = 1;
nodes = (
"137 -9 OFFCURVE",
"65 69 OFFCURVE",
"65 203 CURVE SMOOTH",
"65 437 OFFCURVE",
"278 671 OFFCURVE",
"491 671 CURVE SMOOTH",
"617 671 OFFCURVE",
"689 593 OFFCURVE",
"689 457 CURVE SMOOTH",
"689 223 OFFCURVE",
"476 -9 OFFCURVE",
"261 -9 CURVE SMOOTH"
);
},
{
closed = 1;
nodes = (
"432 32 OFFCURVE",
"593 262 OFFCURVE",
"593 486 CURVE SMOOTH",
"593 585 OFFCURVE",
"558 633 OFFCURVE",
"486 633 CURVE SMOOTH",
"329 633 OFFCURVE",
"164 402 OFFCURVE",
"164 181 CURVE SMOOTH",
"164 80 OFFCURVE",
"200 32 OFFCURVE",
"274 32 CURVE SMOOTH"
);
}
);
width = 691;
}
);
leftKerningGroup = O;
rightKerningGroup = O;
unicode = 004F;
},
{
glyphname = OE;
lastChange = "2018-10-23 22:45:40 +0000";
layers = (
{
layerId = master01;
paths = (
{
closed = 1;
nodes = (
"986 473 LINE",
"963 473 LINE",
"951 539 OFFCURVE",
"936 587 OFFCURVE",
"913 628 CURVE",
"719 628 LINE",
"612 366 LINE",
"757 366 LINE",
"785 399 OFFCURVE",
"809 432 OFFCURVE",
"829 464 CURVE",
"854 464 LINE",
"757 229 LINE",
"732 229 LINE",
"740 257 OFFCURVE",
"745 289 OFFCURVE",
"746 332 CURVE",
"597 332 LINE",
"475 34 LINE",
"753 34 LINE",
"796 85 OFFCURVE",
"835 139 OFFCURVE",
"870 198 CURVE",
"895 198 LINE",
"817 0 LINE",
"359 0 LINE",
"330 -6 OFFCURVE",
"303 -9 OFFCURVE",
"276 -9 CURVE SMOOTH",
"141 -9 OFFCURVE",
"63 70 OFFCURVE",
"63 205 CURVE SMOOTH",
"63 444 OFFCURVE",
"290 671 OFFCURVE",
"529 671 CURVE SMOOTH",
"558 671 OFFCURVE",
"582 667 OFFCURVE",
"605 662 CURVE",
"980 662 LINE"
);
},
{
closed = 1;
nodes = (
"336 633 OFFCURVE",
"163 402 OFFCURVE",
"163 182 CURVE SMOOTH",
"163 81 OFFCURVE",
"203 32 OFFCURVE",
"287 32 CURVE SMOOTH",
"320 32 OFFCURVE",
"348 40 OFFCURVE",
"373 56 CURVE",
"605 583 LINE",
"584 617 OFFCURVE",
"550 633 OFFCURVE",
"501 633 CURVE SMOOTH"
);
}
);
width = 965;
},
{
layerId = "5CF0B95A-6341-4D13-90DE-0CF1719C21EC";
paths = (
{
closed = 1;
nodes = (
"986 473 LINE",
"963 473 LINE",
"951 539 OFFCURVE",
"936 587 OFFCURVE",
"913 628 CURVE",
"719 628 LINE",
"612 366 LINE",
"757 366 LINE",
"785 399 OFFCURVE",
"809 432 OFFCURVE",
"829 464 CURVE",
"854 464 LINE",
"757 229 LINE",
"732 229 LINE",
"740 257 OFFCURVE",
"745 289 OFFCURVE",
"746 332 CURVE",
"597 332 LINE",
"475 34 LINE",
"753 34 LINE",
"796 85 OFFCURVE",
"835 139 OFFCURVE",
"870 198 CURVE",
"895 198 LINE",
"817 0 LINE",
"359 0 LINE",
"330 -6 OFFCURVE",
"303 -9 OFFCURVE",
"276 -9 CURVE SMOOTH",
"141 -9 OFFCURVE",
"63 70 OFFCURVE",
"63 205 CURVE SMOOTH",
"63 444 OFFCURVE",
"290 671 OFFCURVE",
"529 671 CURVE SMOOTH",
"558 671 OFFCURVE",
"582 667 OFFCURVE",
"605 662 CURVE",
"980 662 LINE"
);
},
{
closed = 1;
nodes = (
"336 633 OFFCURVE",
"163 402 OFFCURVE",
"163 182 CURVE SMOOTH",
"163 81 OFFCURVE",
"203 32 OFFCURVE",
"287 32 CURVE SMOOTH",
"320 32 OFFCURVE",
"348 40 OFFCURVE",
"373 56 CURVE",
"605 583 LINE",
"584 617 OFFCURVE",
"550 633 OFFCURVE",
"501 633 CURVE SMOOTH"
);
}
);
width = 965;
}
);
leftKerningGroup = O;
rightKerningGroup = E;
unicode = 0152;
},
{
glyphname = Oslash;
lastChange = "2018-10-23 22:45:40 +0000";
layers = (
{
components = (
{
name = O;
}
);
layerId = master01;
paths = (
{
closed = 1;
nodes = (
"678 765 LINE",
"725 765 LINE",
"90 -128 LINE",
"45 -128 LINE"
);
}
);
width = 691;
},
{
components = (
{
name = O;
}
);
layerId = "5CF0B95A-6341-4D13-90DE-0CF1719C21EC";
paths = (
{
closed = 1;
nodes = (
"678 765 LINE",
"725 765 LINE",
"90 -128 LINE",
"45 -128 LINE"
);
}
);
width = 691;
}
);
leftKerningGroup = O;
rightKerningGroup = O;
unicode = 00D8;
},
{
glyphname = Oslashacute;
lastChange = "2018-10-23 22:45:40 +0000";
layers = (
{
components = (
{
name = O;
}
);
layerId = master01;
paths = (
{
closed = 1;
nodes = (
"678 765 LINE",
"725 765 LINE",
"90 -128 LINE",
"45 -128 LINE"
);
},
{
closed = 1;
nodes = (
"567 812 LINE SMOOTH",
"580 821 OFFCURVE",
"591 826 OFFCURVE",
"605 826 CURVE SMOOTH",
"624 826 OFFCURVE",
"642 810 OFFCURVE",
"642 789 CURVE SMOOTH",
"642 769 OFFCURVE",
"628 753 OFFCURVE",
"583 740 CURVE SMOOTH",
"452 702 LINE",
"443 720 LINE"
);
}
);
width = 691;
},
{
components = (
{
name = O;
}
);
layerId = "5CF0B95A-6341-4D13-90DE-0CF1719C21EC";
paths = (
{
closed = 1;
nodes = (
"678 765 LINE",
"725 765 LINE",
"90 -128 LINE",
"45 -128 LINE"
);
},
{
closed = 1;
nodes = (
"567 812 LINE SMOOTH",
"580 821 OFFCURVE",
"591 826 OFFCURVE",
"605 826 CURVE SMOOTH",
"624 826 OFFCURVE",
"642 810 OFFCURVE",
"642 789 CURVE SMOOTH",
"642 769 OFFCURVE",
"628 753 OFFCURVE",
"583 740 CURVE SMOOTH",
"452 702 LINE",
"443 720 LINE"
);
}
);
width = 691;
}
);
leftKerningGroup = O;
rightKerningGroup = O;
unicode = 01FE;
},
{
glyphname = P;
lastChange = "2018-10-23 22:45:40 +0000";
layers = (
{
layerId = master01;
paths = (
{
closed = 1;
nodes = (
"123 36 LINE",
"225 20 LINE",
"217 0 LINE",
"-55 0 LINE",
"-47 20 LINE",
"28 36 LINE",
"274 626 LINE",
"207 642 LINE",
"215 662 LINE",
"421 662 LINE SMOOTH",
"546 662 OFFCURVE",
"619 606 OFFCURVE",
"619 511 CURVE SMOOTH",
"619 380 OFFCURVE",
"496 293 OFFCURVE",
"312 293 CURVE SMOOTH",
"228 293 LINE"
);
},
{
closed = 1;
nodes = (
"438 331 OFFCURVE",
"530 417 OFFCURVE",
"530 523 CURVE SMOOTH",
"530 590 OFFCURVE",
"492 627 OFFCURVE",
"421 627 CURVE SMOOTH",
"369 627 LINE",
"244 331 LINE",
"324 331 LINE SMOOTH"
);
}
);
width = 562;
},
{
layerId = "5CF0B95A-6341-4D13-90DE-0CF1719C21EC";
paths = (
{
closed = 1;
nodes = (
"123 36 LINE",
"225 20 LINE",
"217 0 LINE",
"-55 0 LINE",
"-47 20 LINE",
"28 36 LINE",
"274 626 LINE",
"207 642 LINE",
"215 662 LINE",
"421 662 LINE SMOOTH",
"546 662 OFFCURVE",
"619 606 OFFCURVE",
"619 511 CURVE SMOOTH",
"619 380 OFFCURVE",
"496 293 OFFCURVE",
"312 293 CURVE SMOOTH",
"228 293 LINE"
);
},
{
closed = 1;
nodes = (
"438 331 OFFCURVE",
"530 417 OFFCURVE",
"530 523 CURVE SMOOTH",
"530 590 OFFCURVE",
"492 627 OFFCURVE",
"421 627 CURVE SMOOTH",
"369 627 LINE",
"244 331 LINE",
"324 331 LINE SMOOTH"
);
}
);
width = 562;
}
);
leftKerningGroup = I;
unicode = 0050;
},
{
glyphname = Q;
lastChange = "2018-10-23 22:45:40 +0000";
layers = (
{
layerId = master01;
paths = (
{
closed = 1;
nodes = (
"127 5 OFFCURVE",
"65 78 OFFCURVE",
"65 204 CURVE SMOOTH",
"65 437 OFFCURVE",
"279 671 OFFCURVE",
"494 671 CURVE SMOOTH",
"617 671 OFFCURVE",
"690 593 OFFCURVE",
"690 456 CURVE SMOOTH",
"690 257 OFFCURVE",
"537 76 OFFCURVE",
"366 7 CURVE SMOOTH",
"163 -75 LINE",
"195 -99 OFFCURVE",
"229 -109 OFFCURVE",
"280 -109 CURVE SMOOTH",
"355 -109 OFFCURVE",
"414 -86 OFFCURVE",
"437 -54 CURVE",
"466 -54 LINE",
"456 -94 OFFCURVE",
"393 -195 OFFCURVE",
"280 -195 CURVE SMOOTH",
"174 -195 OFFCURVE",
"164 -108 OFFCURVE",
"93 -108 CURVE SMOOTH",
"77 -108 OFFCURVE",
"74 -113 OFFCURVE",
"74 -120 CURVE SMOOTH",
"74 -127 OFFCURVE",
"77 -135 OFFCURVE",
"77 -143 CURVE SMOOTH",
"77 -159 OFFCURVE",
"63 -173 OFFCURVE",
"43 -173 CURVE SMOOTH",
"20 -173 OFFCURVE",
"10 -155 OFFCURVE",
"10 -137 CURVE SMOOTH",
"10 -111 OFFCURVE",
"29 -93 OFFCURVE",
"68 -77 CURVE SMOOTH",
"232 -10 LINE",
"232 -7 LINE"
);
},
{
closed = 1;
nodes = (
"433 32 OFFCURVE",
"594 262 OFFCURVE",
"594 483 CURVE SMOOTH",
"594 585 OFFCURVE",
"560 633 OFFCURVE",
"488 633 CURVE SMOOTH",
"329 633 OFFCURVE",
"165 402 OFFCURVE",
"165 182 CURVE SMOOTH",
"165 81 OFFCURVE",
"200 32 OFFCURVE",
"273 32 CURVE SMOOTH"
);
}
);
width = 691;
},
{
layerId = "5CF0B95A-6341-4D13-90DE-0CF1719C21EC";
paths = (
{
closed = 1;
nodes = (
"127 5 OFFCURVE",
"65 78 OFFCURVE",
"65 204 CURVE SMOOTH",
"65 437 OFFCURVE",
"279 671 OFFCURVE",
"494 671 CURVE SMOOTH",
"617 671 OFFCURVE",
"690 593 OFFCURVE",
"690 456 CURVE SMOOTH",
"690 257 OFFCURVE",
"537 76 OFFCURVE",
"366 7 CURVE SMOOTH",
"163 -75 LINE",
"195 -99 OFFCURVE",
"229 -109 OFFCURVE",
"280 -109 CURVE SMOOTH",
"355 -109 OFFCURVE",
"414 -86 OFFCURVE",
"437 -54 CURVE",
"466 -54 LINE",
"456 -94 OFFCURVE",
"393 -195 OFFCURVE",
"280 -195 CURVE SMOOTH",
"174 -195 OFFCURVE",
"164 -108 OFFCURVE",
"93 -108 CURVE SMOOTH",
"77 -108 OFFCURVE",
"74 -113 OFFCURVE",
"74 -120 CURVE SMOOTH",
"74 -127 OFFCURVE",
"77 -135 OFFCURVE",
"77 -143 CURVE SMOOTH",
"77 -159 OFFCURVE",
"63 -173 OFFCURVE",
"43 -173 CURVE SMOOTH",
"20 -173 OFFCURVE",
"10 -155 OFFCURVE",
"10 -137 CURVE SMOOTH",
"10 -111 OFFCURVE",
"29 -93 OFFCURVE",
"68 -77 CURVE SMOOTH",
"232 -10 LINE",
"232 -7 LINE"
);
},
{
closed = 1;
nodes = (
"433 32 OFFCURVE",
"594 262 OFFCURVE",
"594 483 CURVE SMOOTH",
"594 585 OFFCURVE",
"560 633 OFFCURVE",
"488 633 CURVE SMOOTH",
"329 633 OFFCURVE",
"165 402 OFFCURVE",
"165 182 CURVE SMOOTH",
"165 81 OFFCURVE",
"200 32 OFFCURVE",
"273 32 CURVE SMOOTH"
);
}
);
width = 691;
}
);
rightKerningGroup = O;
unicode = 0051;
},
{
glyphname = R;
lastChange = "2018-10-23 22:45:40 +0000";
layers = (
{
anchors = (
{
name = bottom;
position = "{233, -9}";
},
{
name = topcap;
position = "{441, 714}";
}
);
layerId = master01;
paths = (
{
closed = 1;
nodes = (
"123 36 LINE",
"225 20 LINE",
"217 0 LINE",
"-55 0 LINE",
"-47 20 LINE",
"28 36 LINE",
"274 626 LINE",
"207 642 LINE",
"215 662 LINE",
"421 662 LINE SMOOTH",
"555 662 OFFCURVE",
"617 612 OFFCURVE",
"617 522 CURVE SMOOTH",
"617 409 OFFCURVE",
"527 329 OFFCURVE",
"387 309 CURVE",
"485 36 LINE",
"578 20 LINE",
"572 0 LINE",
"399 0 LINE",
"298 304 LINE",
"232 304 LINE"
);
},
{
closed = 1;
nodes = (
"438 342 OFFCURVE",
"530 425 OFFCURVE",
"530 523 CURVE SMOOTH",
"530 590 OFFCURVE",
"492 627 OFFCURVE",
"421 627 CURVE SMOOTH",
"369 627 LINE",
"249 342 LINE",
"329 342 LINE SMOOTH"
);
}
);
width = 636;
},
{
anchors = (
{
name = bottom;
position = "{233, -9}";
},
{
name = topcap;
position = "{441, 714}";
}
);
layerId = "5CF0B95A-6341-4D13-90DE-0CF1719C21EC";
paths = (
{
closed = 1;
nodes = (
"123 36 LINE",
"225 20 LINE",
"217 0 LINE",
"-55 0 LINE",
"-47 20 LINE",
"28 36 LINE",
"274 626 LINE",
"207 642 LINE",
"215 662 LINE",
"421 662 LINE SMOOTH",
"555 662 OFFCURVE",
"617 612 OFFCURVE",
"617 522 CURVE SMOOTH",
"617 409 OFFCURVE",
"527 329 OFFCURVE",
"387 309 CURVE",
"485 36 LINE",
"578 20 LINE",
"572 0 LINE",
"399 0 LINE",
"298 304 LINE",
"232 304 LINE"
);
},
{
closed = 1;
nodes = (
"438 342 OFFCURVE",
"530 425 OFFCURVE",
"530 523 CURVE SMOOTH",
"530 590 OFFCURVE",
"492 627 OFFCURVE",
"421 627 CURVE SMOOTH",
"369 627 LINE",
"249 342 LINE",
"329 342 LINE SMOOTH"
);
}
);
width = 636;
}
);
leftKerningGroup = I;
rightKerningGroup = R;
unicode = 0052;
},
{
glyphname = S;
lastChange = "2018-10-23 22:45:40 +0000";
layers = (
{
anchors = (
{
name = bottom;
position = "{165, 0}";
},
{
name = topcap;
position = "{419, 714}";
}
);
layerId = master01;
paths = (
{
closed = 1;
nodes = (
"-5 0 LINE",
"39 62 LINE",
"63 15 OFFCURVE",
"113 -9 OFFCURVE",
"186 -9 CURVE SMOOTH",
"323 -9 OFFCURVE",
"425 76 OFFCURVE",
"425 188 CURVE SMOOTH",
"425 246 OFFCURVE",
"403 286 OFFCURVE",
"326 377 CURVE SMOOTH",
"270 440 OFFCURVE",
"260 461 OFFCURVE",
"260 508 CURVE SMOOTH",
"260 591 OFFCURVE",
"304 636 OFFCURVE",
"387 636 CURVE SMOOTH",
"455 636 OFFCURVE",
"492 605 OFFCURVE",
"492 548 CURVE SMOOTH",
"492 527 OFFCURVE",
"487 495 OFFCURVE",
"481 473 CURVE",
"507 473 LINE",
"581 662 LINE",
"553 662 LINE",
"513 617 LINE",
"480 654 OFFCURVE",
"439 671 OFFCURVE",
"384 671 CURVE SMOOTH",
"258 671 OFFCURVE",
"169 589 OFFCURVE",
"169 475 CURVE SMOOTH",
"169 320 OFFCURVE",
"332 291 OFFCURVE",
"332 152 CURVE SMOOTH",
"332 74 OFFCURVE",
"279 26 OFFCURVE",
"191 26 CURVE SMOOTH",
"112 26 OFFCURVE",
"73 65 OFFCURVE",
"73 142 CURVE SMOOTH",
"73 166 OFFCURVE",
"77 194 OFFCURVE",
"84 224 CURVE",
"59 224 LINE",
"-32 0 LINE"
);
}
);
width = 507;
},
{
anchors = (
{
name = bottom;
position = "{165, 0}";
},
{
name = topcap;
position = "{419, 714}";
}
);
layerId = "5CF0B95A-6341-4D13-90DE-0CF1719C21EC";
paths = (
{
closed = 1;
nodes = (
"-5 0 LINE",
"39 62 LINE",
"63 15 OFFCURVE",
"113 -9 OFFCURVE",
"186 -9 CURVE SMOOTH",
"323 -9 OFFCURVE",
"425 76 OFFCURVE",
"425 188 CURVE SMOOTH",
"425 246 OFFCURVE",
"403 286 OFFCURVE",
"326 377 CURVE SMOOTH",
"270 440 OFFCURVE",
"260 461 OFFCURVE",
"260 508 CURVE SMOOTH",
"260 591 OFFCURVE",
"304 636 OFFCURVE",
"387 636 CURVE SMOOTH",
"455 636 OFFCURVE",
"492 605 OFFCURVE",
"492 548 CURVE SMOOTH",
"492 527 OFFCURVE",
"487 495 OFFCURVE",
"481 473 CURVE",
"507 473 LINE",
"581 662 LINE",
"553 662 LINE",
"513 617 LINE",
"480 654 OFFCURVE",
"439 671 OFFCURVE",
"384 671 CURVE SMOOTH",
"258 671 OFFCURVE",
"169 589 OFFCURVE",
"169 475 CURVE SMOOTH",
"169 320 OFFCURVE",
"332 291 OFFCURVE",
"332 152 CURVE SMOOTH",
"332 74 OFFCURVE",
"279 26 OFFCURVE",
"191 26 CURVE SMOOTH",
"112 26 OFFCURVE",
"73 65 OFFCURVE",
"73 142 CURVE SMOOTH",
"73 166 OFFCURVE",
"77 194 OFFCURVE",
"84 224 CURVE",
"59 224 LINE",
"-32 0 LINE"
);
}
);
width = 507;
}
);
leftKerningGroup = S;
rightKerningGroup = S;
unicode = 0053;
},
{
glyphname = Schwa;
lastChange = "2018-10-23 22:45:40 +0000";
layers = (
{
layerId = master01;
paths = (
{
closed = 1;
nodes = (
"39 -9 OFFCURVE",
"-7 23 OFFCURVE",
"-7 76 CURVE SMOOTH",
"-7 181 OFFCURVE",
"185 283 OFFCURVE",
"464 326 CURVE",
"497 407 OFFCURVE",
"518 488 OFFCURVE",
"518 538 CURVE SMOOTH",
"518 598 OFFCURVE",
"487 628 OFFCURVE",
"423 628 CURVE SMOOTH",
"334 628 OFFCURVE",
"243 568 OFFCURVE",
"162 460 CURVE",
"130 479 LINE",
"230 605 OFFCURVE",
"336 670 OFFCURVE",
"442 670 CURVE SMOOTH",
"544 670 OFFCURVE",
"603 609 OFFCURVE",
"603 504 CURVE SMOOTH",
"603 276 OFFCURVE",
"329 -9 OFFCURVE",
"112 -9 CURVE SMOOTH"
);
},
{
closed = 1;
nodes = (
"261 254 OFFCURVE",
"105 155 OFFCURVE",
"105 71 CURVE SMOOTH",
"105 46 OFFCURVE",
"118 35 OFFCURVE",
"149 35 CURVE SMOOTH",
"234 35 OFFCURVE",
"345 117 OFFCURVE",
"397 212 CURVE SMOOTH",
"437 286 LINE"
);
}
);
width = 580;
},
{
layerId = "5CF0B95A-6341-4D13-90DE-0CF1719C21EC";
paths = (
{
closed = 1;
nodes = (
"39 -9 OFFCURVE",
"-7 23 OFFCURVE",
"-7 76 CURVE SMOOTH",
"-7 181 OFFCURVE",
"185 283 OFFCURVE",
"464 326 CURVE",
"497 407 OFFCURVE",
"518 488 OFFCURVE",
"518 538 CURVE SMOOTH",
"518 598 OFFCURVE",
"487 628 OFFCURVE",
"423 628 CURVE SMOOTH",
"334 628 OFFCURVE",
"243 568 OFFCURVE",
"162 460 CURVE",
"130 479 LINE",
"230 605 OFFCURVE",
"336 670 OFFCURVE",
"442 670 CURVE SMOOTH",
"544 670 OFFCURVE",
"603 609 OFFCURVE",
"603 504 CURVE SMOOTH",
"603 276 OFFCURVE",
"329 -9 OFFCURVE",
"112 -9 CURVE SMOOTH"
);
},
{
closed = 1;
nodes = (
"261 254 OFFCURVE",
"105 155 OFFCURVE",
"105 71 CURVE SMOOTH",
"105 46 OFFCURVE",
"118 35 OFFCURVE",
"149 35 CURVE SMOOTH",
"234 35 OFFCURVE",
"345 117 OFFCURVE",
"397 212 CURVE SMOOTH",
"437 286 LINE"
);
}
);
width = 580;
}
);
unicode = 018F;
},
{
glyphname = T;
lastChange = "2018-10-23 22:45:40 +0000";
layers = (
{
anchors = (
{
name = bottom;
position = "{206, 0}";
},
{
name = topcap;
position = "{507, 714}";
}
);
layerId = master01;
paths = (
{
closed = 1;
nodes = (
"84 20 LINE",
"76 0 LINE",
"349 0 LINE",
"358 20 LINE",
"270 36 LINE",
"515 628 LINE",
"668 628 LINE",
"681 591 OFFCURVE",
"685 550 OFFCURVE",
"685 512 CURVE SMOOTH",
"685 499 OFFCURVE",
"685 485 OFFCURVE",
"684 473 CURVE",
"704 473 LINE",
"751 662 LINE",
"212 662 LINE",
"102 473 LINE",
"123 473 LINE",
"160 522 OFFCURVE",
"212 579 OFFCURVE",
"268 628 CURVE",
"421 628 LINE",
"176 36 LINE"
);
}
);
width = 632;
},
{
anchors = (
{
name = bottom;
position = "{206, 0}";
},
{
name = topcap;
position = "{507, 714}";
}
);
layerId = "5CF0B95A-6341-4D13-90DE-0CF1719C21EC";
paths = (
{
closed = 1;
nodes = (
"84 20 LINE",
"76 0 LINE",
"349 0 LINE",
"358 20 LINE",
"270 36 LINE",
"515 628 LINE",
"668 628 LINE",
"681 591 OFFCURVE",
"685 550 OFFCURVE",
"685 512 CURVE SMOOTH",
"685 499 OFFCURVE",
"685 485 OFFCURVE",
"684 473 CURVE",
"704 473 LINE",
"751 662 LINE",
"212 662 LINE",
"102 473 LINE",
"123 473 LINE",
"160 522 OFFCURVE",
"212 579 OFFCURVE",
"268 628 CURVE",
"421 628 LINE",
"176 36 LINE"
);
}
);
width = 632;
}
);
leftKerningGroup = T;
rightKerningGroup = T;
unicode = 0054;
},
{
glyphname = Tbar;
lastChange = "2018-10-23 22:45:40 +0000";
layers = (
{
components = (
{
name = T;
}
);
layerId = master01;
paths = (
{
closed = 1;
nodes = (
"617 399 LINE",
"164 399 LINE",
"149 361 LINE",
"601 361 LINE"
);
}
);
width = 639;
},
{
components = (
{
name = T;
}
);
layerId = "5CF0B95A-6341-4D13-90DE-0CF1719C21EC";
paths = (
{
closed = 1;
nodes = (
"617 399 LINE",
"164 399 LINE",
"149 361 LINE",
"601 361 LINE"
);
}
);
width = 639;
}
);
leftKerningGroup = T;
rightKerningGroup = T;
unicode = 0166;
},
{
glyphname = Thorn;
lastChange = "2018-10-23 22:45:40 +0000";
layers = (
{
layerId = master01;
paths = (
{
closed = 1;
nodes = (
"178 642 LINE",
"187 662 LINE",
"458 662 LINE",
"451 642 LINE",
"375 626 LINE",
"327 513 LINE",
"365 513 LINE SMOOTH",
"489 513 OFFCURVE",
"562 457 OFFCURVE",
"562 361 CURVE SMOOTH",
"562 230 OFFCURVE",
"439 144 OFFCURVE",
"255 144 CURVE SMOOTH",
"171 144 LINE",
"126 36 LINE",
"228 20 LINE",
"219 0 LINE",
"-52 0 LINE",
"-45 20 LINE",
"31 36 LINE",
"280 626 LINE"
);
},
{
closed = 1;
nodes = (
"381 181 OFFCURVE",
"473 267 OFFCURVE",
"473 373 CURVE SMOOTH",
"473 440 OFFCURVE",
"435 477 OFFCURVE",
"365 477 CURVE SMOOTH",
"312 477 LINE",
"187 181 LINE",
"267 181 LINE SMOOTH"
);
}
);
width = 566;
},
{
layerId = "5CF0B95A-6341-4D13-90DE-0CF1719C21EC";
paths = (
{
closed = 1;
nodes = (
"178 642 LINE",
"187 662 LINE",
"458 662 LINE",
"451 642 LINE",
"375 626 LINE",
"327 513 LINE",
"365 513 LINE SMOOTH",
"489 513 OFFCURVE",
"562 457 OFFCURVE",
"562 361 CURVE SMOOTH",
"562 230 OFFCURVE",
"439 144 OFFCURVE",
"255 144 CURVE SMOOTH",
"171 144 LINE",
"126 36 LINE",
"228 20 LINE",
"219 0 LINE",
"-52 0 LINE",
"-45 20 LINE",
"31 36 LINE",
"280 626 LINE"
);
},
{
closed = 1;
nodes = (
"381 181 OFFCURVE",
"473 267 OFFCURVE",
"473 373 CURVE SMOOTH",
"473 440 OFFCURVE",
"435 477 OFFCURVE",
"365 477 CURVE SMOOTH",
"312 477 LINE",
"187 181 LINE",
"267 181 LINE SMOOTH"
);
}
);
width = 566;
}
);
leftKerningGroup = I;
unicode = 00DE;
},
{
glyphname = U;
lastChange = "2018-10-23 22:45:40 +0000";
layers = (
{
anchors = (
{
name = bottom;
position = "{266, 0}";
},
{
name = topcap;
position = "{561, 714}";
}
);
layerId = master01;
paths = (
{
closed = 1;
nodes = (
"196 642 LINE",
"204 662 LINE",
"449 662 LINE",
"440 642 LINE",
"358 625 LINE",
"194 231 LINE SMOOTH",
"178 195 OFFCURVE",
"169 154 OFFCURVE",
"169 124 CURVE SMOOTH",
"169 62 OFFCURVE",
"209 32 OFFCURVE",
"292 32 CURVE SMOOTH",
"384 32 OFFCURVE",
"442 77 OFFCURVE",
"505 223 CURVE SMOOTH",
"679 626 LINE",
"607 642 LINE",
"617 662 LINE",
"807 662 LINE",
"799 642 LINE",
"717 626 LINE",
"536 198 LINE SMOOTH",
"465 31 OFFCURVE",
"372 -9 OFFCURVE",
"267 -9 CURVE SMOOTH",
"145 -9 OFFCURVE",
"81 40 OFFCURVE",
"81 129 CURVE SMOOTH",
"81 168 OFFCURVE",
"93 217 OFFCURVE",
"118 275 CURVE SMOOTH",
"267 626 LINE"
);
}
);
width = 669;
},
{
anchors = (
{
name = bottom;
position = "{266, 0}";
},
{
name = topcap;
position = "{561, 714}";
}
);
layerId = "5CF0B95A-6341-4D13-90DE-0CF1719C21EC";
paths = (
{
closed = 1;
nodes = (
"196 642 LINE",
"204 662 LINE",
"449 662 LINE",
"440 642 LINE",
"358 625 LINE",
"194 231 LINE SMOOTH",
"178 195 OFFCURVE",
"169 154 OFFCURVE",
"169 124 CURVE SMOOTH",
"169 62 OFFCURVE",
"209 32 OFFCURVE",
"292 32 CURVE SMOOTH",
"384 32 OFFCURVE",
"442 77 OFFCURVE",
"505 223 CURVE SMOOTH",
"679 626 LINE",
"607 642 LINE",
"617 662 LINE",
"807 662 LINE",
"799 642 LINE",
"717 626 LINE",
"536 198 LINE SMOOTH",
"465 31 OFFCURVE",
"372 -9 OFFCURVE",
"267 -9 CURVE SMOOTH",
"145 -9 OFFCURVE",
"81 40 OFFCURVE",
"81 129 CURVE SMOOTH",
"81 168 OFFCURVE",
"93 217 OFFCURVE",
"118 275 CURVE SMOOTH",
"267 626 LINE"
);
}
);
width = 669;
}
);
leftKerningGroup = U;
rightKerningGroup = U;
unicode = 0055;
},
{
glyphname = V;
lastChange = "2018-10-23 22:45:40 +0000";
layers = (
{
layerId = master01;
paths = (
{
closed = 1;
nodes = (
"641 543 LINE SMOOTH",
"692 609 OFFCURVE",
"722 626 OFFCURVE",
"803 638 CURVE",
"815 662 LINE",
"567 662 LINE",
"556 638 LINE",
"606 631 OFFCURVE",
"628 621 OFFCURVE",
"629 603 CURVE SMOOTH",
"629 587 OFFCURVE",
"624 576 OFFCURVE",
"599 544 CURVE SMOOTH",
"264 114 LINE",
"261 114 LINE",
"323 572 LINE SMOOTH",
"331 625 OFFCURVE",
"359 637 OFFCURVE",
"424 638 CURVE",
"436 662 LINE",
"171 662 LINE",
"159 638 LINE",
"212 635 OFFCURVE",
"231 628 OFFCURVE",
"232 598 CURVE SMOOTH",
"232 593 OFFCURVE",
"232 588 OFFCURVE",
"231 583 CURVE SMOOTH",
"155 -9 LINE",
"206 -9 LINE"
);
}
);
width = 631;
},
{
layerId = "5CF0B95A-6341-4D13-90DE-0CF1719C21EC";
paths = (
{
closed = 1;
nodes = (
"641 543 LINE SMOOTH",
"692 609 OFFCURVE",
"722 626 OFFCURVE",
"803 638 CURVE",
"815 662 LINE",
"567 662 LINE",
"556 638 LINE",
"606 631 OFFCURVE",
"628 621 OFFCURVE",
"629 603 CURVE SMOOTH",
"629 587 OFFCURVE",
"624 576 OFFCURVE",
"599 544 CURVE SMOOTH",
"264 114 LINE",
"261 114 LINE",
"323 572 LINE SMOOTH",
"331 625 OFFCURVE",
"359 637 OFFCURVE",
"424 638 CURVE",
"436 662 LINE",
"171 662 LINE",
"159 638 LINE",
"212 635 OFFCURVE",
"231 628 OFFCURVE",
"232 598 CURVE SMOOTH",
"232 593 OFFCURVE",
"232 588 OFFCURVE",
"231 583 CURVE SMOOTH",
"155 -9 LINE",
"206 -9 LINE"
);
}
);
width = 631;
}
);
unicode = 0056;
},
{
glyphname = W;
lastChange = "2018-10-23 22:45:40 +0000";
layers = (
{
anchors = (
{
name = topcap;
position = "{639, 714}";
}
);
layerId = master01;
paths = (
{
closed = 1;
nodes = (
"494 384 LINE",
"443 -9 LINE",
"494 -9 LINE",
"903 543 LINE SMOOTH",
"951 607 OFFCURVE",
"975 626 OFFCURVE",
"1048 638 CURVE",
"1060 662 LINE",
"829 662 LINE",
"818 638 LINE",
"869 631 OFFCURVE",
"890 621 OFFCURVE",
"891 603 CURVE SMOOTH",
"891 587 OFFCURVE",
"885 576 OFFCURVE",
"862 544 CURVE SMOOTH",
"549 115 LINE",
"611 572 LINE SMOOTH",
"619 625 OFFCURVE",
"648 637 OFFCURVE",
"712 638 CURVE",
"724 662 LINE",
"485 662 LINE",
"473 638 LINE",
"508 635 OFFCURVE",
"519 628 OFFCURVE",
"520 598 CURVE SMOOTH",
"520 593 OFFCURVE",
"520 588 OFFCURVE",
"519 583 CURVE SMOOTH",
"502 452 LINE",
"256 115 LINE",
"319 572 LINE SMOOTH",
"326 625 OFFCURVE",
"348 637 OFFCURVE",
"402 638 CURVE",
"415 662 LINE",
"167 662 LINE",
"155 638 LINE",
"208 635 OFFCURVE",
"227 628 OFFCURVE",
"228 598 CURVE SMOOTH",
"228 593 OFFCURVE",
"228 588 OFFCURVE",
"227 583 CURVE SMOOTH",
"151 -9 LINE",
"201 -9 LINE"
);
}
);
width = 885;
},
{
anchors = (
{
name = topcap;
position = "{639, 714}";
}
);
layerId = "5CF0B95A-6341-4D13-90DE-0CF1719C21EC";
paths = (
{
closed = 1;
nodes = (
"494 384 LINE",
"443 -9 LINE",
"494 -9 LINE",
"903 543 LINE SMOOTH",
"951 607 OFFCURVE",
"975 626 OFFCURVE",
"1048 638 CURVE",
"1060 662 LINE",
"829 662 LINE",
"818 638 LINE",
"869 631 OFFCURVE",
"890 621 OFFCURVE",
"891 603 CURVE SMOOTH",
"891 587 OFFCURVE",
"885 576 OFFCURVE",
"862 544 CURVE SMOOTH",
"549 115 LINE",
"611 572 LINE SMOOTH",
"619 625 OFFCURVE",
"648 637 OFFCURVE",
"712 638 CURVE",
"724 662 LINE",
"485 662 LINE",
"473 638 LINE",
"508 635 OFFCURVE",
"519 628 OFFCURVE",
"520 598 CURVE SMOOTH",
"520 593 OFFCURVE",
"520 588 OFFCURVE",
"519 583 CURVE SMOOTH",
"502 452 LINE",
"256 115 LINE",
"319 572 LINE SMOOTH",
"326 625 OFFCURVE",
"348 637 OFFCURVE",
"402 638 CURVE",
"415 662 LINE",
"167 662 LINE",
"155 638 LINE",
"208 635 OFFCURVE",
"227 628 OFFCURVE",
"228 598 CURVE SMOOTH",
"228 593 OFFCURVE",
"228 588 OFFCURVE",
"227 583 CURVE SMOOTH",
"151 -9 LINE",
"201 -9 LINE"
);
}
);
width = 885;
}
);
leftKerningGroup = W;
rightKerningGroup = W;
unicode = 0057;
},
{
glyphname = X;
lastChange = "2018-10-23 22:45:40 +0000";
layers = (
{
layerId = master01;
paths = (
{
closed = 1;
nodes = (
"-84 20 LINE",
"-22 22 OFFCURVE",
"15 37 OFFCURVE",
"126 144 CURVE SMOOTH",
"311 321 LINE",
"251 570 LINE SMOOTH",
"240 617 OFFCURVE",
"224 634 OFFCURVE",
"157 642 CURVE",
"166 662 LINE",
"419 662 LINE",
"411 642 LINE",
"363 638 OFFCURVE",
"346 625 OFFCURVE",
"346 596 CURVE SMOOTH",
"346 587 OFFCURVE",
"347 576 OFFCURVE",
"351 563 CURVE SMOOTH",
"393 385 LINE",
"576 560 LINE SMOOTH",
"607 589 OFFCURVE",
"621 610 OFFCURVE",
"621 623 CURVE SMOOTH",
"621 636 OFFCURVE",
"605 642 OFFCURVE",
"575 642 CURVE",
"583 662 LINE",
"788 662 LINE",
"779 642 LINE",
"715 634 OFFCURVE",
"679 617 OFFCURVE",
"624 564 CURVE SMOOTH",
"402 350 LINE",
"463 100 LINE SMOOTH",
"476 44 OFFCURVE",
"495 29 OFFCURVE",
"550 20 CURVE",
"541 0 LINE",
"284 0 LINE",
"292 20 LINE",
"347 28 OFFCURVE",
"368 39 OFFCURVE",
"368 69 CURVE SMOOTH",
"368 77 OFFCURVE",
"366 87 OFFCURVE",
"364 99 CURVE SMOOTH",
"322 284 LINE",
"158 126 LINE SMOOTH",
"131 99 OFFCURVE",
"115 77 OFFCURVE",
"115 60 CURVE SMOOTH",
"115 40 OFFCURVE",
"137 27 OFFCURVE",
"182 20 CURVE",
"173 0 LINE",
"-93 0 LINE"
);
}
);
width = 640;
},
{
layerId = "5CF0B95A-6341-4D13-90DE-0CF1719C21EC";
paths = (
{
closed = 1;
nodes = (
"-84 20 LINE",
"-22 22 OFFCURVE",
"15 37 OFFCURVE",
"126 144 CURVE SMOOTH",
"311 321 LINE",
"251 570 LINE SMOOTH",
"240 617 OFFCURVE",
"224 634 OFFCURVE",
"157 642 CURVE",
"166 662 LINE",
"419 662 LINE",
"411 642 LINE",
"363 638 OFFCURVE",
"346 625 OFFCURVE",
"346 596 CURVE SMOOTH",
"346 587 OFFCURVE",
"347 576 OFFCURVE",
"351 563 CURVE SMOOTH",
"393 385 LINE",
"576 560 LINE SMOOTH",
"607 589 OFFCURVE",
"621 610 OFFCURVE",
"621 623 CURVE SMOOTH",
"621 636 OFFCURVE",
"605 642 OFFCURVE",
"575 642 CURVE",
"583 662 LINE",
"788 662 LINE",
"779 642 LINE",
"715 634 OFFCURVE",
"679 617 OFFCURVE",
"624 564 CURVE SMOOTH",
"402 350 LINE",
"463 100 LINE SMOOTH",
"476 44 OFFCURVE",
"495 29 OFFCURVE",
"550 20 CURVE",
"541 0 LINE",
"284 0 LINE",
"292 20 LINE",
"347 28 OFFCURVE",
"368 39 OFFCURVE",
"368 69 CURVE SMOOTH",
"368 77 OFFCURVE",
"366 87 OFFCURVE",
"364 99 CURVE SMOOTH",
"322 284 LINE",
"158 126 LINE SMOOTH",
"131 99 OFFCURVE",
"115 77 OFFCURVE",
"115 60 CURVE SMOOTH",
"115 40 OFFCURVE",
"137 27 OFFCURVE",
"182 20 CURVE",
"173 0 LINE",
"-93 0 LINE"
);
}
);
width = 640;
}
);
unicode = 0058;
},
{
glyphname = Y;
lastChange = "2018-10-23 22:45:40 +0000";
layers = (
{
anchors = (
{
name = topcap;
position = "{513, 714}";
}
);
layerId = master01;
paths = (
{
closed = 1;
nodes = (
"84 20 LINE",
"168 36 LINE",
"274 292 LINE",
"232 571 LINE SMOOTH",
"224 629 OFFCURVE",
"215 642 OFFCURVE",
"155 642 CURVE",
"163 662 LINE",
"406 662 LINE",
"397 642 LINE",
"349 641 OFFCURVE",
"330 629 OFFCURVE",
"330 582 CURVE SMOOTH",
"330 574 OFFCURVE",
"331 562 OFFCURVE",
"333 550 CURVE SMOOTH",
"359 339 LINE",
"590 571 LINE SMOOTH",
"609 590 OFFCURVE",
"618 605 OFFCURVE",
"618 616 CURVE SMOOTH",
"618 633 OFFCURVE",
"596 642 OFFCURVE",
"547 642 CURVE",
"555 662 LINE",
"792 662 LINE",
"781 642 LINE",
"710 638 OFFCURVE",
"683 624 OFFCURVE",
"609 549 CURVE SMOOTH",
"378 312 LINE",
"261 36 LINE",
"346 20 LINE",
"337 0 LINE",
"76 0 LINE"
);
}
);
width = 616;
},
{
anchors = (
{
name = topcap;
position = "{513, 714}";
}
);
layerId = "5CF0B95A-6341-4D13-90DE-0CF1719C21EC";
paths = (
{
closed = 1;
nodes = (
"84 20 LINE",
"168 36 LINE",
"274 292 LINE",
"232 571 LINE SMOOTH",
"224 629 OFFCURVE",
"215 642 OFFCURVE",
"155 642 CURVE",
"163 662 LINE",
"406 662 LINE",
"397 642 LINE",
"349 641 OFFCURVE",
"330 629 OFFCURVE",
"330 582 CURVE SMOOTH",
"330 574 OFFCURVE",
"331 562 OFFCURVE",
"333 550 CURVE SMOOTH",
"359 339 LINE",
"590 571 LINE SMOOTH",
"609 590 OFFCURVE",
"618 605 OFFCURVE",
"618 616 CURVE SMOOTH",
"618 633 OFFCURVE",
"596 642 OFFCURVE",
"547 642 CURVE",
"555 662 LINE",
"792 662 LINE",
"781 642 LINE",
"710 638 OFFCURVE",
"683 624 OFFCURVE",
"609 549 CURVE SMOOTH",
"378 312 LINE",
"261 36 LINE",
"346 20 LINE",
"337 0 LINE",
"76 0 LINE"
);
}
);
width = 616;
}
);
leftKerningGroup = Y;
rightKerningGroup = Y;
unicode = 0059;
},
{
glyphname = Z;
lastChange = "2018-10-23 22:45:40 +0000";
layers = (
{
anchors = (
{
name = bottom;
position = "{208, 0}";
},
{
name = topcap;
position = "{470, 714}";
}
);
layerId = master01;
paths = (
{
closed = 1;
nodes = (
"-6 44 LINE",
"531 628 LINE",
"300 628 LINE",
"244 581 OFFCURVE",
"191 525 OFFCURVE",
"152 476 CURVE",
"129 476 LINE",
"232 662 LINE",
"659 662 LINE",
"640 617 LINE",
"105 36 LINE",
"373 36 LINE",
"433 93 OFFCURVE",
"486 152 OFFCURVE",
"526 210 CURVE",
"556 210 LINE",
"450 0 LINE",
"-25 0 LINE"
);
}
);
width = 599;
},
{
anchors = (
{
name = bottom;
position = "{208, 0}";
},
{
name = topcap;
position = "{470, 714}";
}
);
layerId = "5CF0B95A-6341-4D13-90DE-0CF1719C21EC";
paths = (
{
closed = 1;
nodes = (
"-6 44 LINE",
"531 628 LINE",
"300 628 LINE",
"244 581 OFFCURVE",
"191 525 OFFCURVE",
"152 476 CURVE",
"129 476 LINE",
"232 662 LINE",
"659 662 LINE",
"640 617 LINE",
"105 36 LINE",
"373 36 LINE",
"433 93 OFFCURVE",
"486 152 OFFCURVE",
"526 210 CURVE",
"556 210 LINE",
"450 0 LINE",
"-25 0 LINE"
);
}
);
width = 599;
}
);
leftKerningGroup = Z;
rightKerningGroup = Z;
unicode = 005A;
},
{
glyphname = a;
lastChange = "2018-10-23 22:45:40 +0000";
layers = (
{
anchors = (
{
name = bottom;
position = "{298, 0}";
},
{
name = top;
position = "{371, 560}";
}
);
layerId = master01;
paths = (
{
closed = 1;
nodes = (
"351 464 OFFCURVE",
"370 453 OFFCURVE",
"390 424 CURVE",
"404 456 LINE",
"492 456 LINE",
"344 94 LINE",
"337 72 OFFCURVE",
"335 65 OFFCURVE",
"335 58 CURVE SMOOTH",
"335 48 OFFCURVE",
"341 42 OFFCURVE",
"349 42 CURVE SMOOTH",
"366 42 OFFCURVE",
"396 65 OFFCURVE",
"445 119 CURVE",
"462 107 LINE",
"402 31 OFFCURVE",
"347 -9 OFFCURVE",
"298 -9 CURVE SMOOTH",
"267 -9 OFFCURVE",
"248 8 OFFCURVE",
"248 41 CURVE SMOOTH",
"248 66 OFFCURVE",
"254 91 OFFCURVE",
"277 128 CURVE",
"272 131 LINE",
"205 33 OFFCURVE",
"152 -9 OFFCURVE",
"95 -9 CURVE SMOOTH",
"36 -9 OFFCURVE",
"0 34 OFFCURVE",
"0 105 CURVE SMOOTH",
"0 261 OFFCURVE",
"177 464 OFFCURVE",
"319 464 CURVE SMOOTH"
);
},
{
closed = 1;
nodes = (
"169 22 OFFCURVE",
"280 157 OFFCURVE",
"349 320 CURVE SMOOTH",
"366 359 OFFCURVE",
"368 378 OFFCURVE",
"368 394 CURVE SMOOTH",
"368 421 OFFCURVE",
"351 437 OFFCURVE",
"329 437 CURVE SMOOTH",
"243 437 OFFCURVE",
"79 196 OFFCURVE",
"79 71 CURVE SMOOTH",
"79 37 OFFCURVE",
"88 22 OFFCURVE",
"111 22 CURVE SMOOTH"
);
}
);
width = 519;
},
{
anchors = (
{
name = bottom;
position = "{298, 0}";
},
{
name = top;
position = "{371, 560}";
}
);
layerId = "5CF0B95A-6341-4D13-90DE-0CF1719C21EC";
paths = (
{
closed = 1;
nodes = (
"351 464 OFFCURVE",
"370 453 OFFCURVE",
"390 424 CURVE",
"404 456 LINE",
"492 456 LINE",
"344 94 LINE",
"337 72 OFFCURVE",
"335 65 OFFCURVE",
"335 58 CURVE SMOOTH",
"335 48 OFFCURVE",
"341 42 OFFCURVE",
"349 42 CURVE SMOOTH",
"366 42 OFFCURVE",
"396 65 OFFCURVE",
"445 119 CURVE",
"462 107 LINE",
"402 31 OFFCURVE",
"347 -9 OFFCURVE",
"298 -9 CURVE SMOOTH",
"267 -9 OFFCURVE",
"248 8 OFFCURVE",
"248 41 CURVE SMOOTH",
"248 66 OFFCURVE",
"254 91 OFFCURVE",
"277 128 CURVE",
"272 131 LINE",
"205 33 OFFCURVE",
"152 -9 OFFCURVE",
"95 -9 CURVE SMOOTH",
"36 -9 OFFCURVE",
"0 34 OFFCURVE",
"0 105 CURVE SMOOTH",
"0 261 OFFCURVE",
"177 464 OFFCURVE",
"319 464 CURVE SMOOTH"
);
},
{
closed = 1;
nodes = (
"169 22 OFFCURVE",
"280 157 OFFCURVE",
"349 320 CURVE SMOOTH",
"366 359 OFFCURVE",
"368 378 OFFCURVE",
"368 394 CURVE SMOOTH",
"368 421 OFFCURVE",
"351 437 OFFCURVE",
"329 437 CURVE SMOOTH",
"243 437 OFFCURVE",
"79 196 OFFCURVE",
"79 71 CURVE SMOOTH",
"79 37 OFFCURVE",
"88 22 OFFCURVE",
"111 22 CURVE SMOOTH"
);
}
);
width = 519;
}
);
leftKerningGroup = a;
rightKerningGroup = a;
unicode = 0061;
},
{
glyphname = acute;
lastChange = "2018-10-23 22:45:40 +0000";
layers = (
{
anchors = (
{
name = _top;
position = "{107, 560}";
}
);
layerId = master01;
paths = (
{
closed = 1;
nodes = (
"108 699 LINE SMOOTH",
"126 725 OFFCURVE",
"143 737 OFFCURVE",
"163 737 CURVE SMOOTH",
"187 737 OFFCURVE",
"205 722 OFFCURVE",
"205 701 CURVE SMOOTH",
"205 684 OFFCURVE",
"193 667 OFFCURVE",
"162 645 CURVE SMOOTH",
"22 543 LINE",
"9 552 LINE"
);
}
);
width = 213;
},
{
anchors = (
{
name = _top;
position = "{107, 560}";
}
);
layerId = "5CF0B95A-6341-4D13-90DE-0CF1719C21EC";
paths = (
{
closed = 1;
nodes = (
"108 699 LINE SMOOTH",
"126 725 OFFCURVE",
"143 737 OFFCURVE",
"163 737 CURVE SMOOTH",
"187 737 OFFCURVE",
"205 722 OFFCURVE",
"205 701 CURVE SMOOTH",
"205 684 OFFCURVE",
"193 667 OFFCURVE",
"162 645 CURVE SMOOTH",
"22 543 LINE",
"9 552 LINE"
);
}
);
width = 213;
}
);
unicode = 00B4;
},
{
glyphname = acute.cap;
lastChange = "2018-10-23 22:45:40 +0000";
layers = (
{
anchors = (
{
name = _topcap;
position = "{107, 714}";
}
);
layerId = master01;
paths = (
{
closed = 1;
nodes = (
"132 812 LINE SMOOTH",
"145 821 OFFCURVE",
"157 826 OFFCURVE",
"170 826 CURVE SMOOTH",
"189 826 OFFCURVE",
"207 810 OFFCURVE",
"207 789 CURVE SMOOTH",
"207 769 OFFCURVE",
"194 753 OFFCURVE",
"149 740 CURVE SMOOTH",
"18 702 LINE",
"9 720 LINE"
);
}
);
width = 213;
},
{
anchors = (
{
name = _topcap;
position = "{107, 714}";
}
);
layerId = "5CF0B95A-6341-4D13-90DE-0CF1719C21EC";
paths = (
{
closed = 1;
nodes = (
"132 812 LINE SMOOTH",
"145 821 OFFCURVE",
"157 826 OFFCURVE",
"170 826 CURVE SMOOTH",
"189 826 OFFCURVE",
"207 810 OFFCURVE",
"207 789 CURVE SMOOTH",
"207 769 OFFCURVE",
"194 753 OFFCURVE",
"149 740 CURVE SMOOTH",
"18 702 LINE",
"9 720 LINE"
);
}
);
width = 213;
}
);
},
{
glyphname = ae;
lastChange = "2018-10-23 22:45:40 +0000";
layers = (
{
layerId = master01;
paths = (
{
closed = 1;
nodes = (
"667 464 OFFCURVE",
"699 441 OFFCURVE",
"699 405 CURVE SMOOTH",
"699 333 OFFCURVE",
"579 261 OFFCURVE",
"407 231 CURVE",
"374 170 OFFCURVE",
"358 119 OFFCURVE",
"358 79 CURVE SMOOTH",
"358 40 OFFCURVE",
"374 22 OFFCURVE",
"408 22 CURVE SMOOTH",
"461 22 OFFCURVE",
"534 69 OFFCURVE",
"585 137 CURVE",
"604 125 LINE",
"533 37 OFFCURVE",
"459 -9 OFFCURVE",
"386 -9 CURVE SMOOTH",
"316 -9 OFFCURVE",
"277 33 OFFCURVE",
"277 108 CURVE SMOOTH",
"277 118 OFFCURVE",
"277 123 OFFCURVE",
"278 128 CURVE",
"273 131 LINE",
"206 33 OFFCURVE",
"153 -9 OFFCURVE",
"95 -9 CURVE SMOOTH",
"37 -9 OFFCURVE",
"1 34 OFFCURVE",
"1 104 CURVE SMOOTH {name = hr01;}",
"1 262 OFFCURVE",
"180 464 OFFCURVE",
"319 464 CURVE SMOOTH",
"351 464 OFFCURVE",
"370 454 OFFCURVE",
"391 424 CURVE",
"405 456 LINE {name = hr02;}",
"493 456 LINE",
"472 406 LINE",
"520 444 OFFCURVE",
"573 464 OFFCURVE",
"619 464 CURVE SMOOTH"
);
},
{
closed = 1;
nodes = (
"170 22 OFFCURVE",
"285 163 OFFCURVE",
"350 320 CURVE SMOOTH",
"363 351 OFFCURVE",
"369 372 OFFCURVE",
"369 389 CURVE SMOOTH",
"369 419 OFFCURVE",
"354 437 OFFCURVE",
"330 437 CURVE SMOOTH",
"243 437 OFFCURVE",
"80 198 OFFCURVE",
"80 70 CURVE SMOOTH",
"80 37 OFFCURVE",
"90 22 OFFCURVE",
"110 22 CURVE SMOOTH"
);
},
{
closed = 1;
nodes = (
"533 280 OFFCURVE",
"630 353 OFFCURVE",
"630 412 CURVE SMOOTH",
"630 429 OFFCURVE",
"622 438 OFFCURVE",
"603 438 CURVE SMOOTH",
"556 438 OFFCURVE",
"493 384 OFFCURVE",
"453 310 CURVE SMOOTH",
"426 260 LINE"
);
}
);
width = 691;
},
{
layerId = "5CF0B95A-6341-4D13-90DE-0CF1719C21EC";
paths = (
{
closed = 1;
nodes = (
"667 464 OFFCURVE",
"699 441 OFFCURVE",
"699 405 CURVE SMOOTH",
"699 333 OFFCURVE",
"579 261 OFFCURVE",
"407 231 CURVE",
"374 170 OFFCURVE",
"358 119 OFFCURVE",
"358 79 CURVE SMOOTH",
"358 40 OFFCURVE",
"374 22 OFFCURVE",
"408 22 CURVE SMOOTH",
"461 22 OFFCURVE",
"534 69 OFFCURVE",
"585 137 CURVE",
"604 125 LINE",
"533 37 OFFCURVE",
"459 -9 OFFCURVE",
"386 -9 CURVE SMOOTH",
"316 -9 OFFCURVE",
"277 33 OFFCURVE",
"277 108 CURVE SMOOTH",
"277 118 OFFCURVE",
"277 123 OFFCURVE",
"278 128 CURVE",
"273 131 LINE",
"206 33 OFFCURVE",
"153 -9 OFFCURVE",
"95 -9 CURVE SMOOTH",
"37 -9 OFFCURVE",
"1 34 OFFCURVE",
"1 104 CURVE SMOOTH {name = hr01;}",
"1 262 OFFCURVE",
"180 464 OFFCURVE",
"319 464 CURVE SMOOTH",
"351 464 OFFCURVE",
"370 454 OFFCURVE",
"391 424 CURVE",
"405 456 LINE {name = hr02;}",
"493 456 LINE",
"472 406 LINE",
"520 444 OFFCURVE",
"573 464 OFFCURVE",
"619 464 CURVE SMOOTH"
);
},
{
closed = 1;
nodes = (
"170 22 OFFCURVE",
"285 163 OFFCURVE",
"350 320 CURVE SMOOTH",
"363 351 OFFCURVE",
"369 372 OFFCURVE",
"369 389 CURVE SMOOTH",
"369 419 OFFCURVE",
"354 437 OFFCURVE",
"330 437 CURVE SMOOTH",
"243 437 OFFCURVE",
"80 198 OFFCURVE",
"80 70 CURVE SMOOTH",
"80 37 OFFCURVE",
"90 22 OFFCURVE",
"110 22 CURVE SMOOTH"
);
},
{
closed = 1;
nodes = (
"533 280 OFFCURVE",
"630 353 OFFCURVE",
"630 412 CURVE SMOOTH",
"630 429 OFFCURVE",
"622 438 OFFCURVE",
"603 438 CURVE SMOOTH",
"556 438 OFFCURVE",
"493 384 OFFCURVE",
"453 310 CURVE SMOOTH",
"426 260 LINE"
);
}
);
width = 691;
}
);
leftKerningGroup = a;
rightKerningGroup = e;
unicode = 00E6;
},
{
glyphname = ampersand;
lastChange = "2018-10-23 22:45:40 +0000";
layers = (
{
layerId = master01;
paths = (
{
closed = 1;
nodes = (
"241 76 OFFCURVE",
"136 148 OFFCURVE",
"136 253 CURVE SMOOTH",
"136 309 OFFCURVE",
"166 357 OFFCURVE",
"207 372 CURVE",
"227 356 OFFCURVE",
"254 346 OFFCURVE",
"274 346 CURVE SMOOTH",
"303 346 OFFCURVE",
"323 364 OFFCURVE",
"323 389 CURVE SMOOTH",
"323 412 OFFCURVE",
"300 428 OFFCURVE",
"268 428 CURVE SMOOTH",
"253 428 OFFCURVE",
"234 425 OFFCURVE",
"219 419 CURVE",
"209 435 OFFCURVE",
"204 461 OFFCURVE",
"204 485 CURVE SMOOTH",
"204 544 OFFCURVE",
"247 593 OFFCURVE",
"298 593 CURVE SMOOTH",
"377 593 OFFCURVE",
"308 485 OFFCURVE",
"381 485 CURVE SMOOTH",
"410 485 OFFCURVE",
"429 507 OFFCURVE",
"429 538 CURVE SMOOTH",
"429 588 OFFCURVE",
"378 630 OFFCURVE",
"316 630 CURVE SMOOTH",
"236 630 OFFCURVE",
"167 559 OFFCURVE",
"167 476 CURVE SMOOTH",
"167 447 OFFCURVE",
"175 419 OFFCURVE",
"189 399 CURVE",
"120 360 OFFCURVE",
"80 296 OFFCURVE",
"80 213 CURVE SMOOTH",
"80 81 OFFCURVE",
"192 -9 OFFCURVE",
"358 -9 CURVE SMOOTH",
"552 -9 OFFCURVE",
"716 113 OFFCURVE",
"716 267 CURVE SMOOTH",
"716 324 OFFCURVE",
"692 367 OFFCURVE",
"654 384 CURVE",
"654 387 LINE",
"778 408 OFFCURVE",
"846 464 OFFCURVE",
"846 568 CURVE SMOOTH",
"846 638 OFFCURVE",
"802 671 OFFCURVE",
"741 671 CURVE SMOOTH",
"685 671 OFFCURVE",
"641 642 OFFCURVE",
"641 603 CURVE SMOOTH",
"641 581 OFFCURVE",
"654 569 OFFCURVE",
"674 569 CURVE SMOOTH",
"711 569 OFFCURVE",
"721 614 OFFCURVE",
"761 614 CURVE SMOOTH",
"789 614 OFFCURVE",
"814 594 OFFCURVE",
"814 553 CURVE SMOOTH",
"814 470 OFFCURVE",
"732 452 OFFCURVE",
"630 436 CURVE SMOOTH",
"445 405 OFFCURVE",
"407 372 OFFCURVE",
"407 301 CURVE SMOOTH",
"407 255 OFFCURVE",
"441 230 OFFCURVE",
"470 230 CURVE SMOOTH",
"495 230 OFFCURVE",
"517 243 OFFCURVE",
"517 266 CURVE SMOOTH",
"517 313 OFFCURVE",
"450 289 OFFCURVE",
"450 328 CURVE SMOOTH",
"450 356 OFFCURVE",
"496 386 OFFCURVE",
"552 386 CURVE SMOOTH",
"621 386 OFFCURVE",
"667 347 OFFCURVE",
"667 280 CURVE SMOOTH",
"667 165 OFFCURVE",
"546 76 OFFCURVE",
"386 76 CURVE SMOOTH"
);
}
);
width = 801;
},
{
layerId = "5CF0B95A-6341-4D13-90DE-0CF1719C21EC";
paths = (
{
closed = 1;
nodes = (
"241 76 OFFCURVE",
"136 148 OFFCURVE",
"136 253 CURVE SMOOTH",
"136 309 OFFCURVE",
"166 357 OFFCURVE",
"207 372 CURVE",
"227 356 OFFCURVE",
"254 346 OFFCURVE",
"274 346 CURVE SMOOTH",
"303 346 OFFCURVE",
"323 364 OFFCURVE",
"323 389 CURVE SMOOTH",
"323 412 OFFCURVE",
"300 428 OFFCURVE",
"268 428 CURVE SMOOTH",
"253 428 OFFCURVE",
"234 425 OFFCURVE",
"219 419 CURVE",
"209 435 OFFCURVE",
"204 461 OFFCURVE",
"204 485 CURVE SMOOTH",
"204 544 OFFCURVE",
"247 593 OFFCURVE",
"298 593 CURVE SMOOTH",
"377 593 OFFCURVE",
"308 485 OFFCURVE",
"381 485 CURVE SMOOTH",
"410 485 OFFCURVE",
"429 507 OFFCURVE",
"429 538 CURVE SMOOTH",
"429 588 OFFCURVE",
"378 630 OFFCURVE",
"316 630 CURVE SMOOTH",
"236 630 OFFCURVE",
"167 559 OFFCURVE",
"167 476 CURVE SMOOTH",
"167 447 OFFCURVE",
"175 419 OFFCURVE",
"189 399 CURVE",
"120 360 OFFCURVE",
"80 296 OFFCURVE",
"80 213 CURVE SMOOTH",
"80 81 OFFCURVE",
"192 -9 OFFCURVE",
"358 -9 CURVE SMOOTH",
"552 -9 OFFCURVE",
"716 113 OFFCURVE",
"716 267 CURVE SMOOTH",
"716 324 OFFCURVE",
"692 367 OFFCURVE",
"654 384 CURVE",
"654 387 LINE",
"778 408 OFFCURVE",
"846 464 OFFCURVE",
"846 568 CURVE SMOOTH",
"846 638 OFFCURVE",
"802 671 OFFCURVE",
"741 671 CURVE SMOOTH",
"685 671 OFFCURVE",
"641 642 OFFCURVE",
"641 603 CURVE SMOOTH",
"641 581 OFFCURVE",
"654 569 OFFCURVE",
"674 569 CURVE SMOOTH",
"711 569 OFFCURVE",
"721 614 OFFCURVE",
"761 614 CURVE SMOOTH",
"789 614 OFFCURVE",
"814 594 OFFCURVE",
"814 553 CURVE SMOOTH",
"814 470 OFFCURVE",
"732 452 OFFCURVE",
"630 436 CURVE SMOOTH",
"445 405 OFFCURVE",
"407 372 OFFCURVE",
"407 301 CURVE SMOOTH",
"407 255 OFFCURVE",
"441 230 OFFCURVE",
"470 230 CURVE SMOOTH",
"495 230 OFFCURVE",
"517 243 OFFCURVE",
"517 266 CURVE SMOOTH",
"517 313 OFFCURVE",
"450 289 OFFCURVE",
"450 328 CURVE SMOOTH",
"450 356 OFFCURVE",
"496 386 OFFCURVE",
"552 386 CURVE SMOOTH",
"621 386 OFFCURVE",
"667 347 OFFCURVE",
"667 280 CURVE SMOOTH",
"667 165 OFFCURVE",
"546 76 OFFCURVE",
"386 76 CURVE SMOOTH"
);
}
);
width = 801;
}
);
unicode = 0026;
},
{
glyphname = ampersand.ss01;
lastChange = "2018-10-23 22:45:40 +0000";
layers = (
{
layerId = master01;
paths = (
{
closed = 1;
nodes = (
"769 511 OFFCURVE",
"750 537 OFFCURVE",
"722 537 CURVE SMOOTH",
"699 537 OFFCURVE",
"683 519 OFFCURVE",
"683 497 CURVE SMOOTH",
"683 466 OFFCURVE",
"713 446 OFFCURVE",
"713 416 CURVE SMOOTH",
"713 400 OFFCURVE",
"703 392 OFFCURVE",
"685 392 CURVE SMOOTH",
"628 392 OFFCURVE",
"586 464 OFFCURVE",
"504 464 CURVE SMOOTH",
"430 464 OFFCURVE",
"364 405 OFFCURVE",
"364 339 CURVE SMOOTH",
"364 305 OFFCURVE",
"381 282 OFFCURVE",
"406 282 CURVE SMOOTH",
"429 282 OFFCURVE",
"449 302 OFFCURVE",
"449 327 CURVE SMOOTH",
"449 354 OFFCURVE",
"424 357 OFFCURVE",
"424 386 CURVE SMOOTH",
"424 408 OFFCURVE",
"437 420 OFFCURVE",
"458 420 CURVE SMOOTH",
"482 420 OFFCURVE",
"512 406 OFFCURVE",
"546 379 CURVE",
"546 366 OFFCURVE",
"546 360 OFFCURVE",
"545 347 CURVE SMOOTH",
"535 189 OFFCURVE",
"430 81 OFFCURVE",
"286 81 CURVE SMOOTH",
"243 81 OFFCURVE",
"208 91 OFFCURVE",
"163 117 CURVE",
"367 529 LINE SMOOTH",
"412 619 OFFCURVE",
"427 660 OFFCURVE",
"427 689 CURVE SMOOTH",
"427 718 OFFCURVE",
"411 736 OFFCURVE",
"385 736 CURVE SMOOTH",
"355 736 OFFCURVE",
"337 714 OFFCURVE",
"337 679 CURVE SMOOTH",
"337 650 OFFCURVE",
"349 634 OFFCURVE",
"349 603 CURVE SMOOTH",
"349 570 OFFCURVE",
"336 533 OFFCURVE",
"301 464 CURVE",
"157 464 OFFCURVE",
"32 345 OFFCURVE",
"32 207 CURVE SMOOTH",
"32 83 OFFCURVE",
"132 -9 OFFCURVE",
"265 -9 CURVE SMOOTH",
"443 -9 OFFCURVE",
"578 151 OFFCURVE",
"578 364 CURVE",
"591 355 OFFCURVE",
"617 349 OFFCURVE",
"642 349 CURVE SMOOTH",
"710 349 OFFCURVE",
"769 406 OFFCURVE",
"769 473 CURVE SMOOTH"
);
},
{
closed = 1;
nodes = (
"138 138 LINE",
"100 175 OFFCURVE",
"84 206 OFFCURVE",
"84 249 CURVE SMOOTH",
"84 325 OFFCURVE",
"132 374 OFFCURVE",
"210 374 CURVE SMOOTH",
"223 374 OFFCURVE",
"237 372 OFFCURVE",
"253 370 CURVE"
);
}
);
width = 699;
},
{
layerId = "5CF0B95A-6341-4D13-90DE-0CF1719C21EC";
paths = (
{
closed = 1;
nodes = (
"769 511 OFFCURVE",
"750 537 OFFCURVE",
"722 537 CURVE SMOOTH",
"699 537 OFFCURVE",
"683 519 OFFCURVE",
"683 497 CURVE SMOOTH",
"683 466 OFFCURVE",
"713 446 OFFCURVE",
"713 416 CURVE SMOOTH",
"713 400 OFFCURVE",
"703 392 OFFCURVE",
"685 392 CURVE SMOOTH",
"628 392 OFFCURVE",
"586 464 OFFCURVE",
"504 464 CURVE SMOOTH",
"430 464 OFFCURVE",
"364 405 OFFCURVE",
"364 339 CURVE SMOOTH",
"364 305 OFFCURVE",
"381 282 OFFCURVE",
"406 282 CURVE SMOOTH",
"429 282 OFFCURVE",
"449 302 OFFCURVE",
"449 327 CURVE SMOOTH",
"449 354 OFFCURVE",
"424 357 OFFCURVE",
"424 386 CURVE SMOOTH",
"424 408 OFFCURVE",
"437 420 OFFCURVE",
"458 420 CURVE SMOOTH",
"482 420 OFFCURVE",
"512 406 OFFCURVE",
"546 379 CURVE",
"546 366 OFFCURVE",
"546 360 OFFCURVE",
"545 347 CURVE SMOOTH",
"535 189 OFFCURVE",
"430 81 OFFCURVE",
"286 81 CURVE SMOOTH",
"243 81 OFFCURVE",
"208 91 OFFCURVE",
"163 117 CURVE",
"367 529 LINE SMOOTH",
"412 619 OFFCURVE",
"427 660 OFFCURVE",
"427 689 CURVE SMOOTH",
"427 718 OFFCURVE",
"411 736 OFFCURVE",
"385 736 CURVE SMOOTH",
"355 736 OFFCURVE",
"337 714 OFFCURVE",
"337 679 CURVE SMOOTH",
"337 650 OFFCURVE",
"349 634 OFFCURVE",
"349 603 CURVE SMOOTH",
"349 570 OFFCURVE",
"336 533 OFFCURVE",
"301 464 CURVE",
"157 464 OFFCURVE",
"32 345 OFFCURVE",
"32 207 CURVE SMOOTH",
"32 83 OFFCURVE",
"132 -9 OFFCURVE",
"265 -9 CURVE SMOOTH",
"443 -9 OFFCURVE",
"578 151 OFFCURVE",
"578 364 CURVE",
"591 355 OFFCURVE",
"617 349 OFFCURVE",
"642 349 CURVE SMOOTH",
"710 349 OFFCURVE",
"769 406 OFFCURVE",
"769 473 CURVE SMOOTH"
);
},
{
closed = 1;
nodes = (
"138 138 LINE",
"100 175 OFFCURVE",
"84 206 OFFCURVE",
"84 249 CURVE SMOOTH",
"84 325 OFFCURVE",
"132 374 OFFCURVE",
"210 374 CURVE SMOOTH",
"223 374 OFFCURVE",
"237 372 OFFCURVE",
"253 370 CURVE"
);
}
);
width = 699;
}
);
},
{
glyphname = apostrophe;
lastChange = "2018-10-23 22:45:40 +0000";
layers = (
{
anchors = (
{
name = _top;
position = "{58, 560}";
}
);
layerId = master01;
paths = (
{
closed = 1;
nodes = (
"30 652 OFFCURVE",
"19 667 OFFCURVE",
"19 694 CURVE SMOOTH",
"19 721 OFFCURVE",
"40 737 OFFCURVE",
"72 737 CURVE SMOOTH",
"102 737 OFFCURVE",
"120 717 OFFCURVE",
"120 682 CURVE SMOOTH",
"120 635 OFFCURVE",
"84 582 OFFCURVE",
"23 541 CURVE",
"9 557 LINE",
"43 580 OFFCURVE",
"73 616 OFFCURVE",
"73 635 CURVE SMOOTH",
"73 642 OFFCURVE",
"71 643 OFFCURVE",
"52 647 CURVE SMOOTH"
);
}
);
width = 128;
},
{
anchors = (
{
name = _top;
position = "{58, 560}";
}
);
layerId = "5CF0B95A-6341-4D13-90DE-0CF1719C21EC";
paths = (
{
closed = 1;
nodes = (
"30 652 OFFCURVE",
"19 667 OFFCURVE",
"19 694 CURVE SMOOTH",
"19 721 OFFCURVE",
"40 737 OFFCURVE",
"72 737 CURVE SMOOTH",
"102 737 OFFCURVE",
"120 717 OFFCURVE",
"120 682 CURVE SMOOTH",
"120 635 OFFCURVE",
"84 582 OFFCURVE",
"23 541 CURVE",
"9 557 LINE",
"43 580 OFFCURVE",
"73 616 OFFCURVE",
"73 635 CURVE SMOOTH",
"73 642 OFFCURVE",
"71 643 OFFCURVE",
"52 647 CURVE SMOOTH"
);
}
);
width = 128;
}
);
unicode = 02BC;
},
{
glyphname = asciicircum;
lastChange = "2018-10-23 22:45:40 +0000";
layers = (
{
layerId = master01;
paths = (
{
closed = 1;
nodes = (
"352 611 LINE",
"383 611 LINE",
"406 286 LINE",
"375 286 LINE",
"351 558 LINE",
"347 558 LINE",
"100 286 LINE",
"58 286 LINE"
);
}
);
width = 428;
},
{
layerId = "5CF0B95A-6341-4D13-90DE-0CF1719C21EC";
paths = (
{
closed = 1;
nodes = (
"352 611 LINE",
"383 611 LINE",
"406 286 LINE",
"375 286 LINE",
"351 558 LINE",
"347 558 LINE",
"100 286 LINE",
"58 286 LINE"
);
}
);
width = 428;
}
);
unicode = 005E;
},
{
glyphname = asciitilde;
lastChange = "2018-10-23 22:45:40 +0000";
layers = (
{
layerId = master01;
paths = (
{
closed = 1;
nodes = (
"61 237 OFFCURVE",
"104 309 OFFCURVE",
"183 309 CURVE SMOOTH",
"245 309 OFFCURVE",
"290 264 OFFCURVE",
"353 264 CURVE SMOOTH",
"392 264 OFFCURVE",
"410 282 OFFCURVE",
"426 309 CURVE",
"452 309 LINE",
"438 264 OFFCURVE",
"395 192 OFFCURVE",
"316 192 CURVE SMOOTH",
"255 192 OFFCURVE",
"207 237 OFFCURVE",
"144 237 CURVE SMOOTH",
"106 237 OFFCURVE",
"89 218 OFFCURVE",
"73 192 CURVE",
"47 192 LINE"
);
}
);
width = 505;
},
{
layerId = "5CF0B95A-6341-4D13-90DE-0CF1719C21EC";
paths = (
{
closed = 1;
nodes = (
"61 237 OFFCURVE",
"104 309 OFFCURVE",
"183 309 CURVE SMOOTH",
"245 309 OFFCURVE",
"290 264 OFFCURVE",
"353 264 CURVE SMOOTH",
"392 264 OFFCURVE",
"410 282 OFFCURVE",
"426 309 CURVE",
"452 309 LINE",
"438 264 OFFCURVE",
"395 192 OFFCURVE",
"316 192 CURVE SMOOTH",
"255 192 OFFCURVE",
"207 237 OFFCURVE",
"144 237 CURVE SMOOTH",
"106 237 OFFCURVE",
"89 218 OFFCURVE",
"73 192 CURVE",
"47 192 LINE"
);
}
);
width = 505;
}
);
unicode = 007E;
},
{
glyphname = asterisk;
lastChange = "2018-10-23 22:45:40 +0000";
layers = (
{
layerId = master01;
paths = (
{
closed = 1;
nodes = (
"326 497 LINE SMOOTH",
"322 458 OFFCURVE",
"325 428 OFFCURVE",
"319 406 CURVE SMOOTH",
"314 386 OFFCURVE",
"298 372 OFFCURVE",
"278 372 CURVE SMOOTH",
"262 372 OFFCURVE",
"254 380 OFFCURVE",
"254 394 CURVE SMOOTH",
"254 422 OFFCURVE",
"284 457 OFFCURVE",
"300 498 CURVE SMOOTH",
"311 526 LINE",
"282 508 LINE SMOOTH",
"239 482 OFFCURVE",
"213 442 OFFCURVE",
"179 442 CURVE SMOOTH",
"161 442 OFFCURVE",
"151 452 OFFCURVE",
"151 465 CURVE SMOOTH",
"152 515 OFFCURVE",
"218 507 OFFCURVE",
"278 531 CURVE SMOOTH",
"306 543 LINE",
"282 554 LINE SMOOTH",
"242 573 OFFCURVE",
"188 568 OFFCURVE",
"188 599 CURVE SMOOTH",
"188 622 OFFCURVE",
"209 642 OFFCURVE",
"235 642 CURVE SMOOTH",
"269 642 OFFCURVE",
"271 604 OFFCURVE",
"302 575 CURVE SMOOTH",
"320 559 LINE",
"324 588 LINE SMOOTH",
"326 599 OFFCURVE",
"326 608 OFFCURVE",
"326 616 CURVE SMOOTH",
"326 628 OFFCURVE",
"325 638 OFFCURVE",
"325 648 CURVE SMOOTH",
"325 693 OFFCURVE",
"350 714 OFFCURVE",
"372 714 CURVE SMOOTH",
"385 714 OFFCURVE",
"396 706 OFFCURVE",
"396 691 CURVE SMOOTH",
"395 654 OFFCURVE",
"366 633 OFFCURVE",
"349 587 CURVE SMOOTH",
"339 559 LINE",
"365 576 LINE SMOOTH",
"417 611 OFFCURVE",
"437 643 OFFCURVE",
"470 643 CURVE SMOOTH",
"488 643 OFFCURVE",
"497 633 OFFCURVE",
"497 619 CURVE SMOOTH",
"497 568 OFFCURVE",
"430 577 OFFCURVE",
"372 555 CURVE SMOOTH",
"343 544 LINE",
"365 532 LINE SMOOTH",
"408 510 OFFCURVE",
"460 515 OFFCURVE",
"460 486 CURVE SMOOTH",
"460 460 OFFCURVE",
"436 443 OFFCURVE",
"414 443 CURVE SMOOTH",
"379 443 OFFCURVE",
"375 482 OFFCURVE",
"347 509 CURVE SMOOTH",
"329 526 LINE"
);
}
);
width = 419;
},
{
layerId = "5CF0B95A-6341-4D13-90DE-0CF1719C21EC";
paths = (
{
closed = 1;
nodes = (
"326 497 LINE SMOOTH",
"322 458 OFFCURVE",
"325 428 OFFCURVE",
"319 406 CURVE SMOOTH",
"314 386 OFFCURVE",
"298 372 OFFCURVE",
"278 372 CURVE SMOOTH",
"262 372 OFFCURVE",
"254 380 OFFCURVE",
"254 394 CURVE SMOOTH",
"254 422 OFFCURVE",
"284 457 OFFCURVE",
"300 498 CURVE SMOOTH",
"311 526 LINE",
"282 508 LINE SMOOTH",
"239 482 OFFCURVE",
"213 442 OFFCURVE",
"179 442 CURVE SMOOTH",
"161 442 OFFCURVE",
"151 452 OFFCURVE",
"151 465 CURVE SMOOTH",
"152 515 OFFCURVE",
"218 507 OFFCURVE",
"278 531 CURVE SMOOTH",
"306 543 LINE",
"282 554 LINE SMOOTH",
"242 573 OFFCURVE",
"188 568 OFFCURVE",
"188 599 CURVE SMOOTH",
"188 622 OFFCURVE",
"209 642 OFFCURVE",
"235 642 CURVE SMOOTH",
"269 642 OFFCURVE",
"271 604 OFFCURVE",
"302 575 CURVE SMOOTH",
"320 559 LINE",
"324 588 LINE SMOOTH",
"326 599 OFFCURVE",
"326 608 OFFCURVE",
"326 616 CURVE SMOOTH",
"326 628 OFFCURVE",
"325 638 OFFCURVE",
"325 648 CURVE SMOOTH",
"325 693 OFFCURVE",
"350 714 OFFCURVE",
"372 714 CURVE SMOOTH",
"385 714 OFFCURVE",
"396 706 OFFCURVE",
"396 691 CURVE SMOOTH",
"395 654 OFFCURVE",
"366 633 OFFCURVE",
"349 587 CURVE SMOOTH",
"339 559 LINE",
"365 576 LINE SMOOTH",
"417 611 OFFCURVE",
"437 643 OFFCURVE",
"470 643 CURVE SMOOTH",
"488 643 OFFCURVE",
"497 633 OFFCURVE",
"497 619 CURVE SMOOTH",
"497 568 OFFCURVE",
"430 577 OFFCURVE",
"372 555 CURVE SMOOTH",
"343 544 LINE",
"365 532 LINE SMOOTH",
"408 510 OFFCURVE",
"460 515 OFFCURVE",
"460 486 CURVE SMOOTH",
"460 460 OFFCURVE",
"436 443 OFFCURVE",
"414 443 CURVE SMOOTH",
"379 443 OFFCURVE",
"375 482 OFFCURVE",
"347 509 CURVE SMOOTH",
"329 526 LINE"
);
}
);
width = 419;
}
);
unicode = 002A;
},
{
glyphname = at;
lastChange = "2018-10-23 22:45:40 +0000";
layers = (
{
layerId = master01;
paths = (
{
closed = 1;
nodes = (
"507 -136 OFFCURVE",
"447 -153 OFFCURVE",
"366 -153 CURVE SMOOTH",
"205 -153 OFFCURVE",
"36 -61 OFFCURVE",
"36 145 CURVE SMOOTH",
"36 376 OFFCURVE",
"221 525 OFFCURVE",
"423 525 CURVE SMOOTH",
"605 525 OFFCURVE",
"712 401 OFFCURVE",
"712 270 CURVE SMOOTH",
"712 134 OFFCURVE",
"628 18 OFFCURVE",
"513 18 CURVE SMOOTH",
"463 18 OFFCURVE",
"432 45 OFFCURVE",
"432 92 CURVE SMOOTH",
"432 98 OFFCURVE",
"433 105 OFFCURVE",
"436 109 CURVE",
"433 110 LINE",
"389 45 OFFCURVE",
"343 29 OFFCURVE",
"301 29 CURVE SMOOTH",
"241 29 OFFCURVE",
"205 69 OFFCURVE",
"205 141 CURVE SMOOTH",
"205 235 OFFCURVE",
"313 387 OFFCURVE",
"432 387 CURVE SMOOTH",
"458 387 OFFCURVE",
"483 372 OFFCURVE",
"495 353 CURVE",
"498 353 LINE",
"507 387 LINE",
"576 387 LINE",
"507 138 LINE SMOOTH",
"502 124 OFFCURVE",
"501 112 OFFCURVE",
"501 102 CURVE SMOOTH",
"501 75 OFFCURVE",
"514 61 OFFCURVE",
"542 61 CURVE SMOOTH",
"602 61 OFFCURVE",
"669 132 OFFCURVE",
"669 266 CURVE SMOOTH",
"669 401 OFFCURVE",
"559 486 OFFCURVE",
"415 486 CURVE SMOOTH",
"227 486 OFFCURVE",
"114 323 OFFCURVE",
"114 146 CURVE SMOOTH",
"114 33 OFFCURVE",
"181 -115 OFFCURVE",
"396 -115 CURVE SMOOTH",
"466 -115 OFFCURVE",
"513 -101 OFFCURVE",
"548 -81 CURVE",
"557 -106 LINE"
);
},
{
closed = 1;
nodes = (
"393 77 OFFCURVE",
"470 213 OFFCURVE",
"470 302 CURVE SMOOTH",
"470 329 OFFCURVE",
"460 350 OFFCURVE",
"433 350 CURVE SMOOTH",
"372 350 OFFCURVE",
"280 216 OFFCURVE",
"280 138 CURVE SMOOTH",
"280 94 OFFCURVE",
"294 77 OFFCURVE",
"326 77 CURVE SMOOTH"
);
}
);
width = 791;
},
{
layerId = "5CF0B95A-6341-4D13-90DE-0CF1719C21EC";
paths = (
{
closed = 1;
nodes = (
"507 -136 OFFCURVE",
"447 -153 OFFCURVE",
"366 -153 CURVE SMOOTH",
"205 -153 OFFCURVE",
"36 -61 OFFCURVE",
"36 145 CURVE SMOOTH",
"36 376 OFFCURVE",
"221 525 OFFCURVE",
"423 525 CURVE SMOOTH",
"605 525 OFFCURVE",
"712 401 OFFCURVE",
"712 270 CURVE SMOOTH",
"712 134 OFFCURVE",
"628 18 OFFCURVE",
"513 18 CURVE SMOOTH",
"463 18 OFFCURVE",
"432 45 OFFCURVE",
"432 92 CURVE SMOOTH",
"432 98 OFFCURVE",
"433 105 OFFCURVE",
"436 109 CURVE",
"433 110 LINE",
"389 45 OFFCURVE",
"343 29 OFFCURVE",
"301 29 CURVE SMOOTH",
"241 29 OFFCURVE",
"205 69 OFFCURVE",
"205 141 CURVE SMOOTH",
"205 235 OFFCURVE",
"313 387 OFFCURVE",
"432 387 CURVE SMOOTH",
"458 387 OFFCURVE",
"483 372 OFFCURVE",
"495 353 CURVE",
"498 353 LINE",
"507 387 LINE",
"576 387 LINE",
"507 138 LINE SMOOTH",
"502 124 OFFCURVE",
"501 112 OFFCURVE",
"501 102 CURVE SMOOTH",
"501 75 OFFCURVE",
"514 61 OFFCURVE",
"542 61 CURVE SMOOTH",
"602 61 OFFCURVE",
"669 132 OFFCURVE",
"669 266 CURVE SMOOTH",
"669 401 OFFCURVE",
"559 486 OFFCURVE",
"415 486 CURVE SMOOTH",
"227 486 OFFCURVE",
"114 323 OFFCURVE",
"114 146 CURVE SMOOTH",
"114 33 OFFCURVE",
"181 -115 OFFCURVE",
"396 -115 CURVE SMOOTH",
"466 -115 OFFCURVE",
"513 -101 OFFCURVE",
"548 -81 CURVE",
"557 -106 LINE"
);
},
{
closed = 1;
nodes = (
"393 77 OFFCURVE",
"470 213 OFFCURVE",
"470 302 CURVE SMOOTH",
"470 329 OFFCURVE",
"460 350 OFFCURVE",
"433 350 CURVE SMOOTH",
"372 350 OFFCURVE",
"280 216 OFFCURVE",
"280 138 CURVE SMOOTH",
"280 94 OFFCURVE",
"294 77 OFFCURVE",
"326 77 CURVE SMOOTH"
);
}
);
width = 791;
}
);
unicode = 0040;
},
{
glyphname = b;
lastChange = "2018-10-23 22:45:40 +0000";
layers = (
{
layerId = master01;
paths = (
{
closed = 1;
nodes = (
"338 705 LINE",
"217 397 LINE",
"221 397 LINE",
"260 440 OFFCURVE",
"307 464 OFFCURVE",
"351 464 CURVE SMOOTH",
"415 464 OFFCURVE",
"458 417 OFFCURVE",
"458 332 CURVE SMOOTH",
"458 166 OFFCURVE",
"304 -9 OFFCURVE",
"152 -9 CURVE SMOOTH",
"72 -9 OFFCURVE",
"29 37 OFFCURVE",
"29 113 CURVE SMOOTH",
"29 142 OFFCURVE",
"37 176 OFFCURVE",
"52 214 CURVE SMOOTH",
"243 682 LINE",
"176 692 LINE",
"173 705 LINE {name = hr00;}"
);
},
{
closed = 1;
nodes = (
"138 218 OFFCURVE",
"100 123 OFFCURVE",
"100 71 CURVE SMOOTH",
"100 40 OFFCURVE",
"119 22 OFFCURVE",
"145 22 CURVE SMOOTH",
"232 22 OFFCURVE",
"374 231 OFFCURVE",
"374 358 CURVE SMOOTH",
"374 403 OFFCURVE",
"357 434 OFFCURVE",
"329 434 CURVE SMOOTH",
"282 434 OFFCURVE",
"207 360 OFFCURVE",
"163 267 CURVE SMOOTH"
);
}
);
width = 495;
},
{
layerId = "5CF0B95A-6341-4D13-90DE-0CF1719C21EC";
paths = (
{
closed = 1;
nodes = (
"338 705 LINE",
"217 397 LINE",
"221 397 LINE",
"260 440 OFFCURVE",
"307 464 OFFCURVE",
"351 464 CURVE SMOOTH",
"415 464 OFFCURVE",
"458 417 OFFCURVE",
"458 332 CURVE SMOOTH",
"458 166 OFFCURVE",
"304 -9 OFFCURVE",
"152 -9 CURVE SMOOTH",
"72 -9 OFFCURVE",
"29 37 OFFCURVE",
"29 113 CURVE SMOOTH",
"29 142 OFFCURVE",
"37 176 OFFCURVE",
"52 214 CURVE SMOOTH",
"243 682 LINE",
"176 692 LINE",
"173 705 LINE {name = hr00;}"
);
},
{
closed = 1;
nodes = (
"138 218 OFFCURVE",
"100 123 OFFCURVE",
"100 71 CURVE SMOOTH",
"100 40 OFFCURVE",
"119 22 OFFCURVE",
"145 22 CURVE SMOOTH",
"232 22 OFFCURVE",
"374 231 OFFCURVE",
"374 358 CURVE SMOOTH",
"374 403 OFFCURVE",
"357 434 OFFCURVE",
"329 434 CURVE SMOOTH",
"282 434 OFFCURVE",
"207 360 OFFCURVE",
"163 267 CURVE SMOOTH"
);
}
);
width = 495;
}
);
rightKerningGroup = b;
unicode = 0062;
userData = {
com.typemytype.robofont.guides = (
{
angle = 0;
isGlobal = 0;
magnetic = 5;
x = 0;
y = 508;
}
);
};
},
{
glyphname = backslash;
lastChange = "2018-10-23 22:45:40 +0000";
layers = (
{
layerId = master01;
paths = (
{
closed = 1;
nodes = (
"267 704 LINE",
"207 704 LINE",
"292 -145 LINE",
"351 -145 LINE"
);
}
);
width = 539;
},
{
layerId = "5CF0B95A-6341-4D13-90DE-0CF1719C21EC";
paths = (
{
closed = 1;
nodes = (
"267 704 LINE",
"207 704 LINE",
"292 -145 LINE",
"351 -145 LINE"
);
}
);
width = 539;
}
);
unicode = 005C;
},
{
glyphname = bar;
lastChange = "2018-10-23 22:45:40 +0000";
layers = (
{
layerId = master01;
paths = (
{
closed = 1;
nodes = (
"311 704 LINE",
"251 704 LINE",
"-24 -146 LINE",
"35 -146 LINE"
);
}
);
width = 267;
},
{
layerId = "5CF0B95A-6341-4D13-90DE-0CF1719C21EC";
paths = (
{
closed = 1;
nodes = (
"311 704 LINE",
"251 704 LINE",
"-24 -146 LINE",
"35 -146 LINE"
);
}
);
width = 267;
}
);
unicode = 007C;
},
{
glyphname = bar.tnum;
lastChange = "2018-10-23 22:45:40 +0000";
layers = (
{
layerId = master01;
paths = (
{
closed = 1;
nodes = (
"314 704 LINE",
"254 704 LINE",
"-22 -146 LINE",
"38 -146 LINE"
);
}
);
width = 292;
},
{
layerId = "5CF0B95A-6341-4D13-90DE-0CF1719C21EC";
paths = (
{
closed = 1;
nodes = (
"314 704 LINE",
"254 704 LINE",
"-22 -146 LINE",
"38 -146 LINE"
);
}
);
width = 292;
}
);
},
{
glyphname = braceleft;
lastChange = "2018-10-23 22:45:40 +0000";
layers = (
{
layerId = master01;
paths = (
{
closed = 1;
nodes = (
"114 -163 OFFCURVE",
"94 -167 OFFCURVE",
"71 -167 CURVE SMOOTH",
"15 -167 OFFCURVE",
"-12 -150 OFFCURVE",
"-12 -110 CURVE SMOOTH",
"-12 -49 OFFCURVE",
"60 65 OFFCURVE",
"93 167 CURVE SMOOTH",
"101 192 OFFCURVE",
"105 212 OFFCURVE",
"105 228 CURVE SMOOTH",
"105 261 OFFCURVE",
"86 275 OFFCURVE",
"45 275 CURVE",
"52 295 LINE",
"111 295 OFFCURVE",
"144 327 OFFCURVE",
"168 398 CURVE SMOOTH",
"189 464 OFFCURVE",
"194 551 OFFCURVE",
"212 603 CURVE SMOOTH",
"234 673 OFFCURVE",
"290 712 OFFCURVE",
"364 712 CURVE SMOOTH",
"384 712 OFFCURVE",
"400 708 OFFCURVE",
"415 701 CURVE",
"402 679 LINE",
"384 682 OFFCURVE",
"378 683 OFFCURVE",
"368 683 CURVE SMOOTH",
"331 683 OFFCURVE",
"301 651 OFFCURVE",
"286 601 CURVE SMOOTH",
"270 554 OFFCURVE",
"261 463 OFFCURVE",
"241 399 CURVE SMOOTH",
"221 338 OFFCURVE",
"190 302 OFFCURVE",
"142 286 CURVE",
"141 282 LINE",
"166 271 OFFCURVE",
"178 255 OFFCURVE",
"178 227 CURVE SMOOTH",
"178 171 OFFCURVE",
"95 18 OFFCURVE",
"71 -56 CURVE SMOOTH",
"65 -74 OFFCURVE",
"63 -89 OFFCURVE",
"63 -101 CURVE SMOOTH",
"63 -125 OFFCURVE",
"76 -135 OFFCURVE",
"102 -135 CURVE SMOOTH",
"115 -135 OFFCURVE",
"127 -133 OFFCURVE",
"139 -130 CURVE",
"137 -155 LINE"
);
}
);
width = 309;
},
{
layerId = "5CF0B95A-6341-4D13-90DE-0CF1719C21EC";
paths = (
{
closed = 1;
nodes = (
"114 -163 OFFCURVE",
"94 -167 OFFCURVE",
"71 -167 CURVE SMOOTH",
"15 -167 OFFCURVE",
"-12 -150 OFFCURVE",
"-12 -110 CURVE SMOOTH",
"-12 -49 OFFCURVE",
"60 65 OFFCURVE",
"93 167 CURVE SMOOTH",
"101 192 OFFCURVE",
"105 212 OFFCURVE",
"105 228 CURVE SMOOTH",
"105 261 OFFCURVE",
"86 275 OFFCURVE",
"45 275 CURVE",
"52 295 LINE",
"111 295 OFFCURVE",
"144 327 OFFCURVE",
"168 398 CURVE SMOOTH",
"189 464 OFFCURVE",
"194 551 OFFCURVE",
"212 603 CURVE SMOOTH",
"234 673 OFFCURVE",
"290 712 OFFCURVE",
"364 712 CURVE SMOOTH",
"384 712 OFFCURVE",
"400 708 OFFCURVE",
"415 701 CURVE",
"402 679 LINE",
"384 682 OFFCURVE",
"378 683 OFFCURVE",
"368 683 CURVE SMOOTH",
"331 683 OFFCURVE",
"301 651 OFFCURVE",
"286 601 CURVE SMOOTH",
"270 554 OFFCURVE",
"261 463 OFFCURVE",
"241 399 CURVE SMOOTH",
"221 338 OFFCURVE",
"190 302 OFFCURVE",
"142 286 CURVE",
"141 282 LINE",
"166 271 OFFCURVE",
"178 255 OFFCURVE",
"178 227 CURVE SMOOTH",
"178 171 OFFCURVE",
"95 18 OFFCURVE",
"71 -56 CURVE SMOOTH",
"65 -74 OFFCURVE",
"63 -89 OFFCURVE",
"63 -101 CURVE SMOOTH",
"63 -125 OFFCURVE",
"76 -135 OFFCURVE",
"102 -135 CURVE SMOOTH",
"115 -135 OFFCURVE",
"127 -133 OFFCURVE",
"139 -130 CURVE",
"137 -155 LINE"
);
}
);
width = 309;
}
);
unicode = 007B;
},
{
glyphname = braceright;
lastChange = "2018-10-23 22:45:40 +0000";
layers = (
{
layerId = master01;
paths = (
{
closed = 1;
nodes = (
"-70 -133 OFFCURVE",
"-59 -135 OFFCURVE",
"-46 -135 CURVE SMOOTH",
"52 -135 OFFCURVE",
"41 28 OFFCURVE",
"89 174 CURVE SMOOTH",
"108 235 OFFCURVE",
"137 265 OFFCURVE",
"186 282 CURVE",
"187 286 LINE",
"163 296 OFFCURVE",
"151 315 OFFCURVE",
"151 344 CURVE SMOOTH",
"151 408 OFFCURVE",
"228 535 OFFCURVE",
"249 601 CURVE SMOOTH",
"255 616 OFFCURVE",
"256 630 OFFCURVE",
"256 642 CURVE SMOOTH",
"256 667 OFFCURVE",
"244 683 OFFCURVE",
"218 683 CURVE SMOOTH",
"209 683 OFFCURVE",
"202 682 OFFCURVE",
"182 679 CURVE",
"184 701 LINE",
"204 708 OFFCURVE",
"223 712 OFFCURVE",
"243 712 CURVE SMOOTH",
"301 712 OFFCURVE",
"331 689 OFFCURVE",
"331 646 CURVE SMOOTH",
"331 594 OFFCURVE",
"265 489 OFFCURVE",
"235 398 CURVE SMOOTH",
"228 376 OFFCURVE",
"224 358 OFFCURVE",
"224 343 CURVE SMOOTH",
"224 310 OFFCURVE",
"243 295 OFFCURVE",
"284 295 CURVE",
"277 275 LINE",
"216 275 OFFCURVE",
"185 245 OFFCURVE",
"160 167 CURVE SMOOTH",
"135 91 OFFCURVE",
"128 2 OFFCURVE",
"108 -60 CURVE SMOOTH",
"83 -136 OFFCURVE",
"39 -167 OFFCURVE",
"-36 -167 CURVE SMOOTH",
"-58 -167 OFFCURVE",
"-75 -163 OFFCURVE",
"-93 -155 CURVE",
"-80 -130 LINE"
);
}
);
width = 308;
},
{
layerId = "5CF0B95A-6341-4D13-90DE-0CF1719C21EC";
paths = (
{
closed = 1;
nodes = (
"-70 -133 OFFCURVE",
"-59 -135 OFFCURVE",
"-46 -135 CURVE SMOOTH",
"52 -135 OFFCURVE",
"41 28 OFFCURVE",
"89 174 CURVE SMOOTH",
"108 235 OFFCURVE",
"137 265 OFFCURVE",
"186 282 CURVE",
"187 286 LINE",
"163 296 OFFCURVE",
"151 315 OFFCURVE",
"151 344 CURVE SMOOTH",
"151 408 OFFCURVE",
"228 535 OFFCURVE",
"249 601 CURVE SMOOTH",
"255 616 OFFCURVE",
"256 630 OFFCURVE",
"256 642 CURVE SMOOTH",
"256 667 OFFCURVE",
"244 683 OFFCURVE",
"218 683 CURVE SMOOTH",
"209 683 OFFCURVE",
"202 682 OFFCURVE",
"182 679 CURVE",
"184 701 LINE",
"204 708 OFFCURVE",
"223 712 OFFCURVE",
"243 712 CURVE SMOOTH",
"301 712 OFFCURVE",
"331 689 OFFCURVE",
"331 646 CURVE SMOOTH",
"331 594 OFFCURVE",
"265 489 OFFCURVE",
"235 398 CURVE SMOOTH",
"228 376 OFFCURVE",
"224 358 OFFCURVE",
"224 343 CURVE SMOOTH",
"224 310 OFFCURVE",
"243 295 OFFCURVE",
"284 295 CURVE",
"277 275 LINE",
"216 275 OFFCURVE",
"185 245 OFFCURVE",
"160 167 CURVE SMOOTH",
"135 91 OFFCURVE",
"128 2 OFFCURVE",
"108 -60 CURVE SMOOTH",
"83 -136 OFFCURVE",
"39 -167 OFFCURVE",
"-36 -167 CURVE SMOOTH",
"-58 -167 OFFCURVE",
"-75 -163 OFFCURVE",
"-93 -155 CURVE",
"-80 -130 LINE"
);
}
);
width = 308;
}
);
unicode = 007D;
},
{
glyphname = bracketleft;
lastChange = "2018-10-23 22:45:40 +0000";
layers = (
{
layerId = master01;
paths = (
{
closed = 1;
nodes = (
"251 705 LINE",
"422 705 LINE",
"414 678 LINE",
"312 678 LINE",
"49 -134 LINE",
"150 -134 LINE",
"141 -161 LINE",
"-29 -161 LINE"
);
}
);
width = 313;
},
{
layerId = "5CF0B95A-6341-4D13-90DE-0CF1719C21EC";
paths = (
{
closed = 1;
nodes = (
"251 705 LINE",
"422 705 LINE",
"414 678 LINE",
"312 678 LINE",
"49 -134 LINE",
"150 -134 LINE",
"141 -161 LINE",
"-29 -161 LINE"
);
}
);
width = 313;
}
);
unicode = 005B;
},
{
glyphname = bracketright;
lastChange = "2018-10-23 22:45:40 +0000";
layers = (
{
layerId = master01;
paths = (
{
closed = 1;
nodes = (
"-88 -134 LINE",
"14 -134 LINE",
"277 678 LINE",
"175 678 LINE",
"184 705 LINE",
"355 705 LINE",
"74 -161 LINE",
"-96 -161 LINE"
);
}
);
width = 312;
},
{
layerId = "5CF0B95A-6341-4D13-90DE-0CF1719C21EC";
paths = (
{
closed = 1;
nodes = (
"-88 -134 LINE",
"14 -134 LINE",
"277 678 LINE",
"175 678 LINE",
"184 705 LINE",
"355 705 LINE",
"74 -161 LINE",
"-96 -161 LINE"
);
}
);
width = 312;
}
);
unicode = 005D;
},
{
glyphname = breve;
lastChange = "2018-10-23 22:45:40 +0000";
layers = (
{
anchors = (
{
name = _top;
position = "{87, 560}";
}
);
layerId = master01;
paths = (
{
closed = 1;
nodes = (
"48 644 OFFCURVE",
"71 624 OFFCURVE",
"115 624 CURVE SMOOTH",
"153 624 OFFCURVE",
"191 640 OFFCURVE",
"227 679 CURVE",
"261 679 LINE",
"190 573 OFFCURVE",
"123 560 OFFCURVE",
"86 560 CURVE SMOOTH",
"46 560 OFFCURVE",
"9 579 OFFCURVE",
"9 631 CURVE SMOOTH",
"9 645 OFFCURVE",
"11 660 OFFCURVE",
"17 679 CURVE",
"47 679 LINE"
);
}
);
width = 270;
},
{
anchors = (
{
name = _top;
position = "{87, 560}";
}
);
layerId = "5CF0B95A-6341-4D13-90DE-0CF1719C21EC";
paths = (
{
closed = 1;
nodes = (
"48 644 OFFCURVE",
"71 624 OFFCURVE",
"115 624 CURVE SMOOTH",
"153 624 OFFCURVE",
"191 640 OFFCURVE",
"227 679 CURVE",
"261 679 LINE",
"190 573 OFFCURVE",
"123 560 OFFCURVE",
"86 560 CURVE SMOOTH",
"46 560 OFFCURVE",
"9 579 OFFCURVE",
"9 631 CURVE SMOOTH",
"9 645 OFFCURVE",
"11 660 OFFCURVE",
"17 679 CURVE",
"47 679 LINE"
);
}
);
width = 270;
}
);
unicode = 02D8;
},
{
glyphname = breve.cap;
lastChange = "2018-10-23 22:45:40 +0000";
layers = (
{
anchors = (
{
name = _topcap;
position = "{87, 714}";
}
);
layerId = master01;
paths = (
{
closed = 1;
nodes = (
"48 790 OFFCURVE",
"71 770 OFFCURVE",
"115 770 CURVE SMOOTH",
"153 770 OFFCURVE",
"191 786 OFFCURVE",
"227 826 CURVE",
"261 826 LINE",
"190 719 OFFCURVE",
"123 706 OFFCURVE",
"86 706 CURVE SMOOTH",
"46 706 OFFCURVE",
"9 725 OFFCURVE",
"9 777 CURVE SMOOTH",
"9 791 OFFCURVE",
"11 807 OFFCURVE",
"17 826 CURVE",
"47 826 LINE"
);
}
);
width = 270;
},
{
anchors = (
{
name = _topcap;
position = "{87, 714}";
}
);
layerId = "5CF0B95A-6341-4D13-90DE-0CF1719C21EC";
paths = (
{
closed = 1;
nodes = (
"48 790 OFFCURVE",
"71 770 OFFCURVE",
"115 770 CURVE SMOOTH",
"153 770 OFFCURVE",
"191 786 OFFCURVE",
"227 826 CURVE",
"261 826 LINE",
"190 719 OFFCURVE",
"123 706 OFFCURVE",
"86 706 CURVE SMOOTH",
"46 706 OFFCURVE",
"9 725 OFFCURVE",
"9 777 CURVE SMOOTH",
"9 791 OFFCURVE",
"11 807 OFFCURVE",
"17 826 CURVE",
"47 826 LINE"
);
}
);
width = 270;
}
);
},
{
glyphname = brokenbar;
lastChange = "2018-10-23 22:45:40 +0000";
layers = (
{
layerId = master01;
paths = (
{
closed = 1;
nodes = (
"297 704 LINE",
"239 704 LINE",
"132 372 LINE",
"189 372 LINE"
);
},
{
closed = 1;
nodes = (
"128 186 LINE",
"71 186 LINE",
"-36 -147 LINE",
"21 -147 LINE"
);
}
);
width = 225;
},
{
layerId = "5CF0B95A-6341-4D13-90DE-0CF1719C21EC";
paths = (
{
closed = 1;
nodes = (
"297 704 LINE",
"239 704 LINE",
"132 372 LINE",
"189 372 LINE"
);
},
{
closed = 1;
nodes = (
"128 186 LINE",
"71 186 LINE",
"-36 -147 LINE",
"21 -147 LINE"
);
}
);
width = 225;
}
);
unicode = 00A6;
},
{
glyphname = bullet;
lastChange = "2018-10-23 22:45:40 +0000";
layers = (
{
layerId = master01;
paths = (
{
closed = 1;
nodes = (
"269 421 OFFCURVE",
"316 384 OFFCURVE",
"316 334 CURVE SMOOTH",
"316 278 OFFCURVE",
"257 224 OFFCURVE",
"198 224 CURVE SMOOTH",
"138 224 OFFCURVE",
"100 260 OFFCURVE",
"100 314 CURVE SMOOTH",
"100 373 OFFCURVE",
"155 421 OFFCURVE",
"216 421 CURVE SMOOTH {name = hr00;}"
);
}
);
width = 367;
},
{
layerId = "5CF0B95A-6341-4D13-90DE-0CF1719C21EC";
paths = (
{
closed = 1;
nodes = (
"269 421 OFFCURVE",
"316 384 OFFCURVE",
"316 334 CURVE SMOOTH",
"316 278 OFFCURVE",
"257 224 OFFCURVE",
"198 224 CURVE SMOOTH",
"138 224 OFFCURVE",
"100 260 OFFCURVE",
"100 314 CURVE SMOOTH",
"100 373 OFFCURVE",
"155 421 OFFCURVE",
"216 421 CURVE SMOOTH {name = hr00;}"
);
}
);
width = 367;
}
);
unicode = 2022;
},
{
glyphname = c;
lastChange = "2018-10-23 22:45:40 +0000";
layers = (
{
anchors = (
{
name = bottom;
position = "{124, 0}";
},
{
name = top;
position = "{364, 560}";
}
);
layerId = master01;
paths = (
{
closed = 1;
nodes = (
"354 438 OFFCURVE",
"365 425 OFFCURVE",
"370 393 CURVE SMOOTH",
"374 365 OFFCURVE",
"387 352 OFFCURVE",
"409 352 CURVE SMOOTH {name = hr01;}",
"432 352 OFFCURVE",
"447 366 OFFCURVE",
"447 386 CURVE SMOOTH",
"447 429 OFFCURVE",
"402 464 OFFCURVE",
"343 464 CURVE SMOOTH",
"286 464 OFFCURVE",
"214 436 OFFCURVE",
"152 388 CURVE SMOOTH",
"62 317 OFFCURVE",
"9 217 OFFCURVE",
"9 123 CURVE SMOOTH",
"9 37 OFFCURVE",
"46 -9 OFFCURVE",
"120 -9 CURVE SMOOTH",
"195 -9 OFFCURVE",
"274 38 OFFCURVE",
"349 126 CURVE",
"330 137 LINE",
"255 60 OFFCURVE",
"193 22 OFFCURVE",
"144 22 CURVE SMOOTH",
"108 22 OFFCURVE",
"94 42 OFFCURVE",
"94 85 CURVE SMOOTH",
"94 218 OFFCURVE",
"230 438 OFFCURVE",
"333 438 CURVE SMOOTH"
);
}
);
width = 428;
},
{
anchors = (
{
name = bottom;
position = "{124, 0}";
},
{
name = top;
position = "{364, 560}";
}
);
layerId = "5CF0B95A-6341-4D13-90DE-0CF1719C21EC";
paths = (
{
closed = 1;
nodes = (
"354 438 OFFCURVE",
"365 425 OFFCURVE",
"370 393 CURVE SMOOTH",
"374 365 OFFCURVE",
"387 352 OFFCURVE",
"409 352 CURVE SMOOTH {name = hr01;}",
"432 352 OFFCURVE",
"447 366 OFFCURVE",
"447 386 CURVE SMOOTH",
"447 429 OFFCURVE",
"402 464 OFFCURVE",
"343 464 CURVE SMOOTH",
"286 464 OFFCURVE",
"214 436 OFFCURVE",
"152 388 CURVE SMOOTH",
"62 317 OFFCURVE",
"9 217 OFFCURVE",
"9 123 CURVE SMOOTH",
"9 37 OFFCURVE",
"46 -9 OFFCURVE",
"120 -9 CURVE SMOOTH",
"195 -9 OFFCURVE",
"274 38 OFFCURVE",
"349 126 CURVE",
"330 137 LINE",
"255 60 OFFCURVE",
"193 22 OFFCURVE",
"144 22 CURVE SMOOTH",
"108 22 OFFCURVE",
"94 42 OFFCURVE",
"94 85 CURVE SMOOTH",
"94 218 OFFCURVE",
"230 438 OFFCURVE",
"333 438 CURVE SMOOTH"
);
}
);
width = 428;
}
);
leftKerningGroup = c;
rightKerningGroup = c;
unicode = 0063;
},
{
glyphname = c_p;
lastChange = "2018-10-23 22:45:40 +0000";
layers = (
{
components = (
{
name = c;
}
);
layerId = master01;
paths = (
{
closed = 1;
nodes = (
"691 584 OFFCURVE",
"691 581 OFFCURVE",
"690 577 CURVE",
"673 568 OFFCURVE",
"650 563 OFFCURVE",
"628 563 CURVE SMOOTH",
"542 563 OFFCURVE",
"477 640 OFFCURVE",
"391 640 CURVE SMOOTH",
"338 640 OFFCURVE",
"305 610 OFFCURVE",
"305 561 CURVE SMOOTH",
"305 513 OFFCURVE",
"335 470 OFFCURVE",
"391 433 CURVE",
"414 444 LINE",
"369 476 OFFCURVE",
"353 495 OFFCURVE",
"353 525 CURVE SMOOTH",
"353 562 OFFCURVE",
"380 585 OFFCURVE",
"427 585 CURVE SMOOTH",
"494 585 OFFCURVE",
"532 538 OFFCURVE",
"616 538 CURVE SMOOTH",
"640 538 OFFCURVE",
"662 541 OFFCURVE",
"682 548 CURVE",
"670 519 OFFCURVE",
"645 490 OFFCURVE",
"607 458 CURVE",
"568 452 OFFCURVE",
"530 437 OFFCURVE",
"501 418 CURVE",
"507 401 LINE",
"527 415 OFFCURVE",
"557 425 OFFCURVE",
"598 433 CURVE",
"331 -192 LINE",
"262 -202 LINE",
"262 -215 LINE",
"508 -215 LINE",
"508 -200 LINE",
"421 -189 LINE",
"504 11 LINE",
"517 9 OFFCURVE",
"533 9 OFFCURVE",
"548 9 CURVE SMOOTH",
"717 9 OFFCURVE",
"875 146 OFFCURVE",
"875 294 CURVE SMOOTH",
"875 390 OFFCURVE",
"809 452 OFFCURVE",
"692 464 CURVE",
"739 587 LINE",
"752 604 OFFCURVE",
"758 621 OFFCURVE",
"758 638 CURVE SMOOTH",
"758 659 OFFCURVE",
"747 671 OFFCURVE",
"728 671 CURVE SMOOTH",
"704 671 OFFCURVE",
"691 653 OFFCURVE",
"691 620 CURVE SMOOTH",
"691 587 LINE SMOOTH {name = hr00;}"
);
},
{
closed = 1;
nodes = (
"679 434 OFFCURVE",
"685 437 OFFCURVE",
"697 437 CURVE SMOOTH",
"752 437 OFFCURVE",
"786 390 OFFCURVE",
"786 315 CURVE SMOOTH",
"786 172 OFFCURVE",
"663 34 OFFCURVE",
"536 34 CURVE SMOOTH",
"521 34 OFFCURVE",
"519 34 OFFCURVE",
"513 34 CURVE",
"677 427 LINE SMOOTH"
);
}
);
width = 919;
},
{
components = (
{
name = c;
}
);
layerId = "5CF0B95A-6341-4D13-90DE-0CF1719C21EC";
paths = (
{
closed = 1;
nodes = (
"691 584 OFFCURVE",
"691 581 OFFCURVE",
"690 577 CURVE",
"673 568 OFFCURVE",
"650 563 OFFCURVE",
"628 563 CURVE SMOOTH",
"542 563 OFFCURVE",
"477 640 OFFCURVE",
"391 640 CURVE SMOOTH",
"338 640 OFFCURVE",
"305 610 OFFCURVE",
"305 561 CURVE SMOOTH",
"305 513 OFFCURVE",
"335 470 OFFCURVE",
"391 433 CURVE",
"414 444 LINE",
"369 476 OFFCURVE",
"353 495 OFFCURVE",
"353 525 CURVE SMOOTH",
"353 562 OFFCURVE",
"380 585 OFFCURVE",
"427 585 CURVE SMOOTH",
"494 585 OFFCURVE",
"532 538 OFFCURVE",
"616 538 CURVE SMOOTH",
"640 538 OFFCURVE",
"662 541 OFFCURVE",
"682 548 CURVE",
"670 519 OFFCURVE",
"645 490 OFFCURVE",
"607 458 CURVE",
"568 452 OFFCURVE",
"530 437 OFFCURVE",
"501 418 CURVE",
"507 401 LINE",
"527 415 OFFCURVE",
"557 425 OFFCURVE",
"598 433 CURVE",
"331 -192 LINE",
"262 -202 LINE",
"262 -215 LINE",
"508 -215 LINE",
"508 -200 LINE",
"421 -189 LINE",
"504 11 LINE",
"517 9 OFFCURVE",
"533 9 OFFCURVE",
"548 9 CURVE SMOOTH",
"717 9 OFFCURVE",
"875 146 OFFCURVE",
"875 294 CURVE SMOOTH",
"875 390 OFFCURVE",
"809 452 OFFCURVE",
"692 464 CURVE",
"739 587 LINE",
"752 604 OFFCURVE",
"758 621 OFFCURVE",
"758 638 CURVE SMOOTH",
"758 659 OFFCURVE",
"747 671 OFFCURVE",
"728 671 CURVE SMOOTH",
"704 671 OFFCURVE",
"691 653 OFFCURVE",
"691 620 CURVE SMOOTH",
"691 587 LINE SMOOTH {name = hr00;}"
);
},
{
closed = 1;
nodes = (
"679 434 OFFCURVE",
"685 437 OFFCURVE",
"697 437 CURVE SMOOTH",
"752 437 OFFCURVE",
"786 390 OFFCURVE",
"786 315 CURVE SMOOTH",
"786 172 OFFCURVE",
"663 34 OFFCURVE",
"536 34 CURVE SMOOTH",
"521 34 OFFCURVE",
"519 34 OFFCURVE",
"513 34 CURVE",
"677 427 LINE SMOOTH"
);
}
);
width = 919;
}
);
leftKerningGroup = c;
rightKerningGroup = p;
},
{
glyphname = c_t;
lastChange = "2018-10-23 22:45:40 +0000";
layers = (
{
components = (
{
name = c;
}
);
layerId = master01;
paths = (
{
closed = 1;
nodes = (
"593 428 LINE",
"504 219 LINE SMOOTH",
"452 99 OFFCURVE",
"445 70 OFFCURVE",
"445 46 CURVE SMOOTH",
"445 8 OFFCURVE",
"456 -9 OFFCURVE",
"490 -9 CURVE SMOOTH",
"540 -9 OFFCURVE",
"601 31 OFFCURVE",
"656 101 CURVE",
"639 111 LINE",
"593 63 OFFCURVE",
"567 42 OFFCURVE",
"550 42 CURVE SMOOTH",
"537 42 OFFCURVE",
"531 50 OFFCURVE",
"531 63 CURVE SMOOTH",
"531 75 OFFCURVE",
"538 89 OFFCURVE",
"611 262 CURVE SMOOTH",
"682 428 LINE",
"760 428 LINE",
"770 456 LINE",
"693 456 LINE",
"739 587 LINE",
"752 604 OFFCURVE",
"758 621 OFFCURVE",
"758 638 CURVE SMOOTH",
"758 659 OFFCURVE",
"747 671 OFFCURVE",
"728 671 CURVE SMOOTH",
"704 671 OFFCURVE",
"691 653 OFFCURVE",
"691 620 CURVE SMOOTH",
"691 587 LINE SMOOTH",
"691 584 OFFCURVE",
"691 581 OFFCURVE",
"690 577 CURVE",
"673 568 OFFCURVE",
"650 563 OFFCURVE",
"628 563 CURVE SMOOTH",
"542 563 OFFCURVE",
"477 640 OFFCURVE",
"391 640 CURVE SMOOTH",
"338 640 OFFCURVE",
"305 610 OFFCURVE",
"305 561 CURVE SMOOTH",
"305 513 OFFCURVE",
"335 470 OFFCURVE",
"391 433 CURVE",
"414 444 LINE",
"369 476 OFFCURVE",
"353 495 OFFCURVE",
"353 525 CURVE SMOOTH",
"353 562 OFFCURVE",
"380 585 OFFCURVE",
"427 585 CURVE SMOOTH",
"494 585 OFFCURVE",
"532 538 OFFCURVE",
"616 538 CURVE SMOOTH",
"640 538 OFFCURVE",
"662 541 OFFCURVE",
"682 548 CURVE",
"669 519 OFFCURVE",
"643 488 OFFCURVE",
"606 456 CURVE",
"532 456 LINE",
"523 428 LINE {name = hr00;}"
);
}
);
width = 728;
},
{
components = (
{
name = c;
}
);
layerId = "5CF0B95A-6341-4D13-90DE-0CF1719C21EC";
paths = (
{
closed = 1;
nodes = (
"593 428 LINE",
"504 219 LINE SMOOTH",
"452 99 OFFCURVE",
"445 70 OFFCURVE",
"445 46 CURVE SMOOTH",
"445 8 OFFCURVE",
"456 -9 OFFCURVE",
"490 -9 CURVE SMOOTH",
"540 -9 OFFCURVE",
"601 31 OFFCURVE",
"656 101 CURVE",
"639 111 LINE",
"593 63 OFFCURVE",
"567 42 OFFCURVE",
"550 42 CURVE SMOOTH",
"537 42 OFFCURVE",
"531 50 OFFCURVE",
"531 63 CURVE SMOOTH",
"531 75 OFFCURVE",
"538 89 OFFCURVE",
"611 262 CURVE SMOOTH",
"682 428 LINE",
"760 428 LINE",
"770 456 LINE",
"693 456 LINE",
"739 587 LINE",
"752 604 OFFCURVE",
"758 621 OFFCURVE",
"758 638 CURVE SMOOTH",
"758 659 OFFCURVE",
"747 671 OFFCURVE",
"728 671 CURVE SMOOTH",
"704 671 OFFCURVE",
"691 653 OFFCURVE",
"691 620 CURVE SMOOTH",
"691 587 LINE SMOOTH",
"691 584 OFFCURVE",
"691 581 OFFCURVE",
"690 577 CURVE",
"673 568 OFFCURVE",
"650 563 OFFCURVE",
"628 563 CURVE SMOOTH",
"542 563 OFFCURVE",
"477 640 OFFCURVE",
"391 640 CURVE SMOOTH",
"338 640 OFFCURVE",
"305 610 OFFCURVE",
"305 561 CURVE SMOOTH",
"305 513 OFFCURVE",
"335 470 OFFCURVE",
"391 433 CURVE",
"414 444 LINE",
"369 476 OFFCURVE",
"353 495 OFFCURVE",
"353 525 CURVE SMOOTH",
"353 562 OFFCURVE",
"380 585 OFFCURVE",
"427 585 CURVE SMOOTH",
"494 585 OFFCURVE",
"532 538 OFFCURVE",
"616 538 CURVE SMOOTH",
"640 538 OFFCURVE",
"662 541 OFFCURVE",
"682 548 CURVE",
"669 519 OFFCURVE",
"643 488 OFFCURVE",
"606 456 CURVE",
"532 456 LINE",
"523 428 LINE {name = hr00;}"
);
}
);
width = 728;
}
);
leftKerningGroup = c;
rightKerningGroup = t;
},
{
glyphname = caron;
lastChange = "2018-10-23 22:45:40 +0000";
layers = (
{
anchors = (
{
name = _top;
position = "{66, 560}";
}
);
layerId = master01;
paths = (
{
closed = 1;
nodes = (
"82 540 OFFCURVE",
"100 548 OFFCURVE",
"115 565 CURVE SMOOTH",
"262 727 LINE",
"246 737 LINE",
"89 616 LINE",
"28 737 LINE",
"9 727 LINE",
"22 565 LINE SMOOTH",
"24 549 OFFCURVE",
"32 540 OFFCURVE",
"57 540 CURVE SMOOTH"
);
}
);
width = 271;
},
{
anchors = (
{
name = _top;
position = "{66, 560}";
}
);
layerId = "5CF0B95A-6341-4D13-90DE-0CF1719C21EC";
paths = (
{
closed = 1;
nodes = (
"82 540 OFFCURVE",
"100 548 OFFCURVE",
"115 565 CURVE SMOOTH",
"262 727 LINE",
"246 737 LINE",
"89 616 LINE",
"28 737 LINE",
"9 727 LINE",
"22 565 LINE SMOOTH",
"24 549 OFFCURVE",
"32 540 OFFCURVE",
"57 540 CURVE SMOOTH"
);
}
);
width = 271;
}
);
unicode = 02C7;
},
{
glyphname = caron.alt;
lastChange = "2018-10-23 22:45:40 +0000";
layers = (
{
anchors = (
{
name = _top;
position = "{46, 560}";
}
);
layerId = master01;
paths = (
{
closed = 1;
nodes = (
"53 697 LINE SMOOTH",
"62 726 OFFCURVE",
"77 737 OFFCURVE",
"96 737 CURVE SMOOTH",
"123 737 OFFCURVE",
"132 722 OFFCURVE",
"132 703 CURVE SMOOTH",
"132 691 OFFCURVE",
"128 681 OFFCURVE",
"116 665 CURVE SMOOTH",
"30 552 LINE",
"9 552 LINE"
);
}
);
width = 141;
},
{
anchors = (
{
name = _top;
position = "{46, 560}";
}
);
layerId = "5CF0B95A-6341-4D13-90DE-0CF1719C21EC";
paths = (
{
closed = 1;
nodes = (
"53 697 LINE SMOOTH",
"62 726 OFFCURVE",
"77 737 OFFCURVE",
"96 737 CURVE SMOOTH",
"123 737 OFFCURVE",
"132 722 OFFCURVE",
"132 703 CURVE SMOOTH",
"132 691 OFFCURVE",
"128 681 OFFCURVE",
"116 665 CURVE SMOOTH",
"30 552 LINE",
"9 552 LINE"
);
}
);
width = 141;
}
);
},
{
glyphname = caron.cap;
lastChange = "2018-10-23 22:45:40 +0000";
layers = (
{
anchors = (
{
name = _topcap;
position = "{89, 714}";
}
);
layerId = master01;
paths = (
{
closed = 1;
nodes = (
"114 705 OFFCURVE",
"127 714 OFFCURVE",
"148 728 CURVE SMOOTH",
"261 811 LINE",
"251 826 LINE",
"109 767 LINE",
"31 826 LINE",
"9 811 LINE",
"55 728 LINE SMOOTH",
"65 712 OFFCURVE",
"73 705 OFFCURVE",
"93 705 CURVE SMOOTH"
);
}
);
width = 271;
},
{
anchors = (
{
name = _topcap;
position = "{89, 714}";
}
);
layerId = "5CF0B95A-6341-4D13-90DE-0CF1719C21EC";
paths = (
{
closed = 1;
nodes = (
"114 705 OFFCURVE",
"127 714 OFFCURVE",
"148 728 CURVE SMOOTH",
"261 811 LINE",
"251 826 LINE",
"109 767 LINE",
"31 826 LINE",
"9 811 LINE",
"55 728 LINE SMOOTH",
"65 712 OFFCURVE",
"73 705 OFFCURVE",
"93 705 CURVE SMOOTH"
);
}
);
width = 271;
}
);
},
{
glyphname = cedilla;
lastChange = "2018-10-23 22:45:40 +0000";
layers = (
{
anchors = (
{
name = _bottom;
position = "{126, 0}";
}
);
layerId = master01;
paths = (
{
closed = 1;
nodes = (
"-14 -213 OFFCURVE",
"8 -221 OFFCURVE",
"37 -221 CURVE SMOOTH",
"114 -221 OFFCURVE",
"183 -169 OFFCURVE",
"183 -110 CURVE SMOOTH",
"183 -72 OFFCURVE",
"156 -50 OFFCURVE",
"108 -50 CURVE",
"157 15 LINE",
"122 15 LINE",
"28 -104 LINE",
"35 -115 LINE",
"46 -108 OFFCURVE",
"60 -105 OFFCURVE",
"77 -105 CURVE SMOOTH",
"101 -105 OFFCURVE",
"113 -114 OFFCURVE",
"113 -134 CURVE SMOOTH",
"113 -169 OFFCURVE",
"79 -194 OFFCURVE",
"36 -194 CURVE SMOOTH",
"18 -194 OFFCURVE",
"4 -190 OFFCURVE",
"-9 -181 CURVE",
"-23 -200 LINE"
);
}
);
width = 198;
},
{
anchors = (
{
name = _bottom;
position = "{126, 0}";
}
);
layerId = "5CF0B95A-6341-4D13-90DE-0CF1719C21EC";
paths = (
{
closed = 1;
nodes = (
"-14 -213 OFFCURVE",
"8 -221 OFFCURVE",
"37 -221 CURVE SMOOTH",
"114 -221 OFFCURVE",
"183 -169 OFFCURVE",
"183 -110 CURVE SMOOTH",
"183 -72 OFFCURVE",
"156 -50 OFFCURVE",
"108 -50 CURVE",
"157 15 LINE",
"122 15 LINE",
"28 -104 LINE",
"35 -115 LINE",
"46 -108 OFFCURVE",
"60 -105 OFFCURVE",
"77 -105 CURVE SMOOTH",
"101 -105 OFFCURVE",
"113 -114 OFFCURVE",
"113 -134 CURVE SMOOTH",
"113 -169 OFFCURVE",
"79 -194 OFFCURVE",
"36 -194 CURVE SMOOTH",
"18 -194 OFFCURVE",
"4 -190 OFFCURVE",
"-9 -181 CURVE",
"-23 -200 LINE"
);
}
);
width = 198;
}
);
unicode = 00B8;
},
{
glyphname = cent;
lastChange = "2018-10-23 22:45:40 +0000";
layers = (
{
layerId = master01;
paths = (
{
closed = 1;
nodes = (
"377 590 LINE",
"324 463 LINE",
"272 457 OFFCURVE",
"210 429 OFFCURVE",
"157 388 CURVE SMOOTH",
"66 317 OFFCURVE",
"14 217 OFFCURVE",
"13 123 CURVE SMOOTH",
"13 37 OFFCURVE",
"51 -9 OFFCURVE",
"127 -9 CURVE",
"77 -129 LINE",
"116 -129 LINE",
"169 -3 LINE",
"230 10 OFFCURVE",
"293 54 OFFCURVE",
"353 126 CURVE",
"335 137 LINE",
"275 76 OFFCURVE",
"224 40 OFFCURVE",
"181 27 CURVE",
"351 435 LINE",
"363 430 OFFCURVE",
"370 417 OFFCURVE",
"374 393 CURVE SMOOTH",
"378 365 OFFCURVE",
"391 352 OFFCURVE",
"414 352 CURVE SMOOTH {name = hr01;}",
"436 352 OFFCURVE",
"452 366 OFFCURVE",
"452 386 CURVE SMOOTH",
"452 425 OFFCURVE",
"414 458 OFFCURVE",
"363 464 CURVE",
"415 590 LINE"
);
},
{
closed = 1;
nodes = (
"98 206 OFFCURVE",
"212 402 OFFCURVE",
"311 433 CURVE",
"140 22 LINE",
"109 25 OFFCURVE",
"98 46 OFFCURVE",
"98 85 CURVE SMOOTH"
);
}
);
width = 448;
},
{
layerId = "5CF0B95A-6341-4D13-90DE-0CF1719C21EC";
paths = (
{
closed = 1;
nodes = (
"377 590 LINE",
"324 463 LINE",
"272 457 OFFCURVE",
"210 429 OFFCURVE",
"157 388 CURVE SMOOTH",
"66 317 OFFCURVE",
"14 217 OFFCURVE",
"13 123 CURVE SMOOTH",
"13 37 OFFCURVE",
"51 -9 OFFCURVE",
"127 -9 CURVE",
"77 -129 LINE",
"116 -129 LINE",
"169 -3 LINE",
"230 10 OFFCURVE",
"293 54 OFFCURVE",
"353 126 CURVE",
"335 137 LINE",
"275 76 OFFCURVE",
"224 40 OFFCURVE",
"181 27 CURVE",
"351 435 LINE",
"363 430 OFFCURVE",
"370 417 OFFCURVE",
"374 393 CURVE SMOOTH",
"378 365 OFFCURVE",
"391 352 OFFCURVE",
"414 352 CURVE SMOOTH {name = hr01;}",
"436 352 OFFCURVE",
"452 366 OFFCURVE",
"452 386 CURVE SMOOTH",
"452 425 OFFCURVE",
"414 458 OFFCURVE",
"363 464 CURVE",
"415 590 LINE"
);
},
{
closed = 1;
nodes = (
"98 206 OFFCURVE",
"212 402 OFFCURVE",
"311 433 CURVE",
"140 22 LINE",
"109 25 OFFCURVE",
"98 46 OFFCURVE",
"98 85 CURVE SMOOTH"
);
}
);
width = 448;
}
);
unicode = 00A2;
},
{
glyphname = cent.tnum;
lastChange = "2018-10-23 22:45:40 +0000";
layers = (
{
layerId = master01;
paths = (
{
closed = 1;
nodes = (
"379 590 LINE",
"327 463 LINE",
"274 457 OFFCURVE",
"212 429 OFFCURVE",
"159 388 CURVE SMOOTH",
"69 317 OFFCURVE",
"16 217 OFFCURVE",
"15 123 CURVE SMOOTH",
"15 37 OFFCURVE",
"53 -9 OFFCURVE",
"130 -9 CURVE",
"80 -129 LINE",
"119 -129 LINE",
"171 -3 LINE",
"232 10 OFFCURVE",
"296 54 OFFCURVE",
"356 126 CURVE",
"337 137 LINE",
"278 76 OFFCURVE",
"226 40 OFFCURVE",
"183 27 CURVE",
"353 435 LINE",
"366 430 OFFCURVE",
"372 417 OFFCURVE",
"377 393 CURVE SMOOTH",
"381 365 OFFCURVE",
"394 352 OFFCURVE",
"416 352 CURVE SMOOTH",
"439 352 OFFCURVE",
"454 366 OFFCURVE",
"454 386 CURVE SMOOTH",
"454 425 OFFCURVE",
"416 458 OFFCURVE",
"366 464 CURVE",
"418 590 LINE {name = hr00;}"
);
},
{
closed = 1;
nodes = (
"101 206 OFFCURVE",
"215 402 OFFCURVE",
"314 433 CURVE",
"143 22 LINE",
"112 25 OFFCURVE",
"101 46 OFFCURVE",
"101 85 CURVE SMOOTH"
);
}
);
width = 427;
},
{
layerId = "5CF0B95A-6341-4D13-90DE-0CF1719C21EC";
paths = (
{
closed = 1;
nodes = (
"379 590 LINE",
"327 463 LINE",
"274 457 OFFCURVE",
"212 429 OFFCURVE",
"159 388 CURVE SMOOTH",
"69 317 OFFCURVE",
"16 217 OFFCURVE",
"15 123 CURVE SMOOTH",
"15 37 OFFCURVE",
"53 -9 OFFCURVE",
"130 -9 CURVE",
"80 -129 LINE",
"119 -129 LINE",
"171 -3 LINE",
"232 10 OFFCURVE",
"296 54 OFFCURVE",
"356 126 CURVE",
"337 137 LINE",
"278 76 OFFCURVE",
"226 40 OFFCURVE",
"183 27 CURVE",
"353 435 LINE",
"366 430 OFFCURVE",
"372 417 OFFCURVE",
"377 393 CURVE SMOOTH",
"381 365 OFFCURVE",
"394 352 OFFCURVE",
"416 352 CURVE SMOOTH",
"439 352 OFFCURVE",
"454 366 OFFCURVE",
"454 386 CURVE SMOOTH",
"454 425 OFFCURVE",
"416 458 OFFCURVE",
"366 464 CURVE",
"418 590 LINE {name = hr00;}"
);
},
{
closed = 1;
nodes = (
"101 206 OFFCURVE",
"215 402 OFFCURVE",
"314 433 CURVE",
"143 22 LINE",
"112 25 OFFCURVE",
"101 46 OFFCURVE",
"101 85 CURVE SMOOTH"
);
}
);
width = 427;
}
);
},
{
glyphname = circumflex;
lastChange = "2018-10-23 22:45:40 +0000";
layers = (
{
anchors = (
{
name = _top;
position = "{141, 560}";
}
);
layerId = master01;
paths = (
{
closed = 1;
nodes = (
"189 737 OFFCURVE",
"171 729 OFFCURVE",
"156 712 CURVE SMOOTH",
"9 550 LINE",
"25 540 LINE",
"182 661 LINE",
"243 540 LINE",
"262 550 LINE",
"249 712 LINE SMOOTH",
"247 728 OFFCURVE",
"239 737 OFFCURVE",
"214 737 CURVE SMOOTH"
);
}
);
width = 271;
},
{
anchors = (
{
name = _top;
position = "{141, 560}";
}
);
layerId = "5CF0B95A-6341-4D13-90DE-0CF1719C21EC";
paths = (
{
closed = 1;
nodes = (
"189 737 OFFCURVE",
"171 729 OFFCURVE",
"156 712 CURVE SMOOTH",
"9 550 LINE",
"25 540 LINE",
"182 661 LINE",
"243 540 LINE",
"262 550 LINE",
"249 712 LINE SMOOTH",
"247 728 OFFCURVE",
"239 737 OFFCURVE",
"214 737 CURVE SMOOTH"
);
}
);
width = 271;
}
);
unicode = 02C6;
},
{
glyphname = circumflex.cap;
lastChange = "2018-10-23 22:45:40 +0000";
layers = (
{
anchors = (
{
name = _topcap;
position = "{141, 714}";
}
);
layerId = master01;
paths = (
{
closed = 1;
nodes = (
"156 826 OFFCURVE",
"143 817 OFFCURVE",
"122 802 CURVE SMOOTH",
"9 720 LINE",
"19 705 LINE",
"161 764 LINE",
"239 705 LINE",
"261 720 LINE",
"215 802 LINE SMOOTH",
"206 819 OFFCURVE",
"197 826 OFFCURVE",
"177 826 CURVE SMOOTH"
);
}
);
width = 270;
},
{
anchors = (
{
name = _topcap;
position = "{141, 714}";
}
);
layerId = "5CF0B95A-6341-4D13-90DE-0CF1719C21EC";
paths = (
{
closed = 1;
nodes = (
"156 826 OFFCURVE",
"143 817 OFFCURVE",
"122 802 CURVE SMOOTH",
"9 720 LINE",
"19 705 LINE",
"161 764 LINE",
"239 705 LINE",
"261 720 LINE",
"215 802 LINE SMOOTH",
"206 819 OFFCURVE",
"197 826 OFFCURVE",
"177 826 CURVE SMOOTH"
);
}
);
width = 270;
}
);
},
{
glyphname = colon;
lastChange = "2018-10-23 22:45:40 +0000";
layers = (
{
layerId = master01;
paths = (
{
closed = 1;
nodes = (
"110 118 OFFCURVE",
"140 94 OFFCURVE",
"140 62 CURVE SMOOTH",
"140 26 OFFCURVE",
"102 -9 OFFCURVE",
"65 -9 CURVE SMOOTH",
"26 -9 OFFCURVE",
"2 15 OFFCURVE",
"2 49 CURVE SMOOTH",
"2 87 OFFCURVE",
"37 118 OFFCURVE",
"76 118 CURVE SMOOTH"
);
},
{
closed = 1;
nodes = (
"212 431 OFFCURVE",
"243 407 OFFCURVE",
"243 375 CURVE SMOOTH",
"243 339 OFFCURVE",
"205 304 OFFCURVE",
"167 304 CURVE SMOOTH",
"128 304 OFFCURVE",
"104 328 OFFCURVE",
"104 362 CURVE SMOOTH",
"104 400 OFFCURVE",
"139 431 OFFCURVE",
"178 431 CURVE SMOOTH"
);
}
);
width = 281;
},
{
layerId = "5CF0B95A-6341-4D13-90DE-0CF1719C21EC";
paths = (
{
closed = 1;
nodes = (
"110 118 OFFCURVE",
"140 94 OFFCURVE",
"140 62 CURVE SMOOTH",
"140 26 OFFCURVE",
"102 -9 OFFCURVE",
"65 -9 CURVE SMOOTH",
"26 -9 OFFCURVE",
"2 15 OFFCURVE",
"2 49 CURVE SMOOTH",
"2 87 OFFCURVE",
"37 118 OFFCURVE",
"76 118 CURVE SMOOTH"
);
},
{
closed = 1;
nodes = (
"212 431 OFFCURVE",
"243 407 OFFCURVE",
"243 375 CURVE SMOOTH",
"243 339 OFFCURVE",
"205 304 OFFCURVE",
"167 304 CURVE SMOOTH",
"128 304 OFFCURVE",
"104 328 OFFCURVE",
"104 362 CURVE SMOOTH",
"104 400 OFFCURVE",
"139 431 OFFCURVE",
"178 431 CURVE SMOOTH"
);
}
);
width = 281;
}
);
leftKerningGroup = colon;
rightKerningGroup = colon;
unicode = 003A;
},
{
glyphname = colon.tnum;
lastChange = "2018-10-23 22:45:40 +0000";
layers = (
{
layerId = master01;
paths = (
{
closed = 1;
nodes = (
"126 118 OFFCURVE",
"156 94 OFFCURVE",
"156 62 CURVE SMOOTH",
"156 26 OFFCURVE",
"118 -9 OFFCURVE",
"80 -9 CURVE SMOOTH",
"41 -9 OFFCURVE",
"17 15 OFFCURVE",
"17 49 CURVE SMOOTH",
"17 87 OFFCURVE",
"52 118 OFFCURVE",
"91 118 CURVE SMOOTH"
);
},
{
closed = 1;
nodes = (
"228 431 OFFCURVE",
"258 407 OFFCURVE",
"258 375 CURVE SMOOTH",
"258 339 OFFCURVE",
"220 304 OFFCURVE",
"182 304 CURVE SMOOTH",
"144 304 OFFCURVE",
"120 328 OFFCURVE",
"120 362 CURVE SMOOTH",
"120 400 OFFCURVE",
"155 431 OFFCURVE",
"194 431 CURVE SMOOTH"
);
}
);
width = 258;
},
{
layerId = "5CF0B95A-6341-4D13-90DE-0CF1719C21EC";
paths = (
{
closed = 1;
nodes = (
"126 118 OFFCURVE",
"156 94 OFFCURVE",
"156 62 CURVE SMOOTH",
"156 26 OFFCURVE",
"118 -9 OFFCURVE",
"80 -9 CURVE SMOOTH",
"41 -9 OFFCURVE",
"17 15 OFFCURVE",
"17 49 CURVE SMOOTH",
"17 87 OFFCURVE",
"52 118 OFFCURVE",
"91 118 CURVE SMOOTH"
);
},
{
closed = 1;
nodes = (
"228 431 OFFCURVE",
"258 407 OFFCURVE",
"258 375 CURVE SMOOTH",
"258 339 OFFCURVE",
"220 304 OFFCURVE",
"182 304 CURVE SMOOTH",
"144 304 OFFCURVE",
"120 328 OFFCURVE",
"120 362 CURVE SMOOTH",
"120 400 OFFCURVE",
"155 431 OFFCURVE",
"194 431 CURVE SMOOTH"
);
}
);
width = 258;
}
);
},
{
glyphname = comma;
lastChange = "2018-10-23 22:45:40 +0000";
layers = (
{
layerId = master01;
paths = (
{
closed = 1;
nodes = (
"-7 6 OFFCURVE",
"-23 24 OFFCURVE",
"-23 55 CURVE SMOOTH",
"-23 94 OFFCURVE",
"3 118 OFFCURVE",
"42 118 CURVE SMOOTH",
"86 118 OFFCURVE",
"111 89 OFFCURVE",
"111 39 CURVE SMOOTH",
"111 -31 OFFCURVE",
"65 -100 OFFCURVE",
"-22 -160 CURVE",
"-38 -142 LINE",
"12 -106 OFFCURVE",
"56 -47 OFFCURVE",
"56 -18 CURVE SMOOTH",
"56 -7 OFFCURVE",
"53 -5 OFFCURVE",
"26 0 CURVE SMOOTH"
);
}
);
width = 249;
},
{
layerId = "5CF0B95A-6341-4D13-90DE-0CF1719C21EC";
paths = (
{
closed = 1;
nodes = (
"-7 6 OFFCURVE",
"-23 24 OFFCURVE",
"-23 55 CURVE SMOOTH",
"-23 94 OFFCURVE",
"3 118 OFFCURVE",
"42 118 CURVE SMOOTH",
"86 118 OFFCURVE",
"111 89 OFFCURVE",
"111 39 CURVE SMOOTH",
"111 -31 OFFCURVE",
"65 -100 OFFCURVE",
"-22 -160 CURVE",
"-38 -142 LINE",
"12 -106 OFFCURVE",
"56 -47 OFFCURVE",
"56 -18 CURVE SMOOTH",
"56 -7 OFFCURVE",
"53 -5 OFFCURVE",
"26 0 CURVE SMOOTH"
);
}
);
width = 249;
}
);
leftKerningGroup = period;
rightKerningGroup = period;
unicode = 002C;
},
{
glyphname = comma.tnum;
lastChange = "2018-10-23 22:45:40 +0000";
layers = (
{
layerId = master01;
paths = (
{
closed = 1;
nodes = (
"48 6 OFFCURVE",
"32 24 OFFCURVE",
"32 55 CURVE SMOOTH",
"32 94 OFFCURVE",
"58 118 OFFCURVE",
"97 118 CURVE SMOOTH",
"141 118 OFFCURVE",
"166 89 OFFCURVE",
"166 39 CURVE SMOOTH",
"166 -31 OFFCURVE",
"120 -100 OFFCURVE",
"33 -160 CURVE",
"17 -142 LINE",
"67 -106 OFFCURVE",
"111 -47 OFFCURVE",
"111 -18 CURVE SMOOTH",
"111 -7 OFFCURVE",
"108 -5 OFFCURVE",
"81 0 CURVE SMOOTH"
);
}
);
width = 258;
},
{
layerId = "5CF0B95A-6341-4D13-90DE-0CF1719C21EC";
paths = (
{
closed = 1;
nodes = (
"48 6 OFFCURVE",
"32 24 OFFCURVE",
"32 55 CURVE SMOOTH",
"32 94 OFFCURVE",
"58 118 OFFCURVE",
"97 118 CURVE SMOOTH",
"141 118 OFFCURVE",
"166 89 OFFCURVE",
"166 39 CURVE SMOOTH",
"166 -31 OFFCURVE",
"120 -100 OFFCURVE",
"33 -160 CURVE",
"17 -142 LINE",
"67 -106 OFFCURVE",
"111 -47 OFFCURVE",
"111 -18 CURVE SMOOTH",
"111 -7 OFFCURVE",
"108 -5 OFFCURVE",
"81 0 CURVE SMOOTH"
);
}
);
width = 258;
}
);
},
{
glyphname = commaaccent;
lastChange = "2018-10-23 22:45:40 +0000";
layers = (
{
anchors = (
{
name = _bottom;
position = "{80, -9}";
}
);
layerId = master01;
paths = (
{
closed = 1;
nodes = (
"17 -132 OFFCURVE",
"9 -120 OFFCURVE",
"9 -99 CURVE SMOOTH",
"9 -67 OFFCURVE",
"27 -46 OFFCURVE",
"65 -46 CURVE SMOOTH",
"93 -46 OFFCURVE",
"108 -64 OFFCURVE",
"108 -95 CURVE SMOOTH",
"108 -138 OFFCURVE",
"70 -184 OFFCURVE",
"3 -221 CURVE",
"-10 -205 LINE",
"25 -187 OFFCURVE",
"53 -161 OFFCURVE",
"53 -147 CURVE SMOOTH",
"53 -141 OFFCURVE",
"50 -140 OFFCURVE",
"34 -137 CURVE SMOOTH"
);
}
);
width = 117;
},
{
anchors = (
{
name = _bottom;
position = "{80, -9}";
}
);
layerId = "5CF0B95A-6341-4D13-90DE-0CF1719C21EC";
paths = (
{
closed = 1;
nodes = (
"17 -132 OFFCURVE",
"9 -120 OFFCURVE",
"9 -99 CURVE SMOOTH",
"9 -67 OFFCURVE",
"27 -46 OFFCURVE",
"65 -46 CURVE SMOOTH",
"93 -46 OFFCURVE",
"108 -64 OFFCURVE",
"108 -95 CURVE SMOOTH",
"108 -138 OFFCURVE",
"70 -184 OFFCURVE",
"3 -221 CURVE",
"-10 -205 LINE",
"25 -187 OFFCURVE",
"53 -161 OFFCURVE",
"53 -147 CURVE SMOOTH",
"53 -141 OFFCURVE",
"50 -140 OFFCURVE",
"34 -137 CURVE SMOOTH"
);
}
);
width = 117;
}
);
unicode = F6C3;
},
{
glyphname = copyright;
lastChange = "2018-10-23 22:45:40 +0000";
layers = (
{
layerId = master01;
paths = (
{
closed = 1;
nodes = (
"109 144 OFFCURVE",
"262 -9 OFFCURVE",
"451 -9 CURVE SMOOTH",
"639 -9 OFFCURVE",
"792 144 OFFCURVE",
"792 331 CURVE SMOOTH",
"792 518 OFFCURVE",
"639 671 OFFCURVE",
"451 671 CURVE SMOOTH",
"262 671 OFFCURVE",
"109 518 OFFCURVE",
"109 331 CURVE SMOOTH"
);
},
{
closed = 1;
nodes = (
"150 495 OFFCURVE",
"285 630 OFFCURVE",
"451 630 CURVE SMOOTH",
"617 630 OFFCURVE",
"751 495 OFFCURVE",
"751 331 CURVE SMOOTH",
"751 167 OFFCURVE",
"617 33 OFFCURVE",
"451 33 CURVE SMOOTH",
"285 33 OFFCURVE",
"150 167 OFFCURVE",
"150 331 CURVE SMOOTH"
);
},
{
closed = 1;
nodes = (
"240 205 OFFCURVE",
"325 117 OFFCURVE",
"449 117 CURVE SMOOTH",
"495 117 OFFCURVE",
"531 131 OFFCURVE",
"568 162 CURVE",
"593 118 LINE",
"605 118 LINE",
"605 272 LINE",
"587 272 LINE",
"581 243 OFFCURVE",
"571 218 OFFCURVE",
"558 200 CURVE SMOOTH",
"536 167 OFFCURVE",
"502 150 OFFCURVE",
"461 150 CURVE SMOOTH",
"378 150 OFFCURVE",
"330 218 OFFCURVE",
"330 335 CURVE SMOOTH",
"330 453 OFFCURVE",
"377 519 OFFCURVE",
"460 519 CURVE SMOOTH",
"508 519 OFFCURVE",
"540 502 OFFCURVE",
"563 463 CURVE SMOOTH",
"574 445 OFFCURVE",
"579 432 OFFCURVE",
"585 414 CURVE",
"605 414 LINE",
"605 550 LINE",
"593 550 LINE",
"569 514 LINE",
"566 514 LINE",
"532 539 OFFCURVE",
"492 552 OFFCURVE",
"451 552 CURVE SMOOTH",
"328 552 OFFCURVE",
"240 460 OFFCURVE",
"240 332 CURVE SMOOTH"
);
}
);
width = 839;
},
{
layerId = "5CF0B95A-6341-4D13-90DE-0CF1719C21EC";
paths = (
{
closed = 1;
nodes = (
"109 144 OFFCURVE",
"262 -9 OFFCURVE",
"451 -9 CURVE SMOOTH",
"639 -9 OFFCURVE",
"792 144 OFFCURVE",
"792 331 CURVE SMOOTH",
"792 518 OFFCURVE",
"639 671 OFFCURVE",
"451 671 CURVE SMOOTH",
"262 671 OFFCURVE",
"109 518 OFFCURVE",
"109 331 CURVE SMOOTH"
);
},
{
closed = 1;
nodes = (
"150 495 OFFCURVE",
"285 630 OFFCURVE",
"451 630 CURVE SMOOTH",
"617 630 OFFCURVE",
"751 495 OFFCURVE",
"751 331 CURVE SMOOTH",
"751 167 OFFCURVE",
"617 33 OFFCURVE",
"451 33 CURVE SMOOTH",
"285 33 OFFCURVE",
"150 167 OFFCURVE",
"150 331 CURVE SMOOTH"
);
},
{
closed = 1;
nodes = (
"240 205 OFFCURVE",
"325 117 OFFCURVE",
"449 117 CURVE SMOOTH",
"495 117 OFFCURVE",
"531 131 OFFCURVE",
"568 162 CURVE",
"593 118 LINE",
"605 118 LINE",
"605 272 LINE",
"587 272 LINE",
"581 243 OFFCURVE",
"571 218 OFFCURVE",
"558 200 CURVE SMOOTH",
"536 167 OFFCURVE",
"502 150 OFFCURVE",
"461 150 CURVE SMOOTH",
"378 150 OFFCURVE",
"330 218 OFFCURVE",
"330 335 CURVE SMOOTH",
"330 453 OFFCURVE",
"377 519 OFFCURVE",
"460 519 CURVE SMOOTH",
"508 519 OFFCURVE",
"540 502 OFFCURVE",
"563 463 CURVE SMOOTH",
"574 445 OFFCURVE",
"579 432 OFFCURVE",
"585 414 CURVE",
"605 414 LINE",
"605 550 LINE",
"593 550 LINE",
"569 514 LINE",
"566 514 LINE",
"532 539 OFFCURVE",
"492 552 OFFCURVE",
"451 552 CURVE SMOOTH",
"328 552 OFFCURVE",
"240 460 OFFCURVE",
"240 332 CURVE SMOOTH"
);
}
);
width = 839;
}
);
unicode = 00A9;
},
{
glyphname = currency;
lastChange = "2018-10-23 22:45:40 +0000";
layers = (
{
layerId = master01;
paths = (
{
closed = 1;
nodes = (
"123 151 LINE",
"181 207 LINE",
"157 237 OFFCURVE",
"144 274 OFFCURVE",
"144 316 CURVE SMOOTH",
"144 358 OFFCURVE",
"157 394 OFFCURVE",
"181 425 CURVE",
"123 481 LINE",
"164 522 LINE",
"221 464 LINE",
"250 488 OFFCURVE",
"288 501 OFFCURVE",
"329 501 CURVE SMOOTH",
"369 501 OFFCURVE",
"406 488 OFFCURVE",
"439 465 CURVE",
"495 522 LINE",
"536 481 LINE",
"478 424 LINE",
"502 394 OFFCURVE",
"514 358 OFFCURVE",
"514 316 CURVE SMOOTH",
"514 276 OFFCURVE",
"502 239 OFFCURVE",
"479 207 CURVE",
"536 151 LINE",
"495 109 LINE",
"438 167 LINE",
"408 143 OFFCURVE",
"372 131 OFFCURVE",
"329 131 CURVE SMOOTH",
"288 131 OFFCURVE",
"252 143 OFFCURVE",
"221 167 CURVE",
"164 109 LINE"
);
},
{
closed = 1;
nodes = (
"397 186 OFFCURVE",
"454 244 OFFCURVE",
"454 316 CURVE SMOOTH",
"454 387 OFFCURVE",
"397 445 OFFCURVE",
"329 445 CURVE SMOOTH",
"261 445 OFFCURVE",
"205 387 OFFCURVE",
"205 316 CURVE SMOOTH",
"205 245 OFFCURVE",
"261 186 OFFCURVE",
"329 186 CURVE SMOOTH"
);
}
);
width = 611;
},
{
layerId = "5CF0B95A-6341-4D13-90DE-0CF1719C21EC";
paths = (
{
closed = 1;
nodes = (
"123 151 LINE",
"181 207 LINE",
"157 237 OFFCURVE",
"144 274 OFFCURVE",
"144 316 CURVE SMOOTH",
"144 358 OFFCURVE",
"157 394 OFFCURVE",
"181 425 CURVE",
"123 481 LINE",
"164 522 LINE",
"221 464 LINE",
"250 488 OFFCURVE",
"288 501 OFFCURVE",
"329 501 CURVE SMOOTH",
"369 501 OFFCURVE",
"406 488 OFFCURVE",
"439 465 CURVE",
"495 522 LINE",
"536 481 LINE",
"478 424 LINE",
"502 394 OFFCURVE",
"514 358 OFFCURVE",
"514 316 CURVE SMOOTH",
"514 276 OFFCURVE",
"502 239 OFFCURVE",
"479 207 CURVE",
"536 151 LINE",
"495 109 LINE",
"438 167 LINE",
"408 143 OFFCURVE",
"372 131 OFFCURVE",
"329 131 CURVE SMOOTH",
"288 131 OFFCURVE",
"252 143 OFFCURVE",
"221 167 CURVE",
"164 109 LINE"
);
},
{
closed = 1;
nodes = (
"397 186 OFFCURVE",
"454 244 OFFCURVE",
"454 316 CURVE SMOOTH",
"454 387 OFFCURVE",
"397 445 OFFCURVE",
"329 445 CURVE SMOOTH",
"261 445 OFFCURVE",
"205 387 OFFCURVE",
"205 316 CURVE SMOOTH",
"205 245 OFFCURVE",
"261 186 OFFCURVE",
"329 186 CURVE SMOOTH"
);
}
);
width = 611;
}
);
unicode = 00A4;
},
{
glyphname = d;
lastChange = "2018-10-23 22:45:40 +0000";
layers = (
{
anchors = (
{
name = bottom;
position = "{103, 0}";
}
);
layerId = master01;
paths = (
{
closed = 1;
nodes = (
"578 705 LINE",
"347 94 LINE SMOOTH",
"340 73 OFFCURVE",
"338 65 OFFCURVE",
"338 58 CURVE SMOOTH",
"338 46 OFFCURVE",
"345 42 OFFCURVE",
"353 42 CURVE SMOOTH",
"371 42 OFFCURVE",
"396 65 OFFCURVE",
"444 119 CURVE",
"461 107 LINE",
"405 31 OFFCURVE",
"352 -9 OFFCURVE",
"304 -9 CURVE SMOOTH",
"266 -9 OFFCURVE",
"251 12 OFFCURVE",
"251 53 CURVE SMOOTH",
"251 74 OFFCURVE",
"260 96 OFFCURVE",
"276 128 CURVE",
"274 131 LINE",
"206 29 OFFCURVE",
"158 -9 OFFCURVE",
"96 -9 CURVE SMOOTH",
"34 -9 OFFCURVE",
"3 28 OFFCURVE",
"3 103 CURVE SMOOTH",
"3 263 OFFCURVE",
"168 464 OFFCURVE",
"311 464 CURVE SMOOTH",
"344 464 OFFCURVE",
"363 453 OFFCURVE",
"384 424 CURVE {name = hr01;}",
"484 682 LINE",
"418 692 LINE",
"414 705 LINE"
);
},
{
closed = 1;
nodes = (
"170 22 OFFCURVE",
"279 159 OFFCURVE",
"345 320 CURVE SMOOTH",
"361 359 OFFCURVE",
"366 377 OFFCURVE",
"366 394 CURVE",
"362 421 OFFCURVE",
"348 437 OFFCURVE",
"326 437 CURVE SMOOTH",
"239 437 OFFCURVE",
"80 194 OFFCURVE",
"80 70 CURVE SMOOTH",
"80 36 OFFCURVE",
"93 22 OFFCURVE",
"112 22 CURVE SMOOTH"
);
}
);
width = 519;
},
{
anchors = (
{
name = bottom;
position = "{103, 0}";
}
);
layerId = "5CF0B95A-6341-4D13-90DE-0CF1719C21EC";
paths = (
{
closed = 1;
nodes = (
"578 705 LINE",
"347 94 LINE SMOOTH",
"340 73 OFFCURVE",
"338 65 OFFCURVE",
"338 58 CURVE SMOOTH",
"338 46 OFFCURVE",
"345 42 OFFCURVE",
"353 42 CURVE SMOOTH",
"371 42 OFFCURVE",
"396 65 OFFCURVE",
"444 119 CURVE",
"461 107 LINE",
"405 31 OFFCURVE",
"352 -9 OFFCURVE",
"304 -9 CURVE SMOOTH",
"266 -9 OFFCURVE",
"251 12 OFFCURVE",
"251 53 CURVE SMOOTH",
"251 74 OFFCURVE",
"260 96 OFFCURVE",
"276 128 CURVE",
"274 131 LINE",
"206 29 OFFCURVE",
"158 -9 OFFCURVE",
"96 -9 CURVE SMOOTH",
"34 -9 OFFCURVE",
"3 28 OFFCURVE",
"3 103 CURVE SMOOTH",
"3 263 OFFCURVE",
"168 464 OFFCURVE",
"311 464 CURVE SMOOTH",
"344 464 OFFCURVE",
"363 453 OFFCURVE",
"384 424 CURVE {name = hr01;}",
"484 682 LINE",
"418 692 LINE",
"414 705 LINE"
);
},
{
closed = 1;
nodes = (
"170 22 OFFCURVE",
"279 159 OFFCURVE",
"345 320 CURVE SMOOTH",
"361 359 OFFCURVE",
"366 377 OFFCURVE",
"366 394 CURVE",
"362 421 OFFCURVE",
"348 437 OFFCURVE",
"326 437 CURVE SMOOTH",
"239 437 OFFCURVE",
"80 194 OFFCURVE",
"80 70 CURVE SMOOTH",
"80 36 OFFCURVE",
"93 22 OFFCURVE",
"112 22 CURVE SMOOTH"
);
}
);
width = 519;
}
);
leftKerningGroup = d;
rightKerningGroup = d;
unicode = 0064;
},
{
glyphname = dagger;
lastChange = "2018-10-23 22:45:40 +0000";
layers = (
{
layerId = master01;
paths = (
{
closed = 1;
nodes = (
"169 82 OFFCURVE",
"190 179 OFFCURVE",
"198 267 CURVE",
"231 323 OFFCURVE",
"265 390 OFFCURVE",
"308 494 CURVE",
"232 494 OFFCURVE",
"206 471 OFFCURVE",
"179 471 CURVE SMOOTH",
"157 471 OFFCURVE",
"141 487 OFFCURVE",
"141 507 CURVE SMOOTH",
"141 532 OFFCURVE",
"164 550 OFFCURVE",
"196 550 CURVE SMOOTH",
"207 550 OFFCURVE",
"223 545 OFFCURVE",
"256 532 CURVE SMOOTH",
"275 525 OFFCURVE",
"290 520 OFFCURVE",
"316 516 CURVE",
"319 526 LINE SMOOTH",
"326 548 OFFCURVE",
"329 567 OFFCURVE",
"333 606 CURVE SMOOTH",
"338 667 OFFCURVE",
"338 668 OFFCURVE",
"342 680 CURVE SMOOTH",
"349 702 OFFCURVE",
"364 714 OFFCURVE",
"384 714 CURVE SMOOTH",
"407 714 OFFCURVE",
"423 698 OFFCURVE",
"423 676 CURVE SMOOTH",
"423 660 OFFCURVE",
"416 648 OFFCURVE",
"385 605 CURVE SMOOTH",
"367 580 OFFCURVE",
"354 556 OFFCURVE",
"345 526 CURVE SMOOTH",
"341 516 LINE",
"354 518 OFFCURVE",
"385 525 OFFCURVE",
"408 532 CURVE SMOOTH",
"452 547 OFFCURVE",
"462 550 OFFCURVE",
"472 550 CURVE SMOOTH",
"495 550 OFFCURVE",
"512 534 OFFCURVE",
"512 515 CURVE SMOOTH",
"512 491 OFFCURVE",
"488 471 OFFCURVE",
"460 471 CURVE SMOOTH",
"427 471 OFFCURVE",
"407 494 OFFCURVE",
"334 494 CURVE",
"310 401 OFFCURVE",
"298 330 OFFCURVE",
"298 267 CURVE",
"245 177 OFFCURVE",
"202 77 OFFCURVE",
"132 -117 CURVE",
"114 -117 LINE"
);
}
);
width = 443;
},
{
layerId = "5CF0B95A-6341-4D13-90DE-0CF1719C21EC";
paths = (
{
closed = 1;
nodes = (
"169 82 OFFCURVE",
"190 179 OFFCURVE",
"198 267 CURVE",
"231 323 OFFCURVE",
"265 390 OFFCURVE",
"308 494 CURVE",
"232 494 OFFCURVE",
"206 471 OFFCURVE",
"179 471 CURVE SMOOTH",
"157 471 OFFCURVE",
"141 487 OFFCURVE",
"141 507 CURVE SMOOTH",
"141 532 OFFCURVE",
"164 550 OFFCURVE",
"196 550 CURVE SMOOTH",
"207 550 OFFCURVE",
"223 545 OFFCURVE",
"256 532 CURVE SMOOTH",
"275 525 OFFCURVE",
"290 520 OFFCURVE",
"316 516 CURVE",
"319 526 LINE SMOOTH",
"326 548 OFFCURVE",
"329 567 OFFCURVE",
"333 606 CURVE SMOOTH",
"338 667 OFFCURVE",
"338 668 OFFCURVE",
"342 680 CURVE SMOOTH",
"349 702 OFFCURVE",
"364 714 OFFCURVE",
"384 714 CURVE SMOOTH",
"407 714 OFFCURVE",
"423 698 OFFCURVE",
"423 676 CURVE SMOOTH",
"423 660 OFFCURVE",
"416 648 OFFCURVE",
"385 605 CURVE SMOOTH",
"367 580 OFFCURVE",
"354 556 OFFCURVE",
"345 526 CURVE SMOOTH",
"341 516 LINE",
"354 518 OFFCURVE",
"385 525 OFFCURVE",
"408 532 CURVE SMOOTH",
"452 547 OFFCURVE",
"462 550 OFFCURVE",
"472 550 CURVE SMOOTH",
"495 550 OFFCURVE",
"512 534 OFFCURVE",
"512 515 CURVE SMOOTH",
"512 491 OFFCURVE",
"488 471 OFFCURVE",
"460 471 CURVE SMOOTH",
"427 471 OFFCURVE",
"407 494 OFFCURVE",
"334 494 CURVE",
"310 401 OFFCURVE",
"298 330 OFFCURVE",
"298 267 CURVE",
"245 177 OFFCURVE",
"202 77 OFFCURVE",
"132 -117 CURVE",
"114 -117 LINE"
);
}
);
width = 443;
}
);
unicode = 2020;
},
{
glyphname = daggerdbl;
lastChange = "2018-10-23 22:45:40 +0000";
layers = (
{
layerId = master01;
paths = (
{
closed = 1;
nodes = (
"245 350 OFFCURVE",
"280 408 OFFCURVE",
"316 494 CURVE",
"240 494 OFFCURVE",
"213 471 OFFCURVE",
"187 471 CURVE SMOOTH",
"165 471 OFFCURVE",
"149 487 OFFCURVE",
"149 507 CURVE SMOOTH",
"149 532 OFFCURVE",
"172 550 OFFCURVE",
"204 550 CURVE SMOOTH",
"215 550 OFFCURVE",
"230 545 OFFCURVE",
"264 532 CURVE SMOOTH",
"283 525 OFFCURVE",
"298 520 OFFCURVE",
"323 516 CURVE",
"327 526 LINE SMOOTH",
"334 548 OFFCURVE",
"337 567 OFFCURVE",
"341 606 CURVE SMOOTH",
"346 667 OFFCURVE",
"346 668 OFFCURVE",
"350 680 CURVE SMOOTH",
"357 702 OFFCURVE",
"372 714 OFFCURVE",
"392 714 CURVE SMOOTH",
"415 714 OFFCURVE",
"431 698 OFFCURVE",
"431 676 CURVE SMOOTH",
"431 660 OFFCURVE",
"424 648 OFFCURVE",
"393 605 CURVE SMOOTH",
"374 580 OFFCURVE",
"362 556 OFFCURVE",
"353 526 CURVE SMOOTH",
"349 516 LINE",
"362 518 OFFCURVE",
"393 525 OFFCURVE",
"415 532 CURVE SMOOTH",
"459 547 OFFCURVE",
"470 550 OFFCURVE",
"480 550 CURVE SMOOTH",
"502 550 OFFCURVE",
"519 534 OFFCURVE",
"519 515 CURVE SMOOTH",
"519 491 OFFCURVE",
"496 471 OFFCURVE",
"468 471 CURVE SMOOTH",
"435 471 OFFCURVE",
"415 494 OFFCURVE",
"341 494 CURVE",
"323 415 OFFCURVE",
"317 354 OFFCURVE",
"316 302 CURVE",
"286 251 OFFCURVE",
"255 191 OFFCURVE",
"215 101 CURVE",
"291 101 OFFCURVE",
"317 124 OFFCURVE",
"344 124 CURVE SMOOTH",
"366 124 OFFCURVE",
"382 108 OFFCURVE",
"382 88 CURVE SMOOTH",
"382 63 OFFCURVE",
"359 46 OFFCURVE",
"327 46 CURVE SMOOTH",
"309 46 OFFCURVE",
"281 65 OFFCURVE",
"207 79 CURVE",
"204 69 LINE SMOOTH",
"196 46 OFFCURVE",
"194 28 OFFCURVE",
"190 -11 CURVE SMOOTH",
"182 -98 OFFCURVE",
"172 -119 OFFCURVE",
"138 -119 CURVE SMOOTH",
"116 -119 OFFCURVE",
"100 -103 OFFCURVE",
"100 -81 CURVE SMOOTH",
"100 -65 OFFCURVE",
"107 -52 OFFCURVE",
"138 -10 CURVE SMOOTH",
"157 15 OFFCURVE",
"169 40 OFFCURVE",
"178 69 CURVE SMOOTH",
"181 79 LINE",
"169 77 OFFCURVE",
"137 71 OFFCURVE",
"115 63 CURVE SMOOTH",
"71 47 OFFCURVE",
"61 46 OFFCURVE",
"51 46 CURVE SMOOTH",
"28 46 OFFCURVE",
"11 60 OFFCURVE",
"11 80 CURVE SMOOTH",
"11 105 OFFCURVE",
"34 124 OFFCURVE",
"63 124 CURVE SMOOTH",
"95 124 OFFCURVE",
"116 101 OFFCURVE",
"189 101 CURVE",
"207 184 OFFCURVE",
"216 247 OFFCURVE",
"217 302 CURVE"
);
}
);
width = 489;
},
{
layerId = "5CF0B95A-6341-4D13-90DE-0CF1719C21EC";
paths = (
{
closed = 1;
nodes = (
"245 350 OFFCURVE",
"280 408 OFFCURVE",
"316 494 CURVE",
"240 494 OFFCURVE",
"213 471 OFFCURVE",
"187 471 CURVE SMOOTH",
"165 471 OFFCURVE",
"149 487 OFFCURVE",
"149 507 CURVE SMOOTH",
"149 532 OFFCURVE",
"172 550 OFFCURVE",
"204 550 CURVE SMOOTH",
"215 550 OFFCURVE",
"230 545 OFFCURVE",
"264 532 CURVE SMOOTH",
"283 525 OFFCURVE",
"298 520 OFFCURVE",
"323 516 CURVE",
"327 526 LINE SMOOTH",
"334 548 OFFCURVE",
"337 567 OFFCURVE",
"341 606 CURVE SMOOTH",
"346 667 OFFCURVE",
"346 668 OFFCURVE",
"350 680 CURVE SMOOTH",
"357 702 OFFCURVE",
"372 714 OFFCURVE",
"392 714 CURVE SMOOTH",
"415 714 OFFCURVE",
"431 698 OFFCURVE",
"431 676 CURVE SMOOTH",
"431 660 OFFCURVE",
"424 648 OFFCURVE",
"393 605 CURVE SMOOTH",
"374 580 OFFCURVE",
"362 556 OFFCURVE",
"353 526 CURVE SMOOTH",
"349 516 LINE",
"362 518 OFFCURVE",
"393 525 OFFCURVE",
"415 532 CURVE SMOOTH",
"459 547 OFFCURVE",
"470 550 OFFCURVE",
"480 550 CURVE SMOOTH",
"502 550 OFFCURVE",
"519 534 OFFCURVE",
"519 515 CURVE SMOOTH",
"519 491 OFFCURVE",
"496 471 OFFCURVE",
"468 471 CURVE SMOOTH",
"435 471 OFFCURVE",
"415 494 OFFCURVE",
"341 494 CURVE",
"323 415 OFFCURVE",
"317 354 OFFCURVE",
"316 302 CURVE",
"286 251 OFFCURVE",
"255 191 OFFCURVE",
"215 101 CURVE",
"291 101 OFFCURVE",
"317 124 OFFCURVE",
"344 124 CURVE SMOOTH",
"366 124 OFFCURVE",
"382 108 OFFCURVE",
"382 88 CURVE SMOOTH",
"382 63 OFFCURVE",
"359 46 OFFCURVE",
"327 46 CURVE SMOOTH",
"309 46 OFFCURVE",
"281 65 OFFCURVE",
"207 79 CURVE",
"204 69 LINE SMOOTH",
"196 46 OFFCURVE",
"194 28 OFFCURVE",
"190 -11 CURVE SMOOTH",
"182 -98 OFFCURVE",
"172 -119 OFFCURVE",
"138 -119 CURVE SMOOTH",
"116 -119 OFFCURVE",
"100 -103 OFFCURVE",
"100 -81 CURVE SMOOTH",
"100 -65 OFFCURVE",
"107 -52 OFFCURVE",
"138 -10 CURVE SMOOTH",
"157 15 OFFCURVE",
"169 40 OFFCURVE",
"178 69 CURVE SMOOTH",
"181 79 LINE",
"169 77 OFFCURVE",
"137 71 OFFCURVE",
"115 63 CURVE SMOOTH",
"71 47 OFFCURVE",
"61 46 OFFCURVE",
"51 46 CURVE SMOOTH",
"28 46 OFFCURVE",
"11 60 OFFCURVE",
"11 80 CURVE SMOOTH",
"11 105 OFFCURVE",
"34 124 OFFCURVE",
"63 124 CURVE SMOOTH",
"95 124 OFFCURVE",
"116 101 OFFCURVE",
"189 101 CURVE",
"207 184 OFFCURVE",
"216 247 OFFCURVE",
"217 302 CURVE"
);
}
);
width = 489;
}
);
unicode = 2021;
},
{
glyphname = dcroat;
lastChange = "2018-10-23 22:45:40 +0000";
layers = (
{
components = (
{
name = d;
}
);
layerId = master01;
paths = (
{
closed = 1;
nodes = (
"360 605 LINE",
"607 605 LINE",
"592 569 LINE",
"346 569 LINE"
);
}
);
width = 519;
},
{
components = (
{
name = d;
}
);
layerId = "5CF0B95A-6341-4D13-90DE-0CF1719C21EC";
paths = (
{
closed = 1;
nodes = (
"360 605 LINE",
"607 605 LINE",
"592 569 LINE",
"346 569 LINE"
);
}
);
width = 519;
}
);
leftKerningGroup = d;
rightKerningGroup = d;
unicode = 0111;
},
{
glyphname = degree;
lastChange = "2018-10-23 22:45:40 +0000";
layers = (
{
layerId = master01;
paths = (
{
closed = 1;
nodes = (
"238 505 OFFCURVE",
"193 550 OFFCURVE",
"193 609 CURVE SMOOTH",
"193 667 OFFCURVE",
"238 714 OFFCURVE",
"297 714 CURVE SMOOTH",
"354 714 OFFCURVE",
"401 667 OFFCURVE",
"401 609 CURVE SMOOTH",
"401 550 OFFCURVE",
"355 505 OFFCURVE",
"297 505 CURVE SMOOTH"
);
},
{
closed = 1;
nodes = (
"228 569 OFFCURVE",
"257 540 OFFCURVE",
"297 540 CURVE SMOOTH",
"338 540 OFFCURVE",
"366 569 OFFCURVE",
"366 609 CURVE SMOOTH",
"366 650 OFFCURVE",
"338 679 OFFCURVE",
"297 679 CURVE SMOOTH",
"257 679 OFFCURVE",
"228 650 OFFCURVE",
"228 609 CURVE SMOOTH"
);
}
);
width = 305;
},
{
layerId = "5CF0B95A-6341-4D13-90DE-0CF1719C21EC";
paths = (
{
closed = 1;
nodes = (
"238 505 OFFCURVE",
"193 550 OFFCURVE",
"193 609 CURVE SMOOTH",
"193 667 OFFCURVE",
"238 714 OFFCURVE",
"297 714 CURVE SMOOTH",
"354 714 OFFCURVE",
"401 667 OFFCURVE",
"401 609 CURVE SMOOTH",
"401 550 OFFCURVE",
"355 505 OFFCURVE",
"297 505 CURVE SMOOTH"
);
},
{
closed = 1;
nodes = (
"228 569 OFFCURVE",
"257 540 OFFCURVE",
"297 540 CURVE SMOOTH",
"338 540 OFFCURVE",
"366 569 OFFCURVE",
"366 609 CURVE SMOOTH",
"366 650 OFFCURVE",
"338 679 OFFCURVE",
"297 679 CURVE SMOOTH",
"257 679 OFFCURVE",
"228 650 OFFCURVE",
"228 609 CURVE SMOOTH"
);
}
);
width = 305;
}
);
unicode = 00B0;
},
{
glyphname = degree.tnum;
lastChange = "2018-10-23 22:45:40 +0000";
layers = (
{
layerId = master01;
paths = (
{
closed = 1;
nodes = (
"76 505 OFFCURVE",
"30 550 OFFCURVE",
"30 609 CURVE SMOOTH",
"30 667 OFFCURVE",
"76 714 OFFCURVE",
"134 714 CURVE SMOOTH",
"192 714 OFFCURVE",
"238 667 OFFCURVE",
"238 609 CURVE SMOOTH",
"238 550 OFFCURVE",
"193 505 OFFCURVE",
"134 505 CURVE SMOOTH"
);
},
{
closed = 1;
nodes = (
"65 569 OFFCURVE",
"95 540 OFFCURVE",
"134 540 CURVE SMOOTH",
"175 540 OFFCURVE",
"203 569 OFFCURVE",
"203 609 CURVE SMOOTH",
"203 650 OFFCURVE",
"175 679 OFFCURVE",
"134 679 CURVE SMOOTH",
"95 679 OFFCURVE",
"65 650 OFFCURVE",
"65 609 CURVE SMOOTH"
);
}
);
width = 268;
},
{
layerId = "5CF0B95A-6341-4D13-90DE-0CF1719C21EC";
paths = (
{
closed = 1;
nodes = (
"76 505 OFFCURVE",
"30 550 OFFCURVE",
"30 609 CURVE SMOOTH",
"30 667 OFFCURVE",
"76 714 OFFCURVE",
"134 714 CURVE SMOOTH",
"192 714 OFFCURVE",
"238 667 OFFCURVE",
"238 609 CURVE SMOOTH",
"238 550 OFFCURVE",
"193 505 OFFCURVE",
"134 505 CURVE SMOOTH"
);
},
{
closed = 1;
nodes = (
"65 569 OFFCURVE",
"95 540 OFFCURVE",
"134 540 CURVE SMOOTH",
"175 540 OFFCURVE",
"203 569 OFFCURVE",
"203 609 CURVE SMOOTH",
"203 650 OFFCURVE",
"175 679 OFFCURVE",
"134 679 CURVE SMOOTH",
"95 679 OFFCURVE",
"65 650 OFFCURVE",
"65 609 CURVE SMOOTH"
);
}
);
width = 268;
}
);
},
{
glyphname = dieresis;
lastChange = "2018-10-23 22:45:40 +0000";
layers = (
{
anchors = (
{
name = _top;
position = "{136, 560}";
}
);
layerId = master01;
paths = (
{
closed = 1;
nodes = (
"90 671 OFFCURVE",
"114 653 OFFCURVE",
"114 629 CURVE SMOOTH",
"114 601 OFFCURVE",
"85 575 OFFCURVE",
"56 575 CURVE SMOOTH",
"27 575 OFFCURVE",
"9 593 OFFCURVE",
"9 619 CURVE SMOOTH",
"9 647 OFFCURVE",
"35 671 OFFCURVE",
"65 671 CURVE SMOOTH"
);
},
{
closed = 1;
nodes = (
"241 671 OFFCURVE",
"264 653 OFFCURVE",
"264 629 CURVE SMOOTH",
"264 601 OFFCURVE",
"236 575 OFFCURVE",
"206 575 CURVE SMOOTH",
"177 575 OFFCURVE",
"159 593 OFFCURVE",
"159 619 CURVE SMOOTH",
"159 647 OFFCURVE",
"186 671 OFFCURVE",
"215 671 CURVE SMOOTH"
);
}
);
width = 273;
},
{
anchors = (
{
name = _top;
position = "{136, 560}";
}
);
layerId = "5CF0B95A-6341-4D13-90DE-0CF1719C21EC";
paths = (
{
closed = 1;
nodes = (
"90 671 OFFCURVE",
"114 653 OFFCURVE",
"114 629 CURVE SMOOTH",
"114 601 OFFCURVE",
"85 575 OFFCURVE",
"56 575 CURVE SMOOTH",
"27 575 OFFCURVE",
"9 593 OFFCURVE",
"9 619 CURVE SMOOTH",
"9 647 OFFCURVE",
"35 671 OFFCURVE",
"65 671 CURVE SMOOTH"
);
},
{
closed = 1;
nodes = (
"241 671 OFFCURVE",
"264 653 OFFCURVE",
"264 629 CURVE SMOOTH",
"264 601 OFFCURVE",
"236 575 OFFCURVE",
"206 575 CURVE SMOOTH",
"177 575 OFFCURVE",
"159 593 OFFCURVE",
"159 619 CURVE SMOOTH",
"159 647 OFFCURVE",
"186 671 OFFCURVE",
"215 671 CURVE SMOOTH"
);
}
);
width = 273;
}
);
unicode = 00A8;
},
{
glyphname = dieresis.cap;
lastChange = "2018-10-23 22:45:40 +0000";
layers = (
{
anchors = (
{
name = _topcap;
position = "{136, 714}";
}
);
layerId = master01;
paths = (
{
closed = 1;
nodes = (
"90 826 OFFCURVE",
"114 808 OFFCURVE",
"114 783 CURVE SMOOTH",
"114 756 OFFCURVE",
"85 730 OFFCURVE",
"56 730 CURVE SMOOTH",
"27 730 OFFCURVE",
"9 747 OFFCURVE",
"9 774 CURVE SMOOTH",
"9 802 OFFCURVE",
"35 826 OFFCURVE",
"65 826 CURVE SMOOTH"
);
},
{
closed = 1;
nodes = (
"241 826 OFFCURVE",
"264 808 OFFCURVE",
"264 783 CURVE SMOOTH",
"264 756 OFFCURVE",
"236 730 OFFCURVE",
"206 730 CURVE SMOOTH",
"177 730 OFFCURVE",
"159 747 OFFCURVE",
"159 774 CURVE SMOOTH",
"159 802 OFFCURVE",
"186 826 OFFCURVE",
"215 826 CURVE SMOOTH"
);
}
);
width = 273;
},
{
anchors = (
{
name = _topcap;
position = "{136, 714}";
}
);
layerId = "5CF0B95A-6341-4D13-90DE-0CF1719C21EC";
paths = (
{
closed = 1;
nodes = (
"90 826 OFFCURVE",
"114 808 OFFCURVE",
"114 783 CURVE SMOOTH",
"114 756 OFFCURVE",
"85 730 OFFCURVE",
"56 730 CURVE SMOOTH",
"27 730 OFFCURVE",
"9 747 OFFCURVE",
"9 774 CURVE SMOOTH",
"9 802 OFFCURVE",
"35 826 OFFCURVE",
"65 826 CURVE SMOOTH"
);
},
{
closed = 1;
nodes = (
"241 826 OFFCURVE",
"264 808 OFFCURVE",
"264 783 CURVE SMOOTH",
"264 756 OFFCURVE",
"236 730 OFFCURVE",
"206 730 CURVE SMOOTH",
"177 730 OFFCURVE",
"159 747 OFFCURVE",
"159 774 CURVE SMOOTH",
"159 802 OFFCURVE",
"186 826 OFFCURVE",
"215 826 CURVE SMOOTH"
);
}
);
width = 273;
}
);
},
{
glyphname = divide;
lastChange = "2018-10-23 22:45:40 +0000";
layers = (
{
components = (
{
name = minus;
transform = "{1, 0, 0, 1, -32, 0}";
}
);
layerId = master01;
paths = (
{
closed = 1;
nodes = (
"176 409 OFFCURVE",
"200 383 OFFCURVE",
"235 383 CURVE SMOOTH",
"272 383 OFFCURVE",
"295 409 OFFCURVE",
"295 441 CURVE SMOOTH",
"295 476 OFFCURVE",
"272 501 OFFCURVE",
"235 501 CURVE SMOOTH",
"200 501 OFFCURVE",
"176 476 OFFCURVE",
"176 441 CURVE SMOOTH"
);
},
{
closed = 1;
nodes = (
"176 114 OFFCURVE",
"200 88 OFFCURVE",
"235 88 CURVE SMOOTH",
"272 88 OFFCURVE",
"295 114 OFFCURVE",
"295 146 CURVE SMOOTH",
"295 181 OFFCURVE",
"272 206 OFFCURVE",
"235 206 CURVE SMOOTH",
"200 206 OFFCURVE",
"176 181 OFFCURVE",
"176 146 CURVE SMOOTH"
);
}
);
width = 458;
},
{
components = (
{
name = minus;
transform = "{1, 0, 0, 1, -32, 0}";
}
);
layerId = "5CF0B95A-6341-4D13-90DE-0CF1719C21EC";
paths = (
{
closed = 1;
nodes = (
"176 409 OFFCURVE",
"200 383 OFFCURVE",
"235 383 CURVE SMOOTH",
"272 383 OFFCURVE",
"295 409 OFFCURVE",
"295 441 CURVE SMOOTH",
"295 476 OFFCURVE",
"272 501 OFFCURVE",
"235 501 CURVE SMOOTH",
"200 501 OFFCURVE",
"176 476 OFFCURVE",
"176 441 CURVE SMOOTH"
);
},
{
closed = 1;
nodes = (
"176 114 OFFCURVE",
"200 88 OFFCURVE",
"235 88 CURVE SMOOTH",
"272 88 OFFCURVE",
"295 114 OFFCURVE",
"295 146 CURVE SMOOTH",
"295 181 OFFCURVE",
"272 206 OFFCURVE",
"235 206 CURVE SMOOTH",
"200 206 OFFCURVE",
"176 181 OFFCURVE",
"176 146 CURVE SMOOTH"
);
}
);
width = 458;
}
);
unicode = 00F7;
},
{
glyphname = divide.tnum;
lastChange = "2018-10-23 22:45:40 +0000";
layers = (
{
components = (
{
name = minus.tnum;
}
);
layerId = master01;
paths = (
{
closed = 1;
nodes = (
"192 409 OFFCURVE",
"215 383 OFFCURVE",
"250 383 CURVE SMOOTH",
"287 383 OFFCURVE",
"310 409 OFFCURVE",
"310 441 CURVE SMOOTH",
"310 476 OFFCURVE",
"287 501 OFFCURVE",
"250 501 CURVE SMOOTH",
"215 501 OFFCURVE",
"192 476 OFFCURVE",
"192 441 CURVE SMOOTH"
);
},
{
closed = 1;
nodes = (
"192 114 OFFCURVE",
"215 88 OFFCURVE",
"250 88 CURVE SMOOTH",
"287 88 OFFCURVE",
"310 114 OFFCURVE",
"310 146 CURVE SMOOTH",
"310 181 OFFCURVE",
"287 206 OFFCURVE",
"250 206 CURVE SMOOTH",
"215 206 OFFCURVE",
"192 181 OFFCURVE",
"192 146 CURVE SMOOTH"
);
}
);
width = 516;
},
{
components = (
{
name = minus.tnum;
}
);
layerId = "5CF0B95A-6341-4D13-90DE-0CF1719C21EC";
paths = (
{
closed = 1;
nodes = (
"192 409 OFFCURVE",
"215 383 OFFCURVE",
"250 383 CURVE SMOOTH",
"287 383 OFFCURVE",
"310 409 OFFCURVE",
"310 441 CURVE SMOOTH",
"310 476 OFFCURVE",
"287 501 OFFCURVE",
"250 501 CURVE SMOOTH",
"215 501 OFFCURVE",
"192 476 OFFCURVE",
"192 441 CURVE SMOOTH"
);
},
{
closed = 1;
nodes = (
"192 114 OFFCURVE",
"215 88 OFFCURVE",
"250 88 CURVE SMOOTH",
"287 88 OFFCURVE",
"310 114 OFFCURVE",
"310 146 CURVE SMOOTH",
"310 181 OFFCURVE",
"287 206 OFFCURVE",
"250 206 CURVE SMOOTH",
"215 206 OFFCURVE",
"192 181 OFFCURVE",
"192 146 CURVE SMOOTH"
);
}
);
width = 516;
}
);
},
{
glyphname = dollar;
lastChange = "2018-10-23 22:45:40 +0000";
layers = (
{
layerId = master01;
paths = (
{
closed = 1;
nodes = (
"443 784 LINE",
"396 670 LINE",
"390 670 OFFCURVE",
"384 671 OFFCURVE",
"377 671 CURVE SMOOTH",
"249 671 OFFCURVE",
"157 588 OFFCURVE",
"157 474 CURVE SMOOTH",
"157 391 OFFCURVE",
"202 345 OFFCURVE",
"247 298 CURVE",
"139 31 LINE",
"114 40 OFFCURVE",
"102 65 OFFCURVE",
"95 116 CURVE SMOOTH",
"90 155 OFFCURVE",
"75 174 OFFCURVE",
"48 174 CURVE SMOOTH",
"20 174 OFFCURVE",
"3 154 OFFCURVE",
"3 121 CURVE SMOOTH",
"3 59 OFFCURVE",
"52 10 OFFCURVE",
"125 -4 CURVE",
"75 -129 LINE",
"114 -129 LINE",
"162 -9 LINE",
"170 -9 LINE SMOOTH",
"311 -9 OFFCURVE",
"412 76 OFFCURVE",
"412 192 CURVE SMOOTH",
"412 245 OFFCURVE",
"395 280 OFFCURVE",
"316 373 CURVE",
"417 626 LINE",
"436 614 OFFCURVE",
"445 590 OFFCURVE",
"452 546 CURVE SMOOTH",
"457 507 OFFCURVE",
"472 488 OFFCURVE",
"499 488 CURVE SMOOTH",
"527 488 OFFCURVE",
"544 508 OFFCURVE",
"544 541 CURVE SMOOTH",
"544 599 OFFCURVE",
"500 647 OFFCURVE",
"433 664 CURVE",
"482 784 LINE"
);
},
{
closed = 1;
nodes = (
"273 267 LINE",
"298 236 OFFCURVE",
"319 200 OFFCURVE",
"319 152 CURVE SMOOTH",
"319 74 OFFCURVE",
"266 26 OFFCURVE",
"175 26 CURVE"
);
},
{
closed = 1;
nodes = (
"247 589 OFFCURVE",
"291 636 OFFCURVE",
"369 636 CURVE SMOOTH",
"374 636 OFFCURVE",
"378 636 OFFCURVE",
"383 636 CURVE",
"290 403 LINE",
"252 450 OFFCURVE",
"247 466 OFFCURVE",
"247 504 CURVE SMOOTH"
);
}
);
width = 496;
},
{
layerId = "5CF0B95A-6341-4D13-90DE-0CF1719C21EC";
paths = (
{
closed = 1;
nodes = (
"443 784 LINE",
"396 670 LINE",
"390 670 OFFCURVE",
"384 671 OFFCURVE",
"377 671 CURVE SMOOTH",
"249 671 OFFCURVE",
"157 588 OFFCURVE",
"157 474 CURVE SMOOTH",
"157 391 OFFCURVE",
"202 345 OFFCURVE",
"247 298 CURVE",
"139 31 LINE",
"114 40 OFFCURVE",
"102 65 OFFCURVE",
"95 116 CURVE SMOOTH",
"90 155 OFFCURVE",
"75 174 OFFCURVE",
"48 174 CURVE SMOOTH",
"20 174 OFFCURVE",
"3 154 OFFCURVE",
"3 121 CURVE SMOOTH",
"3 59 OFFCURVE",
"52 10 OFFCURVE",
"125 -4 CURVE",
"75 -129 LINE",
"114 -129 LINE",
"162 -9 LINE",
"170 -9 LINE SMOOTH",
"311 -9 OFFCURVE",
"412 76 OFFCURVE",
"412 192 CURVE SMOOTH",
"412 245 OFFCURVE",
"395 280 OFFCURVE",
"316 373 CURVE",
"417 626 LINE",
"436 614 OFFCURVE",
"445 590 OFFCURVE",
"452 546 CURVE SMOOTH",
"457 507 OFFCURVE",
"472 488 OFFCURVE",
"499 488 CURVE SMOOTH",
"527 488 OFFCURVE",
"544 508 OFFCURVE",
"544 541 CURVE SMOOTH",
"544 599 OFFCURVE",
"500 647 OFFCURVE",
"433 664 CURVE",
"482 784 LINE"
);
},
{
closed = 1;
nodes = (
"273 267 LINE",
"298 236 OFFCURVE",
"319 200 OFFCURVE",
"319 152 CURVE SMOOTH",
"319 74 OFFCURVE",
"266 26 OFFCURVE",
"175 26 CURVE"
);
},
{
closed = 1;
nodes = (
"247 589 OFFCURVE",
"291 636 OFFCURVE",
"369 636 CURVE SMOOTH",
"374 636 OFFCURVE",
"378 636 OFFCURVE",
"383 636 CURVE",
"290 403 LINE",
"252 450 OFFCURVE",
"247 466 OFFCURVE",
"247 504 CURVE SMOOTH"
);
}
);
width = 496;
}
);
unicode = 0024;
},
{
glyphname = dollar.tnum;
lastChange = "2018-10-23 22:45:40 +0000";
layers = (
{
layerId = master01;
paths = (
{
closed = 1;
nodes = (
"438 784 LINE",
"391 670 LINE",
"385 670 OFFCURVE",
"378 671 OFFCURVE",
"372 671 CURVE SMOOTH",
"243 671 OFFCURVE",
"151 588 OFFCURVE",
"151 474 CURVE SMOOTH",
"151 391 OFFCURVE",
"197 345 OFFCURVE",
"242 298 CURVE",
"134 31 LINE",
"108 40 OFFCURVE",
"97 65 OFFCURVE",
"90 116 CURVE SMOOTH",
"85 155 OFFCURVE",
"70 174 OFFCURVE",
"43 174 CURVE SMOOTH",
"15 174 OFFCURVE",
"-3 154 OFFCURVE",
"-3 121 CURVE SMOOTH",
"-3 59 OFFCURVE",
"47 10 OFFCURVE",
"120 -4 CURVE",
"70 -129 LINE",
"108 -129 LINE",
"157 -9 LINE",
"165 -9 LINE SMOOTH",
"306 -9 OFFCURVE",
"407 76 OFFCURVE",
"407 192 CURVE SMOOTH",
"407 245 OFFCURVE",
"390 280 OFFCURVE",
"310 373 CURVE",
"412 626 LINE",
"431 614 OFFCURVE",
"440 590 OFFCURVE",
"446 546 CURVE SMOOTH",
"452 507 OFFCURVE",
"467 488 OFFCURVE",
"494 488 CURVE SMOOTH",
"522 488 OFFCURVE",
"539 508 OFFCURVE",
"539 541 CURVE SMOOTH",
"539 599 OFFCURVE",
"495 647 OFFCURVE",
"427 664 CURVE",
"476 784 LINE"
);
},
{
closed = 1;
nodes = (
"267 267 LINE",
"293 236 OFFCURVE",
"314 200 OFFCURVE",
"314 152 CURVE SMOOTH",
"314 74 OFFCURVE",
"261 26 OFFCURVE",
"170 26 CURVE"
);
},
{
closed = 1;
nodes = (
"242 589 OFFCURVE",
"286 636 OFFCURVE",
"364 636 CURVE SMOOTH",
"369 636 OFFCURVE",
"373 636 OFFCURVE",
"378 636 CURVE",
"285 403 LINE",
"247 450 OFFCURVE",
"242 466 OFFCURVE",
"242 504 CURVE SMOOTH"
);
}
);
width = 504;
},
{
layerId = "5CF0B95A-6341-4D13-90DE-0CF1719C21EC";
paths = (
{
closed = 1;
nodes = (
"438 784 LINE",
"391 670 LINE",
"385 670 OFFCURVE",
"378 671 OFFCURVE",
"372 671 CURVE SMOOTH",
"243 671 OFFCURVE",
"151 588 OFFCURVE",
"151 474 CURVE SMOOTH",
"151 391 OFFCURVE",
"197 345 OFFCURVE",
"242 298 CURVE",
"134 31 LINE",
"108 40 OFFCURVE",
"97 65 OFFCURVE",
"90 116 CURVE SMOOTH",
"85 155 OFFCURVE",
"70 174 OFFCURVE",
"43 174 CURVE SMOOTH",
"15 174 OFFCURVE",
"-3 154 OFFCURVE",
"-3 121 CURVE SMOOTH",
"-3 59 OFFCURVE",
"47 10 OFFCURVE",
"120 -4 CURVE",
"70 -129 LINE",
"108 -129 LINE",
"157 -9 LINE",
"165 -9 LINE SMOOTH",
"306 -9 OFFCURVE",
"407 76 OFFCURVE",
"407 192 CURVE SMOOTH",
"407 245 OFFCURVE",
"390 280 OFFCURVE",
"310 373 CURVE",
"412 626 LINE",
"431 614 OFFCURVE",
"440 590 OFFCURVE",
"446 546 CURVE SMOOTH",
"452 507 OFFCURVE",
"467 488 OFFCURVE",
"494 488 CURVE SMOOTH",
"522 488 OFFCURVE",
"539 508 OFFCURVE",
"539 541 CURVE SMOOTH",
"539 599 OFFCURVE",
"495 647 OFFCURVE",
"427 664 CURVE",
"476 784 LINE"
);
},
{
closed = 1;
nodes = (
"267 267 LINE",
"293 236 OFFCURVE",
"314 200 OFFCURVE",
"314 152 CURVE SMOOTH",
"314 74 OFFCURVE",
"261 26 OFFCURVE",
"170 26 CURVE"
);
},
{
closed = 1;
nodes = (
"242 589 OFFCURVE",
"286 636 OFFCURVE",
"364 636 CURVE SMOOTH",
"369 636 OFFCURVE",
"373 636 OFFCURVE",
"378 636 CURVE",
"285 403 LINE",
"247 450 OFFCURVE",
"242 466 OFFCURVE",
"242 504 CURVE SMOOTH"
);
}
);
width = 504;
}
);
},
{
glyphname = dotaccent;
lastChange = "2018-10-23 22:45:40 +0000";
layers = (
{
anchors = (
{
name = _top;
position = "{62, 560}";
}
);
layerId = master01;
paths = (
{
closed = 1;
nodes = (
"101 671 OFFCURVE",
"126 650 OFFCURVE",
"126 624 CURVE SMOOTH",
"126 593 OFFCURVE",
"95 563 OFFCURVE",
"62 563 CURVE SMOOTH",
"29 563 OFFCURVE",
"9 583 OFFCURVE",
"9 612 CURVE SMOOTH",
"9 644 OFFCURVE",
"39 671 OFFCURVE",
"71 671 CURVE SMOOTH"
);
}
);
width = 135;
},
{
anchors = (
{
name = _top;
position = "{62, 560}";
}
);
layerId = "5CF0B95A-6341-4D13-90DE-0CF1719C21EC";
paths = (
{
closed = 1;
nodes = (
"101 671 OFFCURVE",
"126 650 OFFCURVE",
"126 624 CURVE SMOOTH",
"126 593 OFFCURVE",
"95 563 OFFCURVE",
"62 563 CURVE SMOOTH",
"29 563 OFFCURVE",
"9 583 OFFCURVE",
"9 612 CURVE SMOOTH",
"9 644 OFFCURVE",
"39 671 OFFCURVE",
"71 671 CURVE SMOOTH"
);
}
);
width = 135;
}
);
unicode = 02D9;
},
{
glyphname = dotaccent.cap;
lastChange = "2018-10-23 22:45:40 +0000";
layers = (
{
anchors = (
{
name = _topcap;
position = "{62, 714}";
}
);
layerId = master01;
paths = (
{
closed = 1;
nodes = (
"101 826 OFFCURVE",
"126 805 OFFCURVE",
"126 778 CURVE SMOOTH",
"126 747 OFFCURVE",
"95 718 OFFCURVE",
"62 718 CURVE SMOOTH",
"29 718 OFFCURVE",
"9 738 OFFCURVE",
"9 767 CURVE SMOOTH",
"9 799 OFFCURVE",
"39 826 OFFCURVE",
"71 826 CURVE SMOOTH"
);
}
);
width = 135;
},
{
anchors = (
{
name = _topcap;
position = "{62, 714}";
}
);
layerId = "5CF0B95A-6341-4D13-90DE-0CF1719C21EC";
paths = (
{
closed = 1;
nodes = (
"101 826 OFFCURVE",
"126 805 OFFCURVE",
"126 778 CURVE SMOOTH",
"126 747 OFFCURVE",
"95 718 OFFCURVE",
"62 718 CURVE SMOOTH",
"29 718 OFFCURVE",
"9 738 OFFCURVE",
"9 767 CURVE SMOOTH",
"9 799 OFFCURVE",
"39 826 OFFCURVE",
"71 826 CURVE SMOOTH"
);
}
);
width = 135;
}
);
},
{
glyphname = dotbelow;
lastChange = "2018-10-23 22:45:40 +0000";
layers = (
{
anchors = (
{
name = _bottom;
position = "{138, 0}";
}
);
layerId = master01;
paths = (
{
closed = 1;
nodes = (
"101 -113 OFFCURVE",
"126 -133 OFFCURVE",
"126 -160 CURVE SMOOTH",
"126 -191 OFFCURVE",
"95 -220 OFFCURVE",
"62 -220 CURVE SMOOTH",
"29 -220 OFFCURVE",
"9 -200 OFFCURVE",
"9 -171 CURVE SMOOTH",
"9 -139 OFFCURVE",
"39 -113 OFFCURVE",
"71 -113 CURVE SMOOTH"
);
}
);
width = 128;
},
{
anchors = (
{
name = _bottom;
position = "{138, 0}";
}
);
layerId = "5CF0B95A-6341-4D13-90DE-0CF1719C21EC";
paths = (
{
closed = 1;
nodes = (
"101 -113 OFFCURVE",
"126 -133 OFFCURVE",
"126 -160 CURVE SMOOTH",
"126 -191 OFFCURVE",
"95 -220 OFFCURVE",
"62 -220 CURVE SMOOTH",
"29 -220 OFFCURVE",
"9 -200 OFFCURVE",
"9 -171 CURVE SMOOTH",
"9 -139 OFFCURVE",
"39 -113 OFFCURVE",
"71 -113 CURVE SMOOTH"
);
}
);
width = 128;
}
);
},
{
glyphname = dotlessi;
lastChange = "2018-10-23 22:45:40 +0000";
layers = (
{
anchors = (
{
name = bottom;
position = "{77, 0}";
},
{
name = top;
position = "{256, 560}";
}
);
layerId = master01;
paths = (
{
closed = 1;
nodes = (
"228 464 OFFCURVE",
"251 450 OFFCURVE",
"251 422 CURVE SMOOTH",
"251 406 OFFCURVE",
"246 386 OFFCURVE",
"237 366 CURVE SMOOTH",
"114 70 LINE SMOOTH",
"113 65 OFFCURVE",
"112 62 OFFCURVE",
"112 58 CURVE SMOOTH",
"112 49 OFFCURVE",
"119 42 OFFCURVE",
"129 42 CURVE SMOOTH",
"145 42 OFFCURVE",
"163 56 OFFCURVE",
"219 111 CURVE",
"237 101 LINE",
"183 33 OFFCURVE",
"119 -9 OFFCURVE",
"76 -9 CURVE SMOOTH",
"42 -9 OFFCURVE",
"20 7 OFFCURVE",
"20 40 CURVE SMOOTH",
"20 54 OFFCURVE",
"23 73 OFFCURVE",
"33 95 CURVE SMOOTH",
"157 402 LINE SMOOTH",
"161 409 OFFCURVE",
"162 415 OFFCURVE",
"162 418 CURVE SMOOTH",
"162 423 OFFCURVE",
"158 426 OFFCURVE",
"151 426 CURVE SMOOTH",
"130 426 OFFCURVE",
"101 405 OFFCURVE",
"75 372 CURVE",
"55 388 LINE",
"94 435 OFFCURVE",
"150 464 OFFCURVE",
"195 464 CURVE SMOOTH {name = hr00;}"
);
}
);
width = 292;
},
{
anchors = (
{
name = bottom;
position = "{77, 0}";
},
{
name = top;
position = "{256, 560}";
}
);
layerId = "5CF0B95A-6341-4D13-90DE-0CF1719C21EC";
paths = (
{
closed = 1;
nodes = (
"228 464 OFFCURVE",
"251 450 OFFCURVE",
"251 422 CURVE SMOOTH",
"251 406 OFFCURVE",
"246 386 OFFCURVE",
"237 366 CURVE SMOOTH",
"114 70 LINE SMOOTH",
"113 65 OFFCURVE",
"112 62 OFFCURVE",
"112 58 CURVE SMOOTH",
"112 49 OFFCURVE",
"119 42 OFFCURVE",
"129 42 CURVE SMOOTH",
"145 42 OFFCURVE",
"163 56 OFFCURVE",
"219 111 CURVE",
"237 101 LINE",
"183 33 OFFCURVE",
"119 -9 OFFCURVE",
"76 -9 CURVE SMOOTH",
"42 -9 OFFCURVE",
"20 7 OFFCURVE",
"20 40 CURVE SMOOTH",
"20 54 OFFCURVE",
"23 73 OFFCURVE",
"33 95 CURVE SMOOTH",
"157 402 LINE SMOOTH",
"161 409 OFFCURVE",
"162 415 OFFCURVE",
"162 418 CURVE SMOOTH",
"162 423 OFFCURVE",
"158 426 OFFCURVE",
"151 426 CURVE SMOOTH",
"130 426 OFFCURVE",
"101 405 OFFCURVE",
"75 372 CURVE",
"55 388 LINE",
"94 435 OFFCURVE",
"150 464 OFFCURVE",
"195 464 CURVE SMOOTH {name = hr00;}"
);
}
);
width = 292;
}
);
leftKerningGroup = i;
rightKerningGroup = i;
unicode = 0131;
},
{
glyphname = dotlessj;
lastChange = "2018-10-23 22:45:40 +0000";
layers = (
{
anchors = (
{
name = top;
position = "{254, 560}";
}
);
layerId = master01;
paths = (
{
closed = 1;
nodes = (
"226 464 OFFCURVE",
"244 449 OFFCURVE",
"244 423 CURVE SMOOTH",
"243 392 OFFCURVE",
"217 310 OFFCURVE",
"156 175 CURVE SMOOTH",
"46 -70 LINE SMOOTH",
"3 -167 OFFCURVE",
"-65 -220 OFFCURVE",
"-150 -220 CURVE SMOOTH",
"-208 -220 OFFCURVE",
"-250 -194 OFFCURVE",
"-250 -154 CURVE SMOOTH",
"-250 -128 OFFCURVE",
"-237 -114 OFFCURVE",
"-211 -114 CURVE SMOOTH",
"-151 -114 OFFCURVE",
"-180 -190 OFFCURVE",
"-125 -190 CURVE SMOOTH",
"-90 -190 OFFCURVE",
"-61 -151 OFFCURVE",
"-11 -24 CURVE SMOOTH {name = hr01;}",
"83 217 LINE SMOOTH",
"139 360 OFFCURVE",
"152 394 OFFCURVE",
"152 412 CURVE SMOOTH",
"152 421 OFFCURVE",
"149 423 OFFCURVE",
"140 423 CURVE SMOOTH",
"120 423 OFFCURVE",
"95 405 OFFCURVE",
"69 372 CURVE",
"51 388 LINE",
"92 437 OFFCURVE",
"144 464 OFFCURVE",
"190 464 CURVE SMOOTH"
);
}
);
width = 263;
},
{
anchors = (
{
name = top;
position = "{254, 560}";
}
);
layerId = "5CF0B95A-6341-4D13-90DE-0CF1719C21EC";
paths = (
{
closed = 1;
nodes = (
"226 464 OFFCURVE",
"244 449 OFFCURVE",
"244 423 CURVE SMOOTH",
"243 392 OFFCURVE",
"217 310 OFFCURVE",
"156 175 CURVE SMOOTH",
"46 -70 LINE SMOOTH",
"3 -167 OFFCURVE",
"-65 -220 OFFCURVE",
"-150 -220 CURVE SMOOTH",
"-208 -220 OFFCURVE",
"-250 -194 OFFCURVE",
"-250 -154 CURVE SMOOTH",
"-250 -128 OFFCURVE",
"-237 -114 OFFCURVE",
"-211 -114 CURVE SMOOTH",
"-151 -114 OFFCURVE",
"-180 -190 OFFCURVE",
"-125 -190 CURVE SMOOTH",
"-90 -190 OFFCURVE",
"-61 -151 OFFCURVE",
"-11 -24 CURVE SMOOTH {name = hr01;}",
"83 217 LINE SMOOTH",
"139 360 OFFCURVE",
"152 394 OFFCURVE",
"152 412 CURVE SMOOTH",
"152 421 OFFCURVE",
"149 423 OFFCURVE",
"140 423 CURVE SMOOTH",
"120 423 OFFCURVE",
"95 405 OFFCURVE",
"69 372 CURVE",
"51 388 LINE",
"92 437 OFFCURVE",
"144 464 OFFCURVE",
"190 464 CURVE SMOOTH"
);
}
);
width = 263;
}
);
leftKerningGroup = j;
rightKerningGroup = j;
unicode = 0237;
},
{
glyphname = e;
lastChange = "2018-10-23 22:45:40 +0000";
layers = (
{
anchors = (
{
name = bottom;
position = "{120, 0}";
},
{
name = top;
position = "{364, 560}";
}
);
layerId = master01;
paths = (
{
closed = 1;
nodes = (
"393 464 OFFCURVE",
"425 442 OFFCURVE",
"425 405 CURVE SMOOTH",
"425 333 OFFCURVE",
"304 261 OFFCURVE",
"132 231 CURVE",
"100 170 OFFCURVE",
"83 119 OFFCURVE",
"83 79 CURVE SMOOTH",
"83 40 OFFCURVE",
"100 22 OFFCURVE",
"133 22 CURVE SMOOTH",
"187 22 OFFCURVE",
"260 69 OFFCURVE",
"310 137 CURVE",
"329 125 LINE",
"259 36 OFFCURVE",
"185 -9 OFFCURVE",
"112 -9 CURVE SMOOTH",
"41 -9 OFFCURVE",
"0 34 OFFCURVE",
"0 108 CURVE SMOOTH",
"0 266 OFFCURVE",
"190 464 OFFCURVE",
"342 464 CURVE SMOOTH {name = hr00;}"
);
},
{
closed = 1;
nodes = (
"258 280 OFFCURVE",
"356 353 OFFCURVE",
"356 412 CURVE SMOOTH",
"356 429 OFFCURVE",
"347 438 OFFCURVE",
"329 438 CURVE SMOOTH",
"281 438 OFFCURVE",
"218 384 OFFCURVE",
"179 310 CURVE SMOOTH",
"151 260 LINE"
);
}
);
width = 417;
},
{
anchors = (
{
name = bottom;
position = "{120, 0}";
},
{
name = top;
position = "{364, 560}";
}
);
layerId = "5CF0B95A-6341-4D13-90DE-0CF1719C21EC";
paths = (
{
closed = 1;
nodes = (
"393 464 OFFCURVE",
"425 442 OFFCURVE",
"425 405 CURVE SMOOTH",
"425 333 OFFCURVE",
"304 261 OFFCURVE",
"132 231 CURVE",
"100 170 OFFCURVE",
"83 119 OFFCURVE",
"83 79 CURVE SMOOTH",
"83 40 OFFCURVE",
"100 22 OFFCURVE",
"133 22 CURVE SMOOTH",
"187 22 OFFCURVE",
"260 69 OFFCURVE",
"310 137 CURVE",
"329 125 LINE",
"259 36 OFFCURVE",
"185 -9 OFFCURVE",
"112 -9 CURVE SMOOTH",
"41 -9 OFFCURVE",
"0 34 OFFCURVE",
"0 108 CURVE SMOOTH",
"0 266 OFFCURVE",
"190 464 OFFCURVE",
"342 464 CURVE SMOOTH {name = hr00;}"
);
},
{
closed = 1;
nodes = (
"258 280 OFFCURVE",
"356 353 OFFCURVE",
"356 412 CURVE SMOOTH",
"356 429 OFFCURVE",
"347 438 OFFCURVE",
"329 438 CURVE SMOOTH",
"281 438 OFFCURVE",
"218 384 OFFCURVE",
"179 310 CURVE SMOOTH",
"151 260 LINE"
);
}
);
width = 417;
}
);
leftKerningGroup = e;
rightKerningGroup = e;
unicode = 0065;
},
{
glyphname = e_t;
lastChange = "2018-10-23 22:45:40 +0000";
layers = (
{
components = (
{
name = e;
}
);
layerId = master01;
paths = (
{
closed = 1;
nodes = (
"600 456 LINE",
"637 488 OFFCURVE",
"663 519 OFFCURVE",
"676 548 CURVE",
"656 541 OFFCURVE",
"634 538 OFFCURVE",
"610 538 CURVE SMOOTH",
"526 538 OFFCURVE",
"488 585 OFFCURVE",
"421 585 CURVE SMOOTH",
"373 585 OFFCURVE",
"347 563 OFFCURVE",
"347 525 CURVE SMOOTH",
"347 495 OFFCURVE",
"363 476 OFFCURVE",
"408 444 CURVE",
"385 433 LINE",
"329 470 OFFCURVE",
"299 513 OFFCURVE",
"299 561 CURVE SMOOTH",
"299 610 OFFCURVE",
"332 640 OFFCURVE",
"385 640 CURVE SMOOTH",
"471 640 OFFCURVE",
"536 563 OFFCURVE",
"622 563 CURVE SMOOTH",
"644 563 OFFCURVE",
"667 568 OFFCURVE",
"684 577 CURVE",
"685 581 OFFCURVE",
"685 584 OFFCURVE",
"685 587 CURVE SMOOTH",
"685 620 LINE SMOOTH",
"685 653 OFFCURVE",
"698 671 OFFCURVE",
"722 671 CURVE SMOOTH",
"741 671 OFFCURVE",
"752 659 OFFCURVE",
"752 638 CURVE SMOOTH",
"752 621 OFFCURVE",
"746 604 OFFCURVE",
"733 587 CURVE",
"687 456 LINE",
"764 456 LINE",
"754 428 LINE",
"676 428 LINE",
"605 262 LINE SMOOTH",
"531 89 OFFCURVE",
"525 75 OFFCURVE",
"525 63 CURVE SMOOTH",
"525 50 OFFCURVE",
"531 42 OFFCURVE",
"544 42 CURVE SMOOTH",
"561 42 OFFCURVE",
"587 63 OFFCURVE",
"633 111 CURVE",
"650 101 LINE",
"595 31 OFFCURVE",
"534 -9 OFFCURVE",
"484 -9 CURVE SMOOTH",
"450 -9 OFFCURVE",
"439 8 OFFCURVE",
"439 46 CURVE SMOOTH",
"439 70 OFFCURVE",
"446 99 OFFCURVE",
"498 219 CURVE SMOOTH",
"587 428 LINE",
"517 428 LINE",
"526 456 LINE"
);
}
);
width = 722;
},
{
components = (
{
name = e;
}
);
layerId = "5CF0B95A-6341-4D13-90DE-0CF1719C21EC";
paths = (
{
closed = 1;
nodes = (
"600 456 LINE",
"637 488 OFFCURVE",
"663 519 OFFCURVE",
"676 548 CURVE",
"656 541 OFFCURVE",
"634 538 OFFCURVE",
"610 538 CURVE SMOOTH",
"526 538 OFFCURVE",
"488 585 OFFCURVE",
"421 585 CURVE SMOOTH",
"373 585 OFFCURVE",
"347 563 OFFCURVE",
"347 525 CURVE SMOOTH",
"347 495 OFFCURVE",
"363 476 OFFCURVE",
"408 444 CURVE",
"385 433 LINE",
"329 470 OFFCURVE",
"299 513 OFFCURVE",
"299 561 CURVE SMOOTH",
"299 610 OFFCURVE",
"332 640 OFFCURVE",
"385 640 CURVE SMOOTH",
"471 640 OFFCURVE",
"536 563 OFFCURVE",
"622 563 CURVE SMOOTH",
"644 563 OFFCURVE",
"667 568 OFFCURVE",
"684 577 CURVE",
"685 581 OFFCURVE",
"685 584 OFFCURVE",
"685 587 CURVE SMOOTH",
"685 620 LINE SMOOTH",
"685 653 OFFCURVE",
"698 671 OFFCURVE",
"722 671 CURVE SMOOTH",
"741 671 OFFCURVE",
"752 659 OFFCURVE",
"752 638 CURVE SMOOTH",
"752 621 OFFCURVE",
"746 604 OFFCURVE",
"733 587 CURVE",
"687 456 LINE",
"764 456 LINE",
"754 428 LINE",
"676 428 LINE",
"605 262 LINE SMOOTH",
"531 89 OFFCURVE",
"525 75 OFFCURVE",
"525 63 CURVE SMOOTH",
"525 50 OFFCURVE",
"531 42 OFFCURVE",
"544 42 CURVE SMOOTH",
"561 42 OFFCURVE",
"587 63 OFFCURVE",
"633 111 CURVE",
"650 101 LINE",
"595 31 OFFCURVE",
"534 -9 OFFCURVE",
"484 -9 CURVE SMOOTH",
"450 -9 OFFCURVE",
"439 8 OFFCURVE",
"439 46 CURVE SMOOTH",
"439 70 OFFCURVE",
"446 99 OFFCURVE",
"498 219 CURVE SMOOTH",
"587 428 LINE",
"517 428 LINE",
"526 456 LINE"
);
}
);
width = 722;
}
);
leftKerningGroup = e;
rightKerningGroup = t;
},
{
glyphname = eight;
lastChange = "2018-10-23 22:45:40 +0000";
layers = (
{
layerId = master01;
paths = (
{
closed = 1;
nodes = (
"205 400 OFFCURVE",
"175 447 OFFCURVE",
"175 503 CURVE SMOOTH",
"175 617 OFFCURVE",
"267 671 OFFCURVE",
"361 671 CURVE SMOOTH",
"452 671 OFFCURVE",
"508 622 OFFCURVE",
"508 551 CURVE SMOOTH",
"508 458 OFFCURVE",
"417 410 OFFCURVE",
"345 378 CURVE",
"372 345 LINE SMOOTH",
"403 307 OFFCURVE",
"433 254 OFFCURVE",
"433 198 CURVE SMOOTH",
"433 56 OFFCURVE",
"328 -9 OFFCURVE",
"222 -9 CURVE SMOOTH",
"91 -9 OFFCURVE",
"32 67 OFFCURVE",
"32 148 CURVE SMOOTH",
"32 266 OFFCURVE",
"152 328 OFFCURVE",
"236 362 CURVE",
"218 384 LINE SMOOTH"
);
},
{
closed = 1;
nodes = (
"175 292 OFFCURVE",
"121 253 OFFCURVE",
"121 154 CURVE SMOOTH",
"121 85 OFFCURVE",
"158 28 OFFCURVE",
"232 28 CURVE SMOOTH",
"309 28 OFFCURVE",
"355 77 OFFCURVE",
"355 156 CURVE SMOOTH",
"355 200 OFFCURVE",
"336 236 OFFCURVE",
"309 270 CURVE SMOOTH",
"256 335 LINE"
);
},
{
closed = 1;
nodes = (
"381 441 OFFCURVE",
"428 489 OFFCURVE",
"428 560 CURVE SMOOTH",
"428 604 OFFCURVE",
"407 635 OFFCURVE",
"357 635 CURVE SMOOTH",
"296 635 OFFCURVE",
"249 596 OFFCURVE",
"249 536 CURVE SMOOTH",
"249 481 OFFCURVE",
"291 436 OFFCURVE",
"323 402 CURVE"
);
}
);
width = 534;
},
{
layerId = "5CF0B95A-6341-4D13-90DE-0CF1719C21EC";
paths = (
{
closed = 1;
nodes = (
"205 400 OFFCURVE",
"175 447 OFFCURVE",
"175 503 CURVE SMOOTH",
"175 617 OFFCURVE",
"267 671 OFFCURVE",
"361 671 CURVE SMOOTH",
"452 671 OFFCURVE",
"508 622 OFFCURVE",
"508 551 CURVE SMOOTH",
"508 458 OFFCURVE",
"417 410 OFFCURVE",
"345 378 CURVE",
"372 345 LINE SMOOTH",
"403 307 OFFCURVE",
"433 254 OFFCURVE",
"433 198 CURVE SMOOTH",
"433 56 OFFCURVE",
"328 -9 OFFCURVE",
"222 -9 CURVE SMOOTH",
"91 -9 OFFCURVE",
"32 67 OFFCURVE",
"32 148 CURVE SMOOTH",
"32 266 OFFCURVE",
"152 328 OFFCURVE",
"236 362 CURVE",
"218 384 LINE SMOOTH"
);
},
{
closed = 1;
nodes = (
"175 292 OFFCURVE",
"121 253 OFFCURVE",
"121 154 CURVE SMOOTH",
"121 85 OFFCURVE",
"158 28 OFFCURVE",
"232 28 CURVE SMOOTH",
"309 28 OFFCURVE",
"355 77 OFFCURVE",
"355 156 CURVE SMOOTH",
"355 200 OFFCURVE",
"336 236 OFFCURVE",
"309 270 CURVE SMOOTH",
"256 335 LINE"
);
},
{
closed = 1;
nodes = (
"381 441 OFFCURVE",
"428 489 OFFCURVE",
"428 560 CURVE SMOOTH",
"428 604 OFFCURVE",
"407 635 OFFCURVE",
"357 635 CURVE SMOOTH",
"296 635 OFFCURVE",
"249 596 OFFCURVE",
"249 536 CURVE SMOOTH",
"249 481 OFFCURVE",
"291 436 OFFCURVE",
"323 402 CURVE"
);
}
);
width = 534;
}
);
unicode = 0038;
},
{
glyphname = eight.denominator;
lastChange = "2018-10-23 22:45:40 +0000";
layers = (
{
layerId = master01;
paths = (
{
closed = 1;
nodes = (
"73 243 OFFCURVE",
"62 268 OFFCURVE",
"62 293 CURVE SMOOTH",
"62 359 OFFCURVE",
"120 391 OFFCURVE",
"179 391 CURVE SMOOTH",
"237 391 OFFCURVE",
"273 363 OFFCURVE",
"273 321 CURVE SMOOTH",
"273 267 OFFCURVE",
"223 234 OFFCURVE",
"180 215 CURVE",
"196 195 LINE SMOOTH",
"219 167 OFFCURVE",
"229 137 OFFCURVE",
"229 114 CURVE SMOOTH",
"229 30 OFFCURVE",
"163 -9 OFFCURVE",
"98 -9 CURVE SMOOTH",
"15 -9 OFFCURVE",
"-22 36 OFFCURVE",
"-22 84 CURVE SMOOTH",
"-22 153 OFFCURVE",
"52 186 OFFCURVE",
"101 206 CURVE",
"91 219 LINE SMOOTH"
);
},
{
closed = 1;
nodes = (
"76 165 OFFCURVE",
"42 145 OFFCURVE",
"42 88 CURVE SMOOTH",
"42 53 OFFCURVE",
"62 23 OFFCURVE",
"104 23 CURVE SMOOTH",
"144 23 OFFCURVE",
"169 50 OFFCURVE",
"169 80 CURVE SMOOTH",
"169 105 OFFCURVE",
"163 122 OFFCURVE",
"144 152 CURVE SMOOTH",
"121 191 LINE"
);
},
{
closed = 1;
nodes = (
"188 257 OFFCURVE",
"215 285 OFFCURVE",
"215 326 CURVE SMOOTH",
"215 345 OFFCURVE",
"203 360 OFFCURVE",
"177 360 CURVE SMOOTH",
"146 360 OFFCURVE",
"121 341 OFFCURVE",
"121 312 CURVE SMOOTH",
"121 290 OFFCURVE",
"130 268 OFFCURVE",
"157 234 CURVE"
);
}
);
width = 340;
},
{
layerId = "5CF0B95A-6341-4D13-90DE-0CF1719C21EC";
paths = (
{
closed = 1;
nodes = (
"73 243 OFFCURVE",
"62 268 OFFCURVE",
"62 293 CURVE SMOOTH",
"62 359 OFFCURVE",
"120 391 OFFCURVE",
"179 391 CURVE SMOOTH",
"237 391 OFFCURVE",
"273 363 OFFCURVE",
"273 321 CURVE SMOOTH",
"273 267 OFFCURVE",
"223 234 OFFCURVE",
"180 215 CURVE",
"196 195 LINE SMOOTH",
"219 167 OFFCURVE",
"229 137 OFFCURVE",
"229 114 CURVE SMOOTH",
"229 30 OFFCURVE",
"163 -9 OFFCURVE",
"98 -9 CURVE SMOOTH",
"15 -9 OFFCURVE",
"-22 36 OFFCURVE",
"-22 84 CURVE SMOOTH",
"-22 153 OFFCURVE",
"52 186 OFFCURVE",
"101 206 CURVE",
"91 219 LINE SMOOTH"
);
},
{
closed = 1;
nodes = (
"76 165 OFFCURVE",
"42 145 OFFCURVE",
"42 88 CURVE SMOOTH",
"42 53 OFFCURVE",
"62 23 OFFCURVE",
"104 23 CURVE SMOOTH",
"144 23 OFFCURVE",
"169 50 OFFCURVE",
"169 80 CURVE SMOOTH",
"169 105 OFFCURVE",
"163 122 OFFCURVE",
"144 152 CURVE SMOOTH",
"121 191 LINE"
);
},
{
closed = 1;
nodes = (
"188 257 OFFCURVE",
"215 285 OFFCURVE",
"215 326 CURVE SMOOTH",
"215 345 OFFCURVE",
"203 360 OFFCURVE",
"177 360 CURVE SMOOTH",
"146 360 OFFCURVE",
"121 341 OFFCURVE",
"121 312 CURVE SMOOTH",
"121 290 OFFCURVE",
"130 268 OFFCURVE",
"157 234 CURVE"
);
}
);
width = 340;
}
);
},
{
glyphname = eight.numerator;
lastChange = "2018-10-23 22:45:40 +0000";
layers = (
{
layerId = master01;
paths = (
{
closed = 1;
nodes = (
"192 521 OFFCURVE",
"181 547 OFFCURVE",
"181 572 CURVE SMOOTH",
"181 638 OFFCURVE",
"239 670 OFFCURVE",
"298 670 CURVE SMOOTH",
"356 670 OFFCURVE",
"391 642 OFFCURVE",
"391 599 CURVE SMOOTH",
"391 545 OFFCURVE",
"341 513 OFFCURVE",
"298 494 CURVE",
"315 474 LINE SMOOTH",
"338 445 OFFCURVE",
"347 415 OFFCURVE",
"347 392 CURVE SMOOTH",
"347 309 OFFCURVE",
"282 270 OFFCURVE",
"217 270 CURVE SMOOTH",
"133 270 OFFCURVE",
"96 315 OFFCURVE",
"96 363 CURVE SMOOTH",
"96 432 OFFCURVE",
"171 464 OFFCURVE",
"219 485 CURVE",
"210 498 LINE SMOOTH"
);
},
{
closed = 1;
nodes = (
"194 444 OFFCURVE",
"161 424 OFFCURVE",
"161 366 CURVE SMOOTH",
"161 332 OFFCURVE",
"181 302 OFFCURVE",
"223 302 CURVE SMOOTH",
"263 302 OFFCURVE",
"287 329 OFFCURVE",
"287 359 CURVE SMOOTH",
"287 384 OFFCURVE",
"281 401 OFFCURVE",
"263 431 CURVE SMOOTH",
"240 470 LINE"
);
},
{
closed = 1;
nodes = (
"307 536 OFFCURVE",
"334 563 OFFCURVE",
"334 605 CURVE SMOOTH",
"334 624 OFFCURVE",
"322 639 OFFCURVE",
"296 639 CURVE SMOOTH",
"265 639 OFFCURVE",
"240 619 OFFCURVE",
"240 591 CURVE SMOOTH",
"240 568 OFFCURVE",
"249 547 OFFCURVE",
"276 513 CURVE"
);
}
);
width = 341;
},
{
layerId = "5CF0B95A-6341-4D13-90DE-0CF1719C21EC";
paths = (
{
closed = 1;
nodes = (
"192 521 OFFCURVE",
"181 547 OFFCURVE",
"181 572 CURVE SMOOTH",
"181 638 OFFCURVE",
"239 670 OFFCURVE",
"298 670 CURVE SMOOTH",
"356 670 OFFCURVE",
"391 642 OFFCURVE",
"391 599 CURVE SMOOTH",
"391 545 OFFCURVE",
"341 513 OFFCURVE",
"298 494 CURVE",
"315 474 LINE SMOOTH",
"338 445 OFFCURVE",
"347 415 OFFCURVE",
"347 392 CURVE SMOOTH",
"347 309 OFFCURVE",
"282 270 OFFCURVE",
"217 270 CURVE SMOOTH",
"133 270 OFFCURVE",
"96 315 OFFCURVE",
"96 363 CURVE SMOOTH",
"96 432 OFFCURVE",
"171 464 OFFCURVE",
"219 485 CURVE",
"210 498 LINE SMOOTH"
);
},
{
closed = 1;
nodes = (
"194 444 OFFCURVE",
"161 424 OFFCURVE",
"161 366 CURVE SMOOTH",
"161 332 OFFCURVE",
"181 302 OFFCURVE",
"223 302 CURVE SMOOTH",
"263 302 OFFCURVE",
"287 329 OFFCURVE",
"287 359 CURVE SMOOTH",
"287 384 OFFCURVE",
"281 401 OFFCURVE",
"263 431 CURVE SMOOTH",
"240 470 LINE"
);
},
{
closed = 1;
nodes = (
"307 536 OFFCURVE",
"334 563 OFFCURVE",
"334 605 CURVE SMOOTH",
"334 624 OFFCURVE",
"322 639 OFFCURVE",
"296 639 CURVE SMOOTH",
"265 639 OFFCURVE",
"240 619 OFFCURVE",
"240 591 CURVE SMOOTH",
"240 568 OFFCURVE",
"249 547 OFFCURVE",
"276 513 CURVE"
);
}
);
width = 341;
}
);
},
{
glyphname = eight.oldstyle;
lastChange = "2018-10-23 22:45:40 +0000";
layers = (
{
layerId = master01;
paths = (
{
closed = 1;
nodes = (
"427 405 OFFCURVE",
"490 483 OFFCURVE",
"490 555 CURVE SMOOTH",
"490 613 OFFCURVE",
"444 652 OFFCURVE",
"372 652 CURVE SMOOTH",
"252 652 OFFCURVE",
"152 566 OFFCURVE",
"152 466 CURVE SMOOTH",
"152 418 OFFCURVE",
"175 375 OFFCURVE",
"213 335 CURVE",
"89 282 OFFCURVE",
"15 199 OFFCURVE",
"15 111 CURVE SMOOTH",
"15 35 OFFCURVE",
"66 -9 OFFCURVE",
"156 -9 CURVE SMOOTH",
"294 -9 OFFCURVE",
"398 89 OFFCURVE",
"398 219 CURVE SMOOTH",
"398 255 OFFCURVE",
"382 304 OFFCURVE",
"336 360 CURVE"
);
},
{
closed = 1;
nodes = (
"265 419 OFFCURVE",
"241 469 OFFCURVE",
"241 512 CURVE SMOOTH",
"241 568 OFFCURVE",
"291 613 OFFCURVE",
"355 613 CURVE SMOOTH",
"392 613 OFFCURVE",
"415 591 OFFCURVE",
"415 553 CURVE SMOOTH",
"415 499 OFFCURVE",
"376 428 OFFCURVE",
"311 382 CURVE"
);
},
{
closed = 1;
nodes = (
"286 269 OFFCURVE",
"305 219 OFFCURVE",
"305 169 CURVE SMOOTH",
"305 90 OFFCURVE",
"248 30 OFFCURVE",
"170 30 CURVE SMOOTH",
"122 30 OFFCURVE",
"98 54 OFFCURVE",
"98 104 CURVE SMOOTH",
"98 180 OFFCURVE",
"158 271 OFFCURVE",
"237 310 CURVE"
);
}
);
width = 483;
},
{
layerId = "5CF0B95A-6341-4D13-90DE-0CF1719C21EC";
paths = (
{
closed = 1;
nodes = (
"427 405 OFFCURVE",
"490 483 OFFCURVE",
"490 555 CURVE SMOOTH",
"490 613 OFFCURVE",
"444 652 OFFCURVE",
"372 652 CURVE SMOOTH",
"252 652 OFFCURVE",
"152 566 OFFCURVE",
"152 466 CURVE SMOOTH",
"152 418 OFFCURVE",
"175 375 OFFCURVE",
"213 335 CURVE",
"89 282 OFFCURVE",
"15 199 OFFCURVE",
"15 111 CURVE SMOOTH",
"15 35 OFFCURVE",
"66 -9 OFFCURVE",
"156 -9 CURVE SMOOTH",
"294 -9 OFFCURVE",
"398 89 OFFCURVE",
"398 219 CURVE SMOOTH",
"398 255 OFFCURVE",
"382 304 OFFCURVE",
"336 360 CURVE"
);
},
{
closed = 1;
nodes = (
"265 419 OFFCURVE",
"241 469 OFFCURVE",
"241 512 CURVE SMOOTH",
"241 568 OFFCURVE",
"291 613 OFFCURVE",
"355 613 CURVE SMOOTH",
"392 613 OFFCURVE",
"415 591 OFFCURVE",
"415 553 CURVE SMOOTH",
"415 499 OFFCURVE",
"376 428 OFFCURVE",
"311 382 CURVE"
);
},
{
closed = 1;
nodes = (
"286 269 OFFCURVE",
"305 219 OFFCURVE",
"305 169 CURVE SMOOTH",
"305 90 OFFCURVE",
"248 30 OFFCURVE",
"170 30 CURVE SMOOTH",
"122 30 OFFCURVE",
"98 54 OFFCURVE",
"98 104 CURVE SMOOTH",
"98 180 OFFCURVE",
"158 271 OFFCURVE",
"237 310 CURVE"
);
}
);
width = 483;
}
);
},
{
glyphname = eight.tnum;
lastChange = "2018-10-23 22:45:40 +0000";
layers = (
{
layerId = master01;
paths = (
{
closed = 1;
nodes = (
"147 400 OFFCURVE",
"117 447 OFFCURVE",
"117 503 CURVE SMOOTH",
"117 617 OFFCURVE",
"209 671 OFFCURVE",
"304 671 CURVE SMOOTH",
"395 671 OFFCURVE",
"451 622 OFFCURVE",
"451 551 CURVE SMOOTH",
"451 458 OFFCURVE",
"359 410 OFFCURVE",
"287 378 CURVE",
"315 345 LINE SMOOTH",
"346 307 OFFCURVE",
"375 254 OFFCURVE",
"375 198 CURVE SMOOTH",
"375 56 OFFCURVE",
"270 -9 OFFCURVE",
"164 -9 CURVE SMOOTH",
"34 -9 OFFCURVE",
"-26 67 OFFCURVE",
"-26 148 CURVE SMOOTH",
"-26 266 OFFCURVE",
"95 328 OFFCURVE",
"178 362 CURVE",
"160 384 LINE SMOOTH"
);
},
{
closed = 1;
nodes = (
"118 292 OFFCURVE",
"64 253 OFFCURVE",
"64 154 CURVE SMOOTH",
"64 85 OFFCURVE",
"101 28 OFFCURVE",
"175 28 CURVE SMOOTH",
"251 28 OFFCURVE",
"298 77 OFFCURVE",
"298 156 CURVE SMOOTH",
"298 200 OFFCURVE",
"279 236 OFFCURVE",
"251 270 CURVE SMOOTH",
"199 335 LINE"
);
},
{
closed = 1;
nodes = (
"323 441 OFFCURVE",
"371 489 OFFCURVE",
"371 560 CURVE SMOOTH",
"371 604 OFFCURVE",
"349 635 OFFCURVE",
"299 635 CURVE SMOOTH",
"238 635 OFFCURVE",
"191 596 OFFCURVE",
"191 536 CURVE SMOOTH",
"191 481 OFFCURVE",
"233 436 OFFCURVE",
"266 402 CURVE"
);
}
);
width = 516;
},
{
layerId = "5CF0B95A-6341-4D13-90DE-0CF1719C21EC";
paths = (
{
closed = 1;
nodes = (
"147 400 OFFCURVE",
"117 447 OFFCURVE",
"117 503 CURVE SMOOTH",
"117 617 OFFCURVE",
"209 671 OFFCURVE",
"304 671 CURVE SMOOTH",
"395 671 OFFCURVE",
"451 622 OFFCURVE",
"451 551 CURVE SMOOTH",
"451 458 OFFCURVE",
"359 410 OFFCURVE",
"287 378 CURVE",
"315 345 LINE SMOOTH",
"346 307 OFFCURVE",
"375 254 OFFCURVE",
"375 198 CURVE SMOOTH",
"375 56 OFFCURVE",
"270 -9 OFFCURVE",
"164 -9 CURVE SMOOTH",
"34 -9 OFFCURVE",
"-26 67 OFFCURVE",
"-26 148 CURVE SMOOTH",
"-26 266 OFFCURVE",
"95 328 OFFCURVE",
"178 362 CURVE",
"160 384 LINE SMOOTH"
);
},
{
closed = 1;
nodes = (
"118 292 OFFCURVE",
"64 253 OFFCURVE",
"64 154 CURVE SMOOTH",
"64 85 OFFCURVE",
"101 28 OFFCURVE",
"175 28 CURVE SMOOTH",
"251 28 OFFCURVE",
"298 77 OFFCURVE",
"298 156 CURVE SMOOTH",
"298 200 OFFCURVE",
"279 236 OFFCURVE",
"251 270 CURVE SMOOTH",
"199 335 LINE"
);
},
{
closed = 1;
nodes = (
"323 441 OFFCURVE",
"371 489 OFFCURVE",
"371 560 CURVE SMOOTH",
"371 604 OFFCURVE",
"349 635 OFFCURVE",
"299 635 CURVE SMOOTH",
"238 635 OFFCURVE",
"191 596 OFFCURVE",
"191 536 CURVE SMOOTH",
"191 481 OFFCURVE",
"233 436 OFFCURVE",
"266 402 CURVE"
);
}
);
width = 516;
}
);
},
{
glyphname = eightinferior;
lastChange = "2018-10-23 22:45:40 +0000";
layers = (
{
layerId = master01;
paths = (
{
closed = 1;
nodes = (
"32 141 OFFCURVE",
"20 169 OFFCURVE",
"20 197 CURVE SMOOTH",
"20 271 OFFCURVE",
"84 306 OFFCURVE",
"151 306 CURVE SMOOTH",
"215 306 OFFCURVE",
"255 274 OFFCURVE",
"255 228 CURVE SMOOTH",
"255 168 OFFCURVE",
"199 132 OFFCURVE",
"151 111 CURVE",
"169 89 LINE SMOOTH",
"195 56 OFFCURVE",
"206 23 OFFCURVE",
"206 -3 CURVE SMOOTH",
"206 -95 OFFCURVE",
"132 -138 OFFCURVE",
"59 -138 CURVE SMOOTH",
"-33 -138 OFFCURVE",
"-74 -89 OFFCURVE",
"-74 -35 CURVE SMOOTH",
"-74 41 OFFCURVE",
"9 77 OFFCURVE",
"63 101 CURVE",
"52 115 LINE SMOOTH"
);
},
{
closed = 1;
nodes = (
"35 54 OFFCURVE",
"-3 33 OFFCURVE",
"-3 -32 CURVE SMOOTH",
"-3 -70 OFFCURVE",
"20 -103 OFFCURVE",
"66 -103 CURVE SMOOTH",
"111 -103 OFFCURVE",
"138 -74 OFFCURVE",
"138 -40 CURVE SMOOTH",
"138 -13 OFFCURVE",
"131 7 OFFCURVE",
"111 40 CURVE SMOOTH",
"85 83 LINE"
);
},
{
closed = 1;
nodes = (
"161 157 OFFCURVE",
"190 187 OFFCURVE",
"190 234 CURVE SMOOTH",
"190 255 OFFCURVE",
"177 272 OFFCURVE",
"147 272 CURVE SMOOTH",
"113 272 OFFCURVE",
"85 250 OFFCURVE",
"85 218 CURVE SMOOTH",
"85 194 OFFCURVE",
"95 169 OFFCURVE",
"126 132 CURVE"
);
}
);
width = 364;
},
{
layerId = "5CF0B95A-6341-4D13-90DE-0CF1719C21EC";
paths = (
{
closed = 1;
nodes = (
"32 141 OFFCURVE",
"20 169 OFFCURVE",
"20 197 CURVE SMOOTH",
"20 271 OFFCURVE",
"84 306 OFFCURVE",
"151 306 CURVE SMOOTH",
"215 306 OFFCURVE",
"255 274 OFFCURVE",
"255 228 CURVE SMOOTH",
"255 168 OFFCURVE",
"199 132 OFFCURVE",
"151 111 CURVE",
"169 89 LINE SMOOTH",
"195 56 OFFCURVE",
"206 23 OFFCURVE",
"206 -3 CURVE SMOOTH",
"206 -95 OFFCURVE",
"132 -138 OFFCURVE",
"59 -138 CURVE SMOOTH",
"-33 -138 OFFCURVE",
"-74 -89 OFFCURVE",
"-74 -35 CURVE SMOOTH",
"-74 41 OFFCURVE",
"9 77 OFFCURVE",
"63 101 CURVE",
"52 115 LINE SMOOTH"
);
},
{
closed = 1;
nodes = (
"35 54 OFFCURVE",
"-3 33 OFFCURVE",
"-3 -32 CURVE SMOOTH",
"-3 -70 OFFCURVE",
"20 -103 OFFCURVE",
"66 -103 CURVE SMOOTH",
"111 -103 OFFCURVE",
"138 -74 OFFCURVE",
"138 -40 CURVE SMOOTH",
"138 -13 OFFCURVE",
"131 7 OFFCURVE",
"111 40 CURVE SMOOTH",
"85 83 LINE"
);
},
{
closed = 1;
nodes = (
"161 157 OFFCURVE",
"190 187 OFFCURVE",
"190 234 CURVE SMOOTH",
"190 255 OFFCURVE",
"177 272 OFFCURVE",
"147 272 CURVE SMOOTH",
"113 272 OFFCURVE",
"85 250 OFFCURVE",
"85 218 CURVE SMOOTH",
"85 194 OFFCURVE",
"95 169 OFFCURVE",
"126 132 CURVE"
);
}
);
width = 364;
}
);
unicode = 2088;
},
{
glyphname = eightsuperior;
lastChange = "2018-10-23 22:45:40 +0000";
layers = (
{
layerId = master01;
paths = (
{
closed = 1;
nodes = (
"238 633 OFFCURVE",
"228 660 OFFCURVE",
"228 690 CURVE SMOOTH",
"228 753 OFFCURVE",
"282 796 OFFCURVE",
"359 796 CURVE SMOOTH",
"422 796 OFFCURVE",
"463 765 OFFCURVE",
"463 716 CURVE SMOOTH",
"463 671 OFFCURVE",
"425 629 OFFCURVE",
"359 601 CURVE",
"378 579 LINE SMOOTH",
"402 548 OFFCURVE",
"414 517 OFFCURVE",
"414 482 CURVE SMOOTH",
"414 405 OFFCURVE",
"352 352 OFFCURVE",
"263 352 CURVE SMOOTH",
"187 352 OFFCURVE",
"134 394 OFFCURVE",
"134 456 CURVE SMOOTH",
"134 508 OFFCURVE",
"177 550 OFFCURVE",
"271 591 CURVE",
"260 605 LINE SMOOTH"
);
},
{
closed = 1;
nodes = (
"224 532 OFFCURVE",
"206 508 OFFCURVE",
"206 463 CURVE SMOOTH",
"206 415 OFFCURVE",
"231 387 OFFCURVE",
"275 387 CURVE SMOOTH",
"319 387 OFFCURVE",
"346 413 OFFCURVE",
"346 458 CURVE SMOOTH",
"346 482 OFFCURVE",
"336 507 OFFCURVE",
"319 530 CURVE SMOOTH",
"288 569 LINE"
);
},
{
closed = 1;
nodes = (
"375 651 OFFCURVE",
"398 686 OFFCURVE",
"398 720 CURVE SMOOTH",
"398 748 OFFCURVE",
"384 762 OFFCURVE",
"355 762 CURVE SMOOTH",
"318 762 OFFCURVE",
"293 740 OFFCURVE",
"293 706 CURVE SMOOTH",
"293 682 OFFCURVE",
"306 654 OFFCURVE",
"334 622 CURVE"
);
}
);
width = 365;
},
{
layerId = "5CF0B95A-6341-4D13-90DE-0CF1719C21EC";
paths = (
{
closed = 1;
nodes = (
"238 633 OFFCURVE",
"228 660 OFFCURVE",
"228 690 CURVE SMOOTH",
"228 753 OFFCURVE",
"282 796 OFFCURVE",
"359 796 CURVE SMOOTH",
"422 796 OFFCURVE",
"463 765 OFFCURVE",
"463 716 CURVE SMOOTH",
"463 671 OFFCURVE",
"425 629 OFFCURVE",
"359 601 CURVE",
"378 579 LINE SMOOTH",
"402 548 OFFCURVE",
"414 517 OFFCURVE",
"414 482 CURVE SMOOTH",
"414 405 OFFCURVE",
"352 352 OFFCURVE",
"263 352 CURVE SMOOTH",
"187 352 OFFCURVE",
"134 394 OFFCURVE",
"134 456 CURVE SMOOTH",
"134 508 OFFCURVE",
"177 550 OFFCURVE",
"271 591 CURVE",
"260 605 LINE SMOOTH"
);
},
{
closed = 1;
nodes = (
"224 532 OFFCURVE",
"206 508 OFFCURVE",
"206 463 CURVE SMOOTH",
"206 415 OFFCURVE",
"231 387 OFFCURVE",
"275 387 CURVE SMOOTH",
"319 387 OFFCURVE",
"346 413 OFFCURVE",
"346 458 CURVE SMOOTH",
"346 482 OFFCURVE",
"336 507 OFFCURVE",
"319 530 CURVE SMOOTH",
"288 569 LINE"
);
},
{
closed = 1;
nodes = (
"375 651 OFFCURVE",
"398 686 OFFCURVE",
"398 720 CURVE SMOOTH",
"398 748 OFFCURVE",
"384 762 OFFCURVE",
"355 762 CURVE SMOOTH",
"318 762 OFFCURVE",
"293 740 OFFCURVE",
"293 706 CURVE SMOOTH",
"293 682 OFFCURVE",
"306 654 OFFCURVE",
"334 622 CURVE"
);
}
);
width = 365;
}
);
unicode = 2078;
},
{
glyphname = ellipsis;
lastChange = "2018-10-23 22:45:40 +0000";
layers = (
{
layerId = master01;
paths = (
{
closed = 1;
nodes = (
"81 118 OFFCURVE",
"111 94 OFFCURVE",
"111 62 CURVE SMOOTH",
"111 26 OFFCURVE",
"73 -9 OFFCURVE",
"35 -9 CURVE SMOOTH",
"-3 -9 OFFCURVE",
"-28 15 OFFCURVE",
"-28 49 CURVE SMOOTH",
"-28 87 OFFCURVE",
"8 118 OFFCURVE",
"46 118 CURVE SMOOTH"
);
},
{
closed = 1;
nodes = (
"288 118 OFFCURVE",
"318 94 OFFCURVE",
"318 62 CURVE SMOOTH",
"318 26 OFFCURVE",
"280 -9 OFFCURVE",
"243 -9 CURVE SMOOTH",
"204 -9 OFFCURVE",
"180 15 OFFCURVE",
"180 49 CURVE SMOOTH",
"180 87 OFFCURVE",
"215 118 OFFCURVE",
"254 118 CURVE SMOOTH"
);
},
{
closed = 1;
nodes = (
"495 118 OFFCURVE",
"525 94 OFFCURVE",
"525 62 CURVE SMOOTH",
"525 26 OFFCURVE",
"488 -9 OFFCURVE",
"450 -9 CURVE SMOOTH",
"411 -9 OFFCURVE",
"387 15 OFFCURVE",
"387 49 CURVE SMOOTH",
"387 87 OFFCURVE",
"422 118 OFFCURVE",
"461 118 CURVE SMOOTH"
);
}
);
width = 657;
},
{
layerId = "5CF0B95A-6341-4D13-90DE-0CF1719C21EC";
paths = (
{
closed = 1;
nodes = (
"81 118 OFFCURVE",
"111 94 OFFCURVE",
"111 62 CURVE SMOOTH",
"111 26 OFFCURVE",
"73 -9 OFFCURVE",
"35 -9 CURVE SMOOTH",
"-3 -9 OFFCURVE",
"-28 15 OFFCURVE",
"-28 49 CURVE SMOOTH",
"-28 87 OFFCURVE",
"8 118 OFFCURVE",
"46 118 CURVE SMOOTH"
);
},
{
closed = 1;
nodes = (
"288 118 OFFCURVE",
"318 94 OFFCURVE",
"318 62 CURVE SMOOTH",
"318 26 OFFCURVE",
"280 -9 OFFCURVE",
"243 -9 CURVE SMOOTH",
"204 -9 OFFCURVE",
"180 15 OFFCURVE",
"180 49 CURVE SMOOTH",
"180 87 OFFCURVE",
"215 118 OFFCURVE",
"254 118 CURVE SMOOTH"
);
},
{
closed = 1;
nodes = (
"495 118 OFFCURVE",
"525 94 OFFCURVE",
"525 62 CURVE SMOOTH",
"525 26 OFFCURVE",
"488 -9 OFFCURVE",
"450 -9 CURVE SMOOTH",
"411 -9 OFFCURVE",
"387 15 OFFCURVE",
"387 49 CURVE SMOOTH",
"387 87 OFFCURVE",
"422 118 OFFCURVE",
"461 118 CURVE SMOOTH"
);
}
);
width = 657;
}
);
leftKerningGroup = period;
unicode = 2026;
},
{
glyphname = emdash;
lastChange = "2018-10-23 22:45:40 +0000";
layers = (
{
layerId = master01;
paths = (
{
closed = 1;
nodes = (
"854 243 LINE",
"63 243 LINE",
"42 191 LINE",
"832 191 LINE"
);
}
);
width = 931;
},
{
layerId = "5CF0B95A-6341-4D13-90DE-0CF1719C21EC";
paths = (
{
closed = 1;
nodes = (
"854 243 LINE",
"63 243 LINE",
"42 191 LINE",
"832 191 LINE"
);
}
);
width = 931;
}
);
leftKerningGroup = hyphen;
rightKerningGroup = hyphen;
unicode = 2014;
},
{
glyphname = endash;
lastChange = "2018-10-23 22:45:40 +0000";
layers = (
{
layerId = master01;
paths = (
{
closed = 1;
nodes = (
"578 243 LINE",
"63 243 LINE",
"42 190 LINE",
"556 190 LINE"
);
}
);
width = 654;
},
{
layerId = "5CF0B95A-6341-4D13-90DE-0CF1719C21EC";
paths = (
{
closed = 1;
nodes = (
"578 243 LINE",
"63 243 LINE",
"42 190 LINE",
"556 190 LINE"
);
}
);
width = 654;
}
);
leftKerningGroup = hyphen;
rightKerningGroup = hyphen;
unicode = 2013;
},
{
glyphname = eng;
lastChange = "2018-10-23 22:45:40 +0000";
layers = (
{
layerId = master01;
paths = (
{
closed = 1;
nodes = (
"181 -150 OFFCURVE",
"157 -190 OFFCURVE",
"120 -190 CURVE SMOOTH",
"69 -190 OFFCURVE",
"95 -114 OFFCURVE",
"36 -114 CURVE SMOOTH {name = hr01;}",
"9 -114 OFFCURVE",
"-3 -129 OFFCURVE",
"-3 -152 CURVE SMOOTH",
"-3 -195 OFFCURVE",
"39 -220 OFFCURVE",
"97 -220 CURVE SMOOTH",
"182 -220 OFFCURVE",
"249 -167 OFFCURVE",
"293 -70 CURVE SMOOTH",
"469 310 LINE SMOOTH",
"482 340 OFFCURVE",
"490 364 OFFCURVE",
"490 390 CURVE SMOOTH",
"490 438 OFFCURVE",
"464 464 OFFCURVE",
"412 464 CURVE SMOOTH",
"348 464 OFFCURVE",
"292 424 OFFCURVE",
"218 327 CURVE",
"215 329 LINE",
"243 379 OFFCURVE",
"253 407 OFFCURVE",
"253 430 CURVE SMOOTH",
"253 454 OFFCURVE",
"241 464 OFFCURVE",
"212 464 CURVE SMOOTH {name = hr02;}",
"157 464 OFFCURVE",
"93 427 OFFCURVE",
"49 366 CURVE",
"66 353 LINE",
"101 396 OFFCURVE",
"138 426 OFFCURVE",
"157 426 CURVE SMOOTH",
"166 426 OFFCURVE",
"169 420 OFFCURVE",
"169 414 CURVE SMOOTH",
"169 407 OFFCURVE",
"166 398 OFFCURVE",
"160 384 CURVE SMOOTH",
"-5 0 LINE",
"78 0 LINE",
"158 167 LINE SMOOTH",
"232 321 OFFCURVE",
"329 434 OFFCURVE",
"388 434 CURVE SMOOTH {name = hr03;}",
"405 434 OFFCURVE",
"415 425 OFFCURVE",
"415 409 CURVE SMOOTH",
"415 396 OFFCURVE",
"409 379 OFFCURVE",
"404 367 CURVE SMOOTH",
"236 -24 LINE SMOOTH"
);
}
);
width = 513;
},
{
layerId = "5CF0B95A-6341-4D13-90DE-0CF1719C21EC";
paths = (
{
closed = 1;
nodes = (
"181 -150 OFFCURVE",
"157 -190 OFFCURVE",
"120 -190 CURVE SMOOTH",
"69 -190 OFFCURVE",
"95 -114 OFFCURVE",
"36 -114 CURVE SMOOTH {name = hr01;}",
"9 -114 OFFCURVE",
"-3 -129 OFFCURVE",
"-3 -152 CURVE SMOOTH",
"-3 -195 OFFCURVE",
"39 -220 OFFCURVE",
"97 -220 CURVE SMOOTH",
"182 -220 OFFCURVE",
"249 -167 OFFCURVE",
"293 -70 CURVE SMOOTH",
"469 310 LINE SMOOTH",
"482 340 OFFCURVE",
"490 364 OFFCURVE",
"490 390 CURVE SMOOTH",
"490 438 OFFCURVE",
"464 464 OFFCURVE",
"412 464 CURVE SMOOTH",
"348 464 OFFCURVE",
"292 424 OFFCURVE",
"218 327 CURVE",
"215 329 LINE",
"243 379 OFFCURVE",
"253 407 OFFCURVE",
"253 430 CURVE SMOOTH",
"253 454 OFFCURVE",
"241 464 OFFCURVE",
"212 464 CURVE SMOOTH {name = hr02;}",
"157 464 OFFCURVE",
"93 427 OFFCURVE",
"49 366 CURVE",
"66 353 LINE",
"101 396 OFFCURVE",
"138 426 OFFCURVE",
"157 426 CURVE SMOOTH",
"166 426 OFFCURVE",
"169 420 OFFCURVE",
"169 414 CURVE SMOOTH",
"169 407 OFFCURVE",
"166 398 OFFCURVE",
"160 384 CURVE SMOOTH",
"-5 0 LINE",
"78 0 LINE",
"158 167 LINE SMOOTH",
"232 321 OFFCURVE",
"329 434 OFFCURVE",
"388 434 CURVE SMOOTH {name = hr03;}",
"405 434 OFFCURVE",
"415 425 OFFCURVE",
"415 409 CURVE SMOOTH",
"415 396 OFFCURVE",
"409 379 OFFCURVE",
"404 367 CURVE SMOOTH",
"236 -24 LINE SMOOTH"
);
}
);
width = 513;
}
);
leftKerningGroup = n;
unicode = 014B;
},
{
glyphname = equal;
lastChange = "2018-10-23 22:45:40 +0000";
layers = (
{
layerId = master01;
paths = (
{
closed = 1;
nodes = (
"434 236 LINE",
"434 200 LINE",
"120 200 LINE",
"120 236 LINE"
);
},
{
closed = 1;
nodes = (
"434 365 LINE",
"434 329 LINE",
"120 329 LINE",
"120 365 LINE"
);
}
);
width = 540;
},
{
layerId = "5CF0B95A-6341-4D13-90DE-0CF1719C21EC";
paths = (
{
closed = 1;
nodes = (
"434 236 LINE",
"434 200 LINE",
"120 200 LINE",
"120 236 LINE"
);
},
{
closed = 1;
nodes = (
"434 365 LINE",
"434 329 LINE",
"120 329 LINE",
"120 365 LINE"
);
}
);
width = 540;
}
);
unicode = 003D;
},
{
glyphname = equal.tnum;
lastChange = "2018-10-23 22:45:40 +0000";
layers = (
{
layerId = master01;
paths = (
{
closed = 1;
nodes = (
"401 236 LINE",
"401 200 LINE",
"86 200 LINE",
"86 236 LINE"
);
},
{
closed = 1;
nodes = (
"401 365 LINE",
"401 329 LINE",
"86 329 LINE",
"86 365 LINE"
);
}
);
width = 445;
},
{
layerId = "5CF0B95A-6341-4D13-90DE-0CF1719C21EC";
paths = (
{
closed = 1;
nodes = (
"401 236 LINE",
"401 200 LINE",
"86 200 LINE",
"86 236 LINE"
);
},
{
closed = 1;
nodes = (
"401 365 LINE",
"401 329 LINE",
"86 329 LINE",
"86 365 LINE"
);
}
);
width = 445;
}
);
},
{
glyphname = eth;
lastChange = "2018-10-23 22:45:40 +0000";
layers = (
{
layerId = master01;
paths = (
{
closed = 1;
nodes = (
"172 464 OFFCURVE",
"11 286 OFFCURVE",
"11 130 CURVE SMOOTH",
"11 43 OFFCURVE",
"60 -9 OFFCURVE",
"141 -9 CURVE SMOOTH",
"295 -9 OFFCURVE",
"443 171 OFFCURVE",
"443 358 CURVE SMOOTH",
"443 440 OFFCURVE",
"415 547 OFFCURVE",
"381 592 CURVE",
"492 662 LINE",
"473 690 LINE",
"361 619 LINE",
"330 652 OFFCURVE",
"292 677 OFFCURVE",
"230 704 CURVE",
"218 682 LINE",
"273 654 OFFCURVE",
"303 631 OFFCURVE",
"326 596 CURVE",
"210 521 LINE",
"228 493 LINE",
"340 565 LINE",
"366 513 OFFCURVE",
"377 479 OFFCURVE",
"379 432 CURVE",
"376 432 LINE",
"365 454 OFFCURVE",
"344 464 OFFCURVE",
"311 464 CURVE SMOOTH {name = hr00;}"
);
},
{
closed = 1;
nodes = (
"349 427 OFFCURVE",
"362 408 OFFCURVE",
"362 369 CURVE SMOOTH",
"362 241 OFFCURVE",
"214 22 OFFCURVE",
"128 22 CURVE SMOOTH",
"102 22 OFFCURVE",
"89 41 OFFCURVE",
"89 83 CURVE SMOOTH",
"89 219 OFFCURVE",
"230 427 OFFCURVE",
"322 427 CURVE SMOOTH"
);
}
);
width = 477;
},
{
layerId = "5CF0B95A-6341-4D13-90DE-0CF1719C21EC";
paths = (
{
closed = 1;
nodes = (
"172 464 OFFCURVE",
"11 286 OFFCURVE",
"11 130 CURVE SMOOTH",
"11 43 OFFCURVE",
"60 -9 OFFCURVE",
"141 -9 CURVE SMOOTH",
"295 -9 OFFCURVE",
"443 171 OFFCURVE",
"443 358 CURVE SMOOTH",
"443 440 OFFCURVE",
"415 547 OFFCURVE",
"381 592 CURVE",
"492 662 LINE",
"473 690 LINE",
"361 619 LINE",
"330 652 OFFCURVE",
"292 677 OFFCURVE",
"230 704 CURVE",
"218 682 LINE",
"273 654 OFFCURVE",
"303 631 OFFCURVE",
"326 596 CURVE",
"210 521 LINE",
"228 493 LINE",
"340 565 LINE",
"366 513 OFFCURVE",
"377 479 OFFCURVE",
"379 432 CURVE",
"376 432 LINE",
"365 454 OFFCURVE",
"344 464 OFFCURVE",
"311 464 CURVE SMOOTH {name = hr00;}"
);
},
{
closed = 1;
nodes = (
"349 427 OFFCURVE",
"362 408 OFFCURVE",
"362 369 CURVE SMOOTH",
"362 241 OFFCURVE",
"214 22 OFFCURVE",
"128 22 CURVE SMOOTH",
"102 22 OFFCURVE",
"89 41 OFFCURVE",
"89 83 CURVE SMOOTH",
"89 219 OFFCURVE",
"230 427 OFFCURVE",
"322 427 CURVE SMOOTH"
);
}
);
width = 477;
}
);
unicode = 00F0;
},
{
glyphname = exclam;
lastChange = "2018-10-23 22:45:40 +0000";
layers = (
{
layerId = master01;
paths = (
{
closed = 1;
nodes = (
"188 322 OFFCURVE",
"222 399 OFFCURVE",
"268 476 CURVE SMOOTH",
"324 567 OFFCURVE",
"336 592 OFFCURVE",
"336 617 CURVE SMOOTH",
"336 648 OFFCURVE",
"314 671 OFFCURVE",
"281 671 CURVE SMOOTH",
"253 671 OFFCURVE",
"231 653 OFFCURVE",
"223 627 CURVE SMOOTH",
"217 610 OFFCURVE",
"203 557 OFFCURVE",
"187 491 CURVE SMOOTH",
"118 198 LINE",
"148 198 LINE"
);
},
{
closed = 1;
nodes = (
"122 99 OFFCURVE",
"146 77 OFFCURVE",
"146 49 CURVE SMOOTH",
"146 18 OFFCURVE",
"116 -9 OFFCURVE",
"82 -9 CURVE SMOOTH",
"52 -9 OFFCURVE",
"31 12 OFFCURVE",
"31 40 CURVE SMOOTH",
"31 72 OFFCURVE",
"58 99 OFFCURVE",
"92 99 CURVE SMOOTH"
);
}
);
width = 289;
},
{
layerId = "5CF0B95A-6341-4D13-90DE-0CF1719C21EC";
paths = (
{
closed = 1;
nodes = (
"188 322 OFFCURVE",
"222 399 OFFCURVE",
"268 476 CURVE SMOOTH",
"324 567 OFFCURVE",
"336 592 OFFCURVE",
"336 617 CURVE SMOOTH",
"336 648 OFFCURVE",
"314 671 OFFCURVE",
"281 671 CURVE SMOOTH",
"253 671 OFFCURVE",
"231 653 OFFCURVE",
"223 627 CURVE SMOOTH",
"217 610 OFFCURVE",
"203 557 OFFCURVE",
"187 491 CURVE SMOOTH",
"118 198 LINE",
"148 198 LINE"
);
},
{
closed = 1;
nodes = (
"122 99 OFFCURVE",
"146 77 OFFCURVE",
"146 49 CURVE SMOOTH",
"146 18 OFFCURVE",
"116 -9 OFFCURVE",
"82 -9 CURVE SMOOTH",
"52 -9 OFFCURVE",
"31 12 OFFCURVE",
"31 40 CURVE SMOOTH",
"31 72 OFFCURVE",
"58 99 OFFCURVE",
"92 99 CURVE SMOOTH"
);
}
);
width = 289;
}
);
unicode = 0021;
},
{
glyphname = exclamdown;
lastChange = "2018-10-23 22:45:40 +0000";
layers = (
{
layerId = master01;
paths = (
{
closed = 1;
nodes = (
"66 134 OFFCURVE",
"32 58 OFFCURVE",
"-14 -20 CURVE SMOOTH",
"-64 -105 OFFCURVE",
"-73 -129 OFFCURVE",
"-73 -152 CURVE SMOOTH",
"-73 -184 OFFCURVE",
"-51 -206 OFFCURVE",
"-18 -206 CURVE SMOOTH",
"10 -206 OFFCURVE",
"28 -188 OFFCURVE",
"36 -163 CURVE SMOOTH",
"41 -146 OFFCURVE",
"52 -98 OFFCURVE",
"67 -35 CURVE SMOOTH",
"137 258 LINE",
"107 258 LINE"
);
},
{
closed = 1;
nodes = (
"132 357 OFFCURVE",
"108 378 OFFCURVE",
"108 407 CURVE SMOOTH",
"108 438 OFFCURVE",
"138 464 OFFCURVE",
"173 464 CURVE SMOOTH",
"203 464 OFFCURVE",
"224 444 OFFCURVE",
"224 415 CURVE SMOOTH",
"224 384 OFFCURVE",
"196 357 OFFCURVE",
"163 357 CURVE SMOOTH"
);
}
);
width = 270;
},
{
layerId = "5CF0B95A-6341-4D13-90DE-0CF1719C21EC";
paths = (
{
closed = 1;
nodes = (
"66 134 OFFCURVE",
"32 58 OFFCURVE",
"-14 -20 CURVE SMOOTH",
"-64 -105 OFFCURVE",
"-73 -129 OFFCURVE",
"-73 -152 CURVE SMOOTH",
"-73 -184 OFFCURVE",
"-51 -206 OFFCURVE",
"-18 -206 CURVE SMOOTH",
"10 -206 OFFCURVE",
"28 -188 OFFCURVE",
"36 -163 CURVE SMOOTH",
"41 -146 OFFCURVE",
"52 -98 OFFCURVE",
"67 -35 CURVE SMOOTH",
"137 258 LINE",
"107 258 LINE"
);
},
{
closed = 1;
nodes = (
"132 357 OFFCURVE",
"108 378 OFFCURVE",
"108 407 CURVE SMOOTH",
"108 438 OFFCURVE",
"138 464 OFFCURVE",
"173 464 CURVE SMOOTH",
"203 464 OFFCURVE",
"224 444 OFFCURVE",
"224 415 CURVE SMOOTH",
"224 384 OFFCURVE",
"196 357 OFFCURVE",
"163 357 CURVE SMOOTH"
);
}
);
width = 270;
}
);
unicode = 00A1;
},
